<?xml version="1.0" encoding="UTF-8"?>
<svg width="200px" height="200px" viewBox="0 0 200 200" version="1.1" xmlns="http://www.w3.org/2000/svg" xmlns:xlink="http://www.w3.org/1999/xlink">
    <title>announcement</title>
    <g id="Page-1" stroke="none" stroke-width="1" fill="none" fill-rule="evenodd">
        <g id="Desktop" transform="translate(-983.000000, -80.000000)">
            <g id="announcement" transform="translate(983.000000, 80.000000)">
                <rect id="ViewBox" x="0" y="0" width="200" height="200"></rect>
                <path d="M92.1499998,117.6 C117.2,117.6 158.95,150.8 158.95,150.8 L158.95,18 C158.95,18 117.2,51.2 92.1499998,51.2 L92.1499998,117.6 Z M42.0499999,117.6 L67.0999998,184 L100.5,184 L75.4499998,117.6 M158.95,109.3 C167.899503,109.3 176.169185,104.554087 180.643936,96.8500002 C185.118688,89.1459133 185.118688,79.6540867 180.643936,71.9499998 C176.169185,64.245913 167.899503,59.5 158.95,59.5 M92.1499998,150.8 C100.5,150.8 117.2,142.5 117.2,125.9 M17,84.4 C17,58.5787 31.95485,51.2 50.3999999,51.2 L92.1499998,51.2 L92.1499998,117.6 L50.3999999,117.6 C31.95485,117.6 17,110.2213 17,84.4 Z" id="Shape" stroke="#000000" stroke-width="10"></path>
            </g>
        </g>
    </g>
</svg>