<?xml version="1.0" encoding="UTF-8"?>
<svg width="120px" height="122px" viewBox="0 0 120 122" version="1.1" xmlns="http://www.w3.org/2000/svg" xmlns:xlink="http://www.w3.org/1999/xlink">
    <title>css</title>
    <g id="Page-1" stroke="none" stroke-width="1" fill="none" fill-rule="evenodd">
        <g id="css">
            <rect id="ViewBox" x="0" y="0" width="120" height="122"></rect>
            <polygon id="Path" fill="#1572B6" fill-rule="nonzero" points="22.4607097 103.89148 14 8.44615385 107 8.44615385 98.5279893 103.87633 60.4434948 114.492308"></polygon>
            <polygon id="Path" fill="#33A9DC" fill-rule="nonzero" points="62 106.984615 91.1438763 98.3203009 98 15.9538462 62 15.9538462"></polygon>
            <polygon id="Path" fill="#FFFFFF" fill-rule="nonzero" points="74.7767742 51.0838541 75.9032507 38.2153846 60 38.2153846 60 27.2153846 88 27.2153846 87.7326452 30.3782621 84.9904516 62.8769231 60 62.8769231 60 51.0838541"></polygon>
            <polygon id="Path" fill="#EBEBEB" fill-rule="nonzero" points="59.94837 80.8804094 46.4434282 77.0176904 45.3442618 66 35 66 36.5968432 85.2893522 59.94837 92.9076923"></polygon>
            <polygon id="Path" fill="#FFFFFF" fill-rule="nonzero" points="73.7969653 61.9384615 72.4530347 77.409994 60 80.8863228 60 92.9076923 82.8901734 86.3437853 83.0599711 84.3925556 85 61.9384615"></polygon>
            <polygon id="Path" fill="#EBEBEB" fill-rule="nonzero" points="60 38.2153846 32.0374532 38.2153846 31.8052434 35.742075 31.2771536 30.1655626 31 27.2153846 60 27.2153846"></polygon>
            <polygon id="Path" fill="#EBEBEB" fill-rule="nonzero" points="60 62.8769231 47.9763265 62.8769231 47.7570068 60.1337979 47.2617687 53.9489386 46.9471474 51.0838541 60 51.0838541"></polygon>
        </g>
    </g>
</svg>