<?xml version="1.0" encoding="UTF-8"?>
<svg width="100%" height="100%" viewBox="0 0 69 70" version="1.1" xmlns="http://www.w3.org/2000/svg" xmlns:xlink="http://www.w3.org/1999/xlink">
    <title>1</title>
    <defs>
        <linearGradient x1="46.3811235%" y1="60.4379355%" x2="46.3811235%" y2="0.000282995507%" id="linearGradient-1">
            <stop stop-color="#D9D9D9" offset="0%"></stop>
            <stop stop-color="#D9D9D9" stop-opacity="0" offset="100%"></stop>
        </linearGradient>
        <path d="M9.05139901,8.860888 L9.05139901,8.22812612 L5.69073037,6.95557168 L9.05139901,5.68653258 L9.05139901,5.0537707 L4.94196214,6.66379815 L4.94196214,7.24734521 L9.05139901,8.860888 Z M9.58221592,8.79409647 L11.2203661,3.63005647 L10.6860339,3.63005647 L9.04788367,8.79409647 L9.58221592,8.79409647 Z M11.1465439,8.860888 L15.2559808,7.2543759 L15.2559808,6.66379815 L11.1465439,5.0537707 L11.1465439,5.68653258 L14.5036972,6.95557168 L11.1465439,8.22812612 L11.1465439,8.860888 Z" id="path-2"></path>
        <path d="M3.29809393,8.03671706 L3.29809393,6.65794538 L4.32384678,6.65794538 C4.65244293,6.65794538 4.89592972,6.563585 5.05430714,6.37486424 C5.21268456,6.18614348 5.29187328,5.96448909 5.29187328,5.70990108 C5.29187328,5.41386852 5.2030635,5.18407324 5.02544396,5.02051524 C4.84782442,4.85695725 4.6139587,4.77517825 4.32384678,4.77517825 L4.32384678,4.77517825 L2.85626533,4.77517825 L2.85626533,8.03671706 L3.29809393,8.03671706 Z M4.17731066,6.28494435 L3.29809393,6.28494435 L3.29809393,5.15484002 L4.17731066,5.15484002 C4.34752939,5.15484002 4.48148412,5.17778254 4.57917487,5.22366759 C4.75679441,5.30951704 4.84560418,5.47233495 4.84560418,5.71212133 C4.84560418,5.92526478 4.78380738,6.07402114 4.66021378,6.15839042 C4.53662019,6.2427597 4.37565248,6.28494435 4.17731066,6.28494435 L4.17731066,6.28494435 Z M6.30430466,8.03671706 L6.30430466,6.51140926 L8.00057127,6.51140926 L8.00057127,8.03671706 L8.44684036,8.03671706 L8.44684036,4.77517825 L8.00057127,4.77517825 L8.00057127,6.12286651 L6.30430466,6.12286651 L6.30430466,4.77517825 L5.85803556,4.77517825 L5.85803556,8.03671706 L6.30430466,8.03671706 Z M9.61468884,8.03671706 L9.61468884,6.65794538 L10.6404417,6.65794538 C10.9690378,6.65794538 11.2125246,6.563585 11.370902,6.37486424 C11.5292795,6.18614348 11.6084682,5.96448909 11.6084682,5.70990108 C11.6084682,5.41386852 11.5196584,5.18407324 11.3420389,5.02051524 C11.1644193,4.85695725 10.9305536,4.77517825 10.6404417,4.77517825 L10.6404417,4.77517825 L9.17286023,4.77517825 L9.17286023,8.03671706 L9.61468884,8.03671706 Z M10.4939056,6.28494435 L9.61468884,6.28494435 L9.61468884,5.15484002 L10.4939056,5.15484002 C10.6641243,5.15484002 10.798079,5.17778254 10.8957698,5.22366759 C11.0733893,5.30951704 11.1621991,5.47233495 11.1621991,5.71212133 C11.1621991,5.92526478 11.1004023,6.07402114 10.9768087,6.15839042 C10.8532151,6.2427597 10.6922474,6.28494435 10.4939056,6.28494435 L10.4939056,6.28494435 Z" id="path-3"></path>
    </defs>
    <g id="Page-1" stroke="none" stroke-width="1" fill="none" fill-rule="evenodd">
        <g id="1">
            <g id="Group" transform="translate(11.807055, 22.198224)">
                <path d="M0.146388289,9.31461483 C-0.141324694,8.1413007 0.00914326854,6.82272618 0.673986081,5.67117831 C1.76894648,3.77465803 3.9537317,2.85992321 5.85025198,3.32934965 C6.39198464,1.45221982 8.27657787,0.0174946004 10.4664747,0.0174946004 C12.6563715,0.0174946004 14.5409407,1.45221982 15.0826734,3.32934965 C16.9791937,2.85992321 19.1640029,3.77465803 20.2589393,5.67117831 C20.9238061,6.82272618 21.0742741,8.1413007 20.7865611,9.31461483 L0.146388289,9.31461483 L0.146388289,9.31461483 Z" id="Path" fill="#D9D9D9"></path>
                <path d="M4.89272858,10.9954404 C4.67074634,10.0901368 4.78684905,9.07276218 5.29983201,8.18423326 C6.14466043,6.72092633 7.83040557,6.01514279 9.2937125,6.37732181 C9.71171106,4.92898968 11.1658027,3.82198224 12.8554836,3.82198224 C14.5451644,3.82198224 15.9992561,4.92898968 16.4172546,6.37732181 C17.8805616,6.01514279 19.5663067,6.72092633 20.4111351,8.18423326 C20.9241181,9.07276218 21.0402208,10.0901368 20.8182385,10.9954404 L4.89272858,10.9954404 Z" id="Path" fill="#FFFFFF"></path>
            </g>
            <polygon id="Path" fill="url(#linearGradient-1)" points="68.3952484 12.6930646 1.88384929 12.6930646 17.4390209 46.6131509 51.4800576 46.6131509 68.3954164 12.6930646"></polygon>
            <g id="Group" transform="translate(30.981521, 7.199424)" stroke="#FFFFFF" stroke-width="0.700023998">
                <path d="M13.3962083,13.4106072 C13.3962083,13.0242861 13.7098392,12.7106551 14.0961603,12.7106551 C14.4824574,12.7106551 14.7961123,13.0242861 14.7961123,13.4106072 C14.7961123,13.7969042 14.4824574,14.1105352 14.0961603,14.1105352 C13.7098392,14.1105352 13.3962083,13.7969042 13.3962083,13.4106072 Z" id="Path"></path>
                <line x1="14.1342333" y1="25.9942405" x2="14.1342333" y2="14.1106072" id="Path" stroke-linejoin="round"></line>
                <path d="M13.3962083,6.54355652 C13.3962083,6.15725942 13.7098392,5.84360451 14.0961603,5.84360451 C14.4824574,5.84360451 14.7961123,6.15725942 14.7961123,6.54355652 C14.7961123,6.92987761 14.4824574,7.24350852 14.0961603,7.24350852 C13.7098392,7.24350852 13.3962083,6.92987761 13.3962083,6.54355652 Z" id="Path"></path>
                <line x1="14.1342333" y1="12.3606911" x2="14.1342333" y2="7.24353252" id="Path" stroke-linejoin="round"></line>
                <path d="M0.711783057,14.0967123 C0.325485961,14.0967123 0.0118550516,13.7830814 0.0118550516,13.3967603 C0.0118550516,13.0104632 0.325485961,12.6968083 0.711783057,12.6968083 C1.09810415,12.6968083 1.41173506,13.0104632 1.41173506,13.3967603 C1.41173506,13.7830814 1.09810415,14.0967123 0.711783057,14.0967123 Z" id="Path"></path>
                <line x1="13.1399088" y1="13.4346892" x2="1.41180706" y2="13.4346892" id="Path" stroke-linejoin="round"></line>
                <path d="M1.41396688,26.8634509 C1.41396688,27.249748 1.10033597,27.5634029 0.714014879,27.5634029 C0.327717783,27.5634029 0.0140868731,27.249748 0.0140868731,26.8634509 C0.0140868731,26.4771298 0.327717783,26.1634989 0.714014879,26.1634989 C1.10033597,26.1634989 1.41396688,26.4771298 1.41396688,26.8634509 Z" id="Path"></path>
                <line x1="0.751943844" y1="14.4353252" x2="0.751943844" y2="26.1634029" id="Path" stroke-linejoin="round"></line>
                <path d="M13.3962083,0.721094312 C13.3962083,0.334797216 13.7098392,0.0211663067 14.0961603,0.0211663067 C14.4824574,0.0211663067 14.7961123,0.334797216 14.7961123,0.721094312 C14.7961123,1.10741541 14.4824574,1.42104632 14.0961603,1.42104632 C13.7098392,1.42104632 13.3962083,1.10741541 13.3962083,0.721094312 Z" id="Path"></path>
                <line x1="14.1342333" y1="5.49364051" x2="14.1342333" y2="1.42104632" id="Path" stroke-linejoin="round"></line>
            </g>
            <g id="Group" transform="translate(0.000000, 23.806096)" fill="#233F52">
                <path d="M10.7542597,0.117590593 C9.85356371,-0.0142068635 8.93849292,-0.0142068635 8.03779698,0.117590593 L7.60614351,1.6775138 C6.75512359,1.87475402 5.9425486,2.21132709 5.20131989,2.67362611 L3.79306455,1.87580994 C3.06297096,2.41951044 2.41591073,3.06657067 1.87221022,3.79666427 L2.6700264,5.20489561 C2.20772738,5.94614831 1.87115431,6.7587233 1.67391409,7.60974322 L0.113990881,8.04139669 C-0.0178065755,8.94209263 -0.0178065755,9.85716343 0.113990881,10.7578594 L1.67391409,11.1895128 C1.87115431,12.0405328 2.20772738,12.8531078 2.6700264,13.5943365 L1.87221022,15.0025918 C2.41591073,15.7326854 3.06297096,16.3797456 3.79306455,16.9234221 L5.20131989,16.1256299 C5.9425486,16.587905 6.75512359,16.924502 7.60614351,17.1217423 L8.03779698,18.6816655 C8.93849292,18.8134629 9.85356371,18.8134629 10.7542597,18.6816655 L11.1859131,17.1217423 C12.036933,16.924502 12.849508,16.587905 13.5907607,16.1256299 L14.9989921,16.9234221 C15.7290857,16.3797456 16.3761459,15.7326854 16.9198464,15.0025918 L16.1220302,13.5943365 C16.5843293,12.8531078 16.9209023,12.0405328 17.1181425,11.1895128 L18.6780658,10.7578594 C18.8098632,9.85716343 18.8098632,8.94209263 18.6780658,8.04139669 L17.1181425,7.60974322 C16.9209023,6.7587233 16.5843293,5.94614831 16.1220302,5.20489561 L16.9198464,3.79666427 C16.3761459,3.06657067 15.7290857,2.41951044 14.9989921,1.87580994 L13.5907607,2.67362611 C12.849508,2.21132709 12.036933,1.87475402 11.1859131,1.6775138 L10.7542597,0.117590593 L10.7542597,0.117590593 Z M9.39604032,6.25116391 C11.1337173,6.25116391 12.5444924,7.66193904 12.5444924,9.39961603 C12.5444924,11.137317 11.1337173,12.5480922 9.39604032,12.5480922 C7.65833933,12.5480922 6.24756419,11.137317 6.24756419,9.39961603 C6.24756419,7.66193904 7.65833933,6.25116391 9.39604032,6.25116391 L9.39604032,6.25116391 Z" id="Shape"></path>
                <path d="M8.05209983,17.7883369 C7.54773218,17.7145428 7.03532517,17.7145428 6.53095752,17.7883369 L6.28924886,18.6618431 C5.81269498,18.7723062 5.35769138,18.9607631 4.94262059,19.2196304 L4.15404368,18.7728822 C3.74523638,19.0773458 3.38288937,19.4396688 3.07844972,19.8485001 L3.52517399,20.637077 C3.26633069,21.0521478 3.07784977,21.5071514 2.96738661,21.9837053 L2.09390449,22.225414 C2.02008639,22.7297576 2.02008639,23.2421886 2.09390449,23.7465323 L2.96738661,23.9882649 C3.07784977,24.4647948 3.26633069,24.9197984 3.52517399,25.3348692 L3.07844972,26.1234461 C3.38288937,26.5322774 3.74523638,26.8946004 4.15404368,27.1990641 L4.94262059,26.7523158 C5.35769138,27.0111831 5.81269498,27.19964 6.28924886,27.3101032 L6.53095752,28.1836093 C7.03532517,28.2574034 7.54773218,28.2574034 8.05209983,28.1836093 L8.2938085,27.3101032 C8.77036237,27.19964 9.22536597,27.0111831 9.64043677,26.7523158 L10.4290137,27.1990641 C10.837821,26.8946004 11.200168,26.5322774 11.5046076,26.1234461 L11.0578594,25.3348692 C11.3167267,24.9197984 11.5052076,24.4647948 11.6156707,23.9882649 L12.4891529,23.7465323 C12.562971,23.2421886 12.562971,22.7297576 12.4891529,22.225414 L11.6156707,21.9837053 C11.5052076,21.5071514 11.3167267,21.0521478 11.0578594,20.637077 L11.5046076,19.8485001 C11.200168,19.4396688 10.837821,19.0773458 10.4290137,18.7728822 L9.64043677,19.2196304 C9.22536597,18.9607631 8.77036237,18.7723062 8.2938085,18.6618431 L8.05209983,17.7883369 L8.05209983,17.7883369 Z M7.29152868,21.2229422 C8.26457883,21.2229422 9.05457163,22.012935 9.05457163,22.9859851 C9.05457163,23.9590113 8.26457883,24.7490041 7.29152868,24.7490041 C6.31847852,24.7490041 5.52848572,23.9590113 5.52848572,22.9859851 C5.52848572,22.012935 6.31847852,21.2229422 7.29152868,21.2229422 L7.29152868,21.2229422 Z" id="Shape"></path>
            </g>
            <g id="Group" transform="translate(4.439645, 31.629470)" fill-rule="nonzero">
                <path d="M4.64578834,0.0211183105 L55.675306,0.0211183105 C56.4473962,0.0211183105 57.0734101,0.647132229 57.0734101,1.41891049 L57.0734101,33.4347492 L3.24739621,33.4347492 L3.24739621,1.41891049 C3.24739621,0.647132229 3.8737461,0.0211183105 4.64581234,0.0211183105 L4.64578834,0.0211183105 Z" id="Path" fill="#233F52"></path>
                <path d="M60.3059755,33.4348452 L0.0148788097,33.4348452 L0.0148788097,34.6590113 C0.0148788097,35.4586513 0.663066955,36.1078234 1.46304296,36.1078234 L58.8580514,36.1078234 C59.6576914,36.1078234 60.3059755,35.4586513 60.3059755,34.6590113 L60.3059755,33.4348452 L60.3059755,33.4348452 Z" id="Path" fill="#CFE4E9"></path>
                <path d="M38.4334053,33.4348452 L21.887377,33.4348452 L21.887377,34.0469162 C21.887377,34.4467483 22.2117831,34.7711783 22.6116151,34.7711783 L37.7098152,34.7711783 C38.1093113,34.7711783 38.4334053,34.4467483 38.4334053,34.0469162 L38.4334053,33.4348452 L38.4334053,33.4348452 Z" id="Path" fill="#A8CED7"></path>
                <polygon id="Path" fill="#FFFFFF" points="54.9762419 2.13006959 5.34509239 2.13006959 5.34509239 31.2812575 54.9762419 31.2812575"></polygon>
                <polygon id="Path" fill="#DDDEE0" points="54.9762419 4.95320374 5.34509239 4.95320374 5.34509239 31.2812575 54.9762419 31.2812575 54.9762419 4.95320374"></polygon>
                <polygon id="Path" fill="#CECFD2" points="8.38108951 4.95320374 5.3450444 4.95320374 5.3450444 31.2812575 8.38108951 31.2812575 8.38108951 4.95320374"></polygon>
                <rect id="Rectangle" fill="#E45C50" x="10.1358291" y="7.74298056" width="10.0421166" height="1.35279578"></rect>
                <rect id="Rectangle" fill="#1495D0" x="21.8017759" y="7.74298056" width="5.56203504" height="1.35279578"></rect>
                <rect id="Rectangle" fill="#5DC09B" x="28.987041" y="7.74298056" width="6.40571154" height="1.35279578"></rect>
                <rect id="Rectangle" fill="#1495D0" x="10.1358291" y="10.4559635" width="5.56203504" height="1.35313175"></rect>
                <rect id="Rectangle" fill="#5DC09B" x="17.3215743" y="10.4559635" width="7.69800816" height="1.35313175"></rect>
                <rect id="Rectangle" fill="#1495D0" x="10.1358291" y="13.1691865" width="10.0421166" height="1.35313175"></rect>
                <rect id="Rectangle" fill="#E45C50" x="21.8017759" y="13.1691865" width="9.21207103" height="1.35313175"></rect>
                <rect id="Rectangle" fill="#5DC09B" x="32.637389" y="13.1691865" width="6.45101992" height="1.35313175"></rect>
                <rect id="Rectangle" fill="#5DC09B" x="10.1358291" y="15.8819294" width="7.58711303" height="1.35313175"></rect>
                <rect id="Rectangle" fill="#1495D0" x="19.3467723" y="15.8819294" width="8.30883129" height="1.35313175"></rect>
                <rect id="Rectangle" fill="#E45C50" x="10.1358291" y="18.5951524" width="10.0421166" height="1.35313175"></rect>
                <rect id="Rectangle" fill="#5DC09B" x="21.8017759" y="18.5951524" width="7.60043197" height="1.35313175"></rect>
                <rect id="Rectangle" fill="#1495D0" x="31.0259179" y="18.5951524" width="4.36697864" height="1.35313175"></rect>
                <rect id="Rectangle" fill="#1495D0" x="10.1358291" y="21.3083753" width="5.56203504" height="1.35279578"></rect>
                <rect id="Rectangle" fill="#5DC09B" x="17.3215743" y="21.3083753" width="7.69800816" height="1.35279578"></rect>
                <rect id="Rectangle" fill="#1495D0" x="10.1358291" y="24.0213583" width="10.0421166" height="1.35313175"></rect>
                <rect id="Rectangle" fill="#E45C50" x="21.8017759" y="24.0213583" width="9.21207103" height="1.35313175"></rect>
                <rect id="Rectangle" fill="#5DC09B" x="32.637389" y="24.0213583" width="6.45101992" height="1.35313175"></rect>
                <rect id="Rectangle" fill="#5DC09B" x="10.1358291" y="26.7345812" width="7.58711303" height="1.35279578"></rect>
                <rect id="Rectangle" fill="#1495D0" x="19.3467723" y="26.7345812" width="8.30883129" height="1.35279578"></rect>
                <rect id="Rectangle" fill="#FFFFFF" x="6.98608111" y="7.74298056" width="1.39493641" height="20.3443485"></rect>
            </g>
            <g id="Group" transform="translate(44.156467, 25.205904)">
                <path d="M19.7580994,4.01895848 C19.7580994,2.35853132 18.4100312,1.01046316 16.74958,1.01046316 L3.01403888,1.01046316 C1.35361171,1.01046316 0.00554355652,2.35853132 0.00554355652,4.01895848 L0.00554355652,10.0359731 C0.00554355652,11.6964243 1.35361171,13.0444924 3.01403888,13.0444924 L5.37497,13.0444924 L5.17564195,14.9649148 L8.23693305,13.0444924 L16.74958,13.0444924 C18.4100312,13.0444924 19.7580994,11.6964243 19.7580994,10.0359731 L19.7580994,4.01895848 L19.7580994,4.01895848 Z" id="Path" fill="#233F52"></path>
                <g id="&lt;/&gt;" fill-rule="nonzero">
                    <use fill="#000000" xlink:href="#path-2"></use>
                    <use fill="#FFFFFF" xlink:href="#path-2"></use>
                </g>
            </g>
            <g id="Group" transform="translate(46.532277, 58.963283)">
                <path d="M14.1533477,7.85889129 C14.1533477,9.04787617 13.188073,10.0131509 11.9990881,10.0131509 L2.16361891,10.0131509 C0.974658027,10.0131509 0.00935925126,9.04787617 0.00935925126,7.85889129 L0.00935925126,3.55034797 C0.00935925126,2.36138709 0.974658027,1.39608831 2.16361891,1.39608831 L3.85418766,1.39608831 L3.71144708,0.020950324 L5.90352772,1.39608831 L11.9990881,1.39608831 C13.188073,1.39608831 14.1533477,2.36138709 14.1533477,3.55034797 L14.1533477,7.85889129 Z" id="Path" fill="#233F52"></path>
                <g id="PHP" fill-rule="nonzero">
                    <use fill="#000000" xlink:href="#path-3"></use>
                    <use fill="#FFFFFF" xlink:href="#path-3"></use>
                </g>
            </g>
            <g id="Group" transform="translate(35.133189, 0.000000)">
                <path d="M0.145428366,9.30717543 C-0.142284617,8.13386129 0.00818334533,6.81531078 0.673050156,5.6637389 C1.76798656,3.76724262 3.95279578,2.8525078 5.84929206,3.32191025 C6.39102472,1.44478042 8.27561795,0.0100551956 10.4655148,0.0100551956 C12.6554116,0.0100551956 14.5400048,1.44478042 15.0817375,3.32191025 C16.9782337,2.8525078 19.163043,3.76724262 20.2579794,5.6637389 C20.9228462,6.81531078 21.0733141,8.13386129 20.7856012,9.30717543 L0.145428366,9.30717543 Z" id="Path" fill="#D9D9D9"></path>
                <path d="M4.89200864,10.988001 C4.6700024,10.0826974 4.78610511,9.06532277 5.29908807,8.17681785 C6.14394048,6.71351092 7.82966163,6.00772738 9.29296856,6.36990641 C9.71096712,4.92155028 11.1650588,3.81454284 12.8547396,3.81454284 C14.5444204,3.81454284 15.9985361,4.92155028 16.4165107,6.36990641 C17.8798176,6.00772738 19.5655628,6.71351092 20.4103912,8.17681785 C20.9233981,9.06532277 21.0394768,10.0826974 20.8174946,10.988001 L4.89200864,10.988001 L4.89200864,10.988001 Z" id="Path" fill="#FFFFFF"></path>
            </g>
            <g id="Group" transform="translate(21.790257, 1.511879)">
                <path d="M4.83657307,10.3786897 L3.75037197,8.75205184 L2.80835133,7.03806096 C2.80835133,7.03806096 1.85217183,6.68015359 0.752219822,7.36786657 L3.59534437,12.0506839 C4.71300696,11.3921286 4.83657307,10.3786897 4.83657307,10.3786897 Z" id="Path" fill="#233F52"></path>
                <path d="M10.5006,8.13174946 C10.5006,8.13174946 9.40583153,8.82802976 9.59904008,10.0670266 C9.79232061,11.3061435 9.93165347,13.1142549 7.26138709,14.7672426 L4.89635229,10.8718743 L10.5006,8.13174946 Z" id="Path" fill="#233F52"></path>
                <path d="M7.38852892,3.00573554 C7.38852892,3.00573554 6.26575474,3.65584353 5.25557955,2.91281497 C4.24535637,2.16971442 2.70542357,1.21195104 0.00705543557,2.81867051 L2.37204224,6.71389489 L7.38852892,3.00573554 Z" id="Path" fill="#233F52"></path>
                <path d="M5.15430766,11.5598752 C5.15430766,11.5598752 16.3956323,5.9887929 17.8146628,0.18336933 C12.0093353,-1.23570914 1.88053756,6.16777058 1.88053756,6.16777058 L5.15430766,11.5598752 L5.15430766,11.5598752 Z" id="Path" fill="#FAFDFE" fill-rule="nonzero"></path>
                <path d="M13.2942165,5.00451164 C12.4643149,5.50837533 11.3829854,5.24406048 10.8790497,4.41403888 C10.375186,3.58413727 10.6395728,2.50292777 11.4694744,1.99906407 C12.299376,1.49520038 13.3806335,1.75941925 13.8844972,2.58929686 C14.3884329,3.41931845 14.1240941,4.50064795 13.2942165,5.00451164 L13.2942165,5.00451164 Z" id="Path" fill="#233F52"></path>
                <path d="M9.48116151,6.32109431 C9.05411567,6.58036957 8.49788817,6.44439645 8.23854092,6.01723062 C7.97933765,5.59030478 8.11523878,5.03395728 8.54228462,4.77468203 C8.96933045,4.51538277 9.52574994,4.65140389 9.7849532,5.07832973 C10.0443005,5.50549556 9.90823134,6.06179506 9.48116151,6.32109431 L9.48116151,6.32109431 Z" id="Path" fill="#233F52"></path>
            </g>
            <path d="M21.8272138,13.974562 C21.8272138,13.974562 12.987569,21.4149508 19.2143509,24.1640509 C25.4411327,26.9131749 32.1897528,23.4354212 34.1722822,29.6529638" id="Path" stroke="#233F52" stroke-width="0.700023998" stroke-linejoin="round" stroke-dasharray="1.749939960857819,2.099832013438925,0,0"></path>
        </g>
    </g>
</svg>