<?xml version="1.0" encoding="UTF-8"?>
<svg width="95px" height="109px" viewBox="0 0 95 109" version="1.1" xmlns="http://www.w3.org/2000/svg" xmlns:xlink="http://www.w3.org/1999/xlink">
    <title>deployment</title>
    <g id="Page-1" stroke="none" stroke-width="1" fill="none" fill-rule="evenodd">
        <g id="How-it-works" transform="translate(-870.000000, -193.000000)">
            <g id="project-cards" transform="translate(36.000000, 163.000000)">
                <g id="deployment-card" transform="translate(648.000000, 0.000000)">
                    <g id="deployment" transform="translate(186.000000, 30.000000)">
                        <ellipse id="p-background-circle" fill="#243239" cx="47.5" cy="58.2545455" rx="47.5" ry="49.7454545"></ellipse>
                        <g id="p-earth" transform="translate(26.185897, 0.000000)">
                            <ellipse id="p-earth-outline" fill="#7BD1DF" cx="24.9679487" cy="27.4909091" rx="24.3589744" ry="27.4909091"></ellipse>
                            <g id="p-land" transform="translate(0.000000, 2.618182)" fill="#058789">
                                <path d="M1.09448329,31.3317653 L3.44758065,25.8655064 L7.19245698,25.1578897 L15.8409679,15.4003241 L17.8311567,17.0222274 L20.0143219,13.0652657 L15.082482,9.72922208 L12.2643354,13.8360224 L8.85497652,11.7597701 L16.3959754,6.05223859 L17.8311567,7.85454543 L20.0143219,7.85454543 L17.2181399,3.5408554 L22.8225874,3.5408554 L22.8225874,6.05223859 L24.6634615,10.4609917 L33.5743157,1.69164203 L25.4259824,0.200369912 L21.9641887,0.990599627 L16.3959754,0.990599627 L11.4606164,6.05223859 L8.85497652,4.72286615 C6.06147248,6.30450724 3.7546678,9.8636599 1.93456247,15.4003241 C0.114457134,20.9369884 -0.165569258,26.2474687 1.09448329,31.3317653 Z" id="Line-8"></path>
                                <path d="M40.0570209,46.2563048 L38.7859237,35.5762395 L30.2842061,33.3213045 L31.3731045,25.8765687 L37.8562414,21.9630708 L40.7086423,25.8765687 L43.698028,24.1425671 L48.9101826,24.9669547 C49.1438609,27.547652 48.5144687,31.0840803 47.0220059,35.5762395 C45.529543,40.0683988 43.2078814,43.6284205 40.0570209,46.2563048 Z" id="Line-9"></path>
                                <path d="M18.3139747,51.6654545 L24.0572935,45.2802459 L17.466482,40.9287398 L17.466482,38.1873927 L8.85587091,35.6848242 L7.092637,44.1115317 C9.34457137,46.4161926 11.1679783,48.0200965 12.5628577,48.9232432 C13.9577372,49.8263899 15.8747761,50.7404603 18.3139747,51.6654545 Z" id="Line-10"></path>
                                <path d="M42.9693033,6.829699 L36.470002,10.7875431 L39.0767918,12.1044293 L42.2581143,10.7875431 L43.8821705,13.0727134 L37.9901083,14.3353351 L31.6386167,19.3139086 L33.6976284,20.6825268 L39.0767918,17.8922211 L42.9178382,20.6825268 L47.7911968,16.6867491 C47.2906273,14.9700675 46.7495205,13.4426276 46.1678764,12.1044293 C45.5862323,10.766231 44.5200413,9.00798757 42.9693033,6.829699 Z" id="Line-11"></path>
                            </g>
                        </g>
                        <g id="deployment-phone" transform="translate(51.153846, 34.690909)">
                            <rect id="Rectangle" fill="#058789" x="0" y="0" width="37.7564103" height="70.0363636" rx="3"></rect>
                            <rect id="Rectangle" fill="#FFFFFF" x="3.04487179" y="8.50909091" width="31.0576923" height="53.6727273" rx="3"></rect>
                            <rect id="Rectangle" fill="#FFFFFF" x="15.224359" y="64.1454545" width="7.30769231" height="3.92727273"></rect>
                        </g>
                        <g id="d-signal-tower" transform="translate(3.044872, 30.109091)">
                            <g id="d-broadcast-signal">
                                <ellipse id="Oval" fill="#E3A72F" cx="23.1410256" cy="24.8727273" rx="7.30769231" ry="7.85454545"></ellipse>
                                <path d="M31.816947,37.0841638 C35.4149762,34.3497812 37.7564103,29.8988986 37.7564103,24.8727273 C37.7564103,16.5583314 31.3492032,9.81818182 23.4455128,9.81818182 C15.5418224,9.81818182 9.13461538,16.5583314 9.13461538,24.8727273 C9.13461538,30.0812454 11.6490232,34.6719753 15.4705924,37.3749374" id="Path" stroke="#E3A72F" stroke-width="4" stroke-linecap="round"></path>
                                <path d="M34.6667969,42.1448696 C39.4896871,38.3778402 42.6282051,32.2460701 42.6282051,25.3217521 C42.6282051,13.8674029 34.0398212,4.58181818 23.4455128,4.58181818 C12.8512044,4.58181818 4.26282051,13.8674029 4.26282051,25.3217521 C4.26282051,32.4972807 7.63319696,38.8217117 12.7557259,42.5454545" id="Path" stroke="#E3A72F" stroke-width="4" stroke-linecap="round"></path>
                                <path d="M37.1604156,46.6299948 C43.0550592,41.9536825 46.8910256,34.34183 46.8910256,25.7461248 C46.8910256,11.5269327 36.394112,0 23.4455128,0 C10.4969136,0 0,11.5269327 0,25.7461248 C0,34.6536776 4.11934899,42.5046954 10.3802177,47.1272727" id="Path" stroke="#E3A72F" stroke-width="4" stroke-linecap="round"></path>
                            </g>
                            <g id="d-celltower" transform="translate(10.352564, 30.109091)" stroke="#058789" stroke-width="4">
                                <polyline id="Path" points="0 44.5090909 12.7884615 0 25.5769231 44.5090909"></polyline>
                                <path d="M15.2988979,14.4363636 L18.6593711,26.1454545 L6.96350395,26.1454545 L10.533538,14.4363636 L15.2988979,14.4363636 Z" id="Rectangle"></path>
                            </g>
                        </g>
                    </g>
                </g>
            </g>
        </g>
    </g>
</svg>