<?xml version="1.0" encoding="UTF-8"?>
<svg width="95px" height="108px" viewBox="0 0 95 108" version="1.1" xmlns="http://www.w3.org/2000/svg" xmlns:xlink="http://www.w3.org/1999/xlink">
    <title>development-icon</title>
    <g id="Page-1" stroke="none" stroke-width="1" fill="none" fill-rule="evenodd">
        <g id="How-it-works" transform="translate(-549.000000, -189.000000)">
            <g id="project-cards" transform="translate(36.000000, 163.000000)">
                <g id="planning-deployment" transform="translate(323.000000, 0.000000)">
                    <g id="development-icon" transform="translate(190.000000, 26.000000)">
                        <ellipse id="p-background-circle" fill="#F0ECC9" cx="47.5" cy="58.0909091" rx="45.2906977" ry="49.9090909"></ellipse>
                        <rect id="d-outer-window" fill="#7BD1DF" x="13.9922481" y="40.0909091" width="67.0155039" height="51.5454545" rx="15"></rect>
                        <rect id="d-inner-window" fill="#FFFFFF" x="17.6744186" y="44.1818182" width="60.3875969" height="39.2727273" rx="7"></rect>
                        <g id="d-lines" transform="translate(45.658915, 51.545455)">
                            <line x1="0.87921215" y1="0.322966507" x2="22.5664452" y2="0.322966507" id="Line-7" stroke="#7BD1DF" stroke-width="2" stroke-linecap="square"></line>
                            <line x1="1.17228287" y1="10.9808612" x2="22.8595159" y2="10.9808612" id="Line-7" stroke="#7BD1DF" stroke-width="2" stroke-linecap="square"></line>
                            <line x1="11.1366872" y1="13.5645933" x2="28.1347888" y2="13.5645933" id="Line-7" stroke="#7BD1DF" stroke-width="2" stroke-linecap="square"></line>
                            <line x1="11.1366872" y1="16.1483254" x2="28.1347888" y2="16.1483254" id="Line-7" stroke="#7BD1DF" stroke-width="2" stroke-linecap="square"></line>
                            <line x1="11.1366872" y1="18.7320574" x2="28.1347888" y2="18.7320574" id="Line-7" stroke="#7BD1DF" stroke-width="2" stroke-linecap="square"></line>
                            <line x1="11.1366872" y1="21.3157895" x2="28.1347888" y2="21.3157895" id="Line-7" stroke="#7BD1DF" stroke-width="2" stroke-linecap="square"></line>
                            <line x1="11.1366872" y1="23.8995215" x2="28.1347888" y2="23.8995215" id="Line-7" stroke="#7BD1DF" stroke-width="2" stroke-linecap="square"></line>
                            <rect id="Rectangle" fill="#E3A72F" x="24.6179402" y="0" width="4.10299003" height="2.58373206"></rect>
                            <rect id="Rectangle" fill="#E3A72F" x="24.6179402" y="4.5215311" width="4.10299003" height="2.58373206"></rect>
                            <rect id="Rectangle" fill="#E3A72F" x="24.6179402" y="9.0430622" width="4.10299003" height="2.58373206"></rect>
                            <rect id="Rectangle" fill="#058789" x="0" y="12.9186603" width="9.37826293" height="11.6267943"></rect>
                            <line x1="0.87921215" y1="3.55263158" x2="22.5664452" y2="3.55263158" id="Line-7" stroke="#7BD1DF" stroke-width="2" stroke-linecap="square"></line>
                            <line x1="1.17228287" y1="7.10526316" x2="22.8595159" y2="7.10526316" id="Line-7" stroke="#7BD1DF" stroke-width="2" stroke-linecap="square"></line>
                        </g>
                        <g id="p-earth" transform="translate(19.147287, 51.545455)">
                            <ellipse id="p-earth-outline" fill="#7BD1DF" cx="12.1511628" cy="12.6818182" rx="11.572536" ry="12.6818182"></ellipse>
                            <g id="p-land" transform="translate(0.000000, 0.887783)" fill="#058789">
                                <path d="M0.902101576,14.71889 L2.0251938,12.2069513 L3.8125578,11.8817765 L7.94034086,7.39783106 L8.89022314,8.14315281 L9.93220972,6.32478936 L7.57832877,4.79175972 L6.23327667,6.67897925 L4.6060493,5.72486811 L8.20523623,3.10205618 L8.89022314,3.93027971 L9.93220972,3.93027971 L8.59764096,1.94798705 L11.2725457,1.94798705 L11.2725457,3.10205618 L12.1511628,5.12803367 L16.4041577,1.09820832 L12.5151007,0.4129162 L10.8628471,0.776054614 L8.20523623,0.776054614 L5.84967564,3.10205618 L4.6060493,2.49116267 C3.27275867,3.21798251 2.17176113,4.85353864 1.30305668,7.39783106 C0.434352226,9.94212347 0.300700525,12.3824764 0.902101576,14.71889 Z" id="Line-8"></path>
                                <path d="M19.4982395,21.577242 L18.891567,16.6693755 L14.8338459,15.6331534 L15.353558,12.2120348 L18.4478459,10.4136445 L19.809247,12.2120348 L21.2360286,11.4151999 L23.7236988,11.7940351 C23.8352294,12.9799565 23.5348315,14.60507 22.8225051,16.6693755 C22.1101786,18.7336811 21.0020901,20.3696366 19.4982395,21.577242 Z" id="Line-9"></path>
                                <path d="M9.12066373,24.0629371 L11.8618494,21.1287086 L8.71617031,19.1290381 L8.71617031,17.8692924 L4.60647618,16.719274 L3.76491547,20.5916432 C4.83972436,21.6507161 5.71000459,22.3877665 6.37575616,22.8027943 C7.04150773,23.217822 7.95647692,23.6378696 9.12066373,24.0629371 Z" id="Line-10"></path>
                                <path d="M20.888221,3.45932664 L17.7862181,5.27809554 L19.0303933,5.88325118 L20.5487829,5.27809554 L21.3239165,6.32821188 L18.5117383,6.90843105 L15.4802824,9.19626111 L16.4630127,9.82518943 L19.0303933,8.54294558 L20.8636576,9.82518943 L23.1896265,7.98898869 C22.9507134,7.20011298 22.6924526,6.49820048 22.414844,5.88325118 C22.1372354,5.26830188 21.6283611,4.46032704 20.888221,3.45932664 Z" id="Line-11"></path>
                            </g>
                        </g>
                        <g id="p-computer-bottom" transform="translate(11.046512, 91.636364)">
                            <path d="M71.654531,0.5 C71.531042,2.42210562 70.7006432,4.15181275 69.4205902,5.43186573 C68.0304545,6.82200139 66.11,7.68181818 63.9887245,7.68181818 L63.9887245,7.68181818 L8.18181818,7.68181818 C6.06054267,7.68181818 4.14008812,6.82200139 2.74995245,5.43186573 C1.46989947,4.15181275 0.639500644,2.42210562 0.516011623,0.5 L0.516011623,0.5 Z" id="Rectangle" stroke="#058789" fill="#058789"></path>
                            <line x1="1.16404101" y1="1.25874126" x2="71.0065016" y2="1.25874126" id="Line-12" stroke="#243239" stroke-width="2" stroke-linecap="square"></line>
                        </g>
                        <g id="d-squares">
                            <polyline id="Line-13" stroke="#243239" stroke-width="3" stroke-linecap="square" points="23.0214724 17.8448276 30.0153374 17.8448276 30.0153374 37.4827235"></polyline>
                            <polyline id="Line-13" stroke="#243239" stroke-width="3" stroke-linecap="square" transform="translate(68.481595, 27.663776) scale(-1, 1) translate(-68.481595, -27.663776) " points="64.9846626 17.8448276 71.9785276 17.8448276 71.9785276 37.4827235"></polyline>
                            <g fill="#D54B1A" id="Combined-Shape">
                                <path d="M89,9.73354232 C92.3137085,9.73354232 95,12.4198338 95,15.7335423 L95,18.6583072 C95,21.9720157 92.3137085,24.6583072 89,24.6583072 L79.4355828,24.6583072 C76.1218743,24.6583072 73.4355828,21.9720157 73.4355828,18.6583072 L73.4355828,15.7335423 C73.4355828,12.4198338 76.1218743,9.73354232 79.4355828,9.73354232 L89,9.73354232 Z M84.5092025,14.2758621 C82.8997837,14.2758621 81.595092,15.7284805 81.595092,17.5203762 C81.595092,19.3122718 82.8997837,20.7648903 84.5092025,20.7648903 C86.1186212,20.7648903 87.4233129,19.3122718 87.4233129,17.5203762 C87.4233129,15.7284805 86.1186212,14.2758621 84.5092025,14.2758621 Z"></path>
                                <path d="M52.2822086,0 C55.5959171,2.79460044e-16 58.2822086,2.6862915 58.2822086,6 L58.2822086,8.92476489 C58.2822086,12.2384734 55.5959171,14.9247649 52.2822086,14.9247649 L42.7177914,14.9247649 C39.4040829,14.9247649 36.7177914,12.2384734 36.7177914,8.92476489 L36.7177914,6 C36.7177914,2.6862915 39.4040829,1.4968968e-15 42.7177914,0 L52.2822086,0 Z M47.791411,4.54231975 C46.1819923,4.54231975 44.8773006,5.99493819 44.8773006,7.78683386 C44.8773006,9.57872952 46.1819923,11.031348 47.791411,11.031348 C49.4008298,11.031348 50.7055215,9.57872952 50.7055215,7.78683386 C50.7055215,5.99493819 49.4008298,4.54231975 47.791411,4.54231975 Z"></path>
                                <path d="M15.5644172,9.73354232 C18.8781257,9.73354232 21.5644172,12.4198338 21.5644172,15.7335423 L21.5644172,18.6583072 C21.5644172,21.9720157 18.8781257,24.6583072 15.5644172,24.6583072 L6,24.6583072 C2.6862915,24.6583072 2.76557286e-15,21.9720157 0,18.6583072 L0,15.7335423 C4.82366169e-16,12.4198338 2.6862915,9.73354232 6,9.73354232 L15.5644172,9.73354232 Z M11.0736196,14.2758621 C9.46420088,14.2758621 8.1595092,15.7284805 8.1595092,17.5203762 C8.1595092,19.3122718 9.46420088,20.7648903 11.0736196,20.7648903 C12.6830384,20.7648903 13.9877301,19.3122718 13.9877301,17.5203762 C13.9877301,15.7284805 12.6830384,14.2758621 11.0736196,14.2758621 Z"></path>
                            </g>
                        </g>
                        <g id="d-gears" transform="translate(39.031008, 18.000000)" stroke="#058789" stroke-width="2">
                            <path d="M4.55573376,8.39444727 C4.55573376,8.09620364 4.3400957,7.85454545 4.07396492,7.85454545 L3.51930433,7.85454545 C3.25279391,7.85454545 3.03715584,8.09620364 3.03715584,8.39444727 C3.03715584,8.64036 2.88681663,8.85138545 2.68218825,8.94158182 C2.64991847,8.95604727 2.61764869,8.97136364 2.5861382,8.98668 C2.38454698,9.08453455 2.14499131,9.05475273 1.98933708,8.88074182 C1.80122233,8.67007766 1.49636962,8.67007766 1.30825488,8.88074182 L0.915702486,9.32066182 C0.727721217,9.53147556 0.727721217,9.87311353 0.915702486,10.0839273 C1.07135672,10.2583636 1.09793184,10.5264 1.00985432,10.7527418 C0.996015849,10.7883625 0.982726318,10.8242478 0.969991647,10.8603818 C0.889507017,11.0897018 0.701203355,11.2581818 0.481768845,11.2581818 C0.215638065,11.2581818 0,11.49984 0,11.7980836 L0,12.4200982 C0,12.7183418 0.215638065,12.96 0.481768845,12.96 C0.701203355,12.96 0.889507017,13.12848 0.969991647,13.3578 C0.982899559,13.3939636 0.99656676,13.4301273 1.00985432,13.46544 C1.09755219,13.6913564 1.07097708,13.9598182 0.915702486,14.1342545 C0.727721217,14.3450683 0.727721217,14.6867063 0.915702486,14.89752 L1.30825488,15.33744 C1.49636962,15.5481042 1.80122233,15.5481042 1.98933708,15.33744 C2.14499131,15.1630036 2.38416733,15.1332218 2.5861382,15.2315018 C2.61764869,15.2472436 2.64991847,15.2621345 2.68218825,15.2766 C2.88681663,15.3667964 3.03715584,15.5778218 3.03715584,15.8237345 C3.03715584,16.1219782 3.25279391,16.3636364 3.51892469,16.3636364 L4.07396492,16.3636364 C4.3400957,16.3636364 4.55573376,16.1219782 4.55573376,15.8237345 C4.55573376,15.5778218 4.70607298,15.3667964 4.91070135,15.2761745 C4.94297113,15.2621345 4.97524091,15.2472436 5.0067514,15.2319273 C5.20834262,15.1332218 5.44789829,15.1634291 5.60317288,15.33744 C5.69352766,15.4387385 5.81609699,15.4956508 5.9439038,15.4956508 C6.07171061,15.4956508 6.19427994,15.4387385 6.28463472,15.33744 L6.67718712,14.89752 C6.86516838,14.6867063 6.86516838,14.3450683 6.67718712,14.1342545 C6.52153288,13.9598182 6.49495777,13.6917818 6.58265564,13.46544 C6.59670249,13.4301273 6.60999004,13.3939636 6.62289796,13.3578 C6.70338258,13.12848 6.89168625,12.96 7.11112076,12.96 C7.37725154,12.96 7.5928896,12.7183418 7.5928896,12.4200982 L7.5928896,11.7985091 C7.5928896,11.5002655 7.37725154,11.2586073 7.11112076,11.2586073 C6.89168625,11.2586073 6.70338258,11.0901273 6.62251831,10.8608073 C6.60979728,10.8246671 6.59650765,10.7887815 6.58265564,10.7531673 C6.49533741,10.5272509 6.52191252,10.2587891 6.67718712,10.0843527 C6.86516838,9.87353899 6.86516838,9.53190101 6.67718712,9.32108727 L6.28463472,8.88116727 C6.09651998,8.67050311 5.79166727,8.67050311 5.60355253,8.88116727 C5.44789829,9.05560364 5.20872227,9.08538545 5.0067514,8.98710545 C4.97496964,8.97145191 4.94294815,8.95641692 4.91070135,8.94200727 C4.70607298,8.85138545 4.55573376,8.64036 4.55573376,8.39487273 L4.55573376,8.39444727 Z" id="d-gear-3"></path>
                            <path d="M13.9008287,0.539901818 C13.9008287,0.241658182 13.6851906,0 13.4190598,0 L12.8643992,0 C12.5978888,0 12.3822507,0.241658182 12.3822507,0.539901818 C12.3822507,0.785814545 12.2319115,0.99684 12.0272831,1.08703636 C11.9950134,1.10150182 11.9627436,1.11681818 11.9312331,1.13213455 C11.7296419,1.22998909 11.4900862,1.20020727 11.334432,1.02619636 C11.1463172,0.815532204 10.8414645,0.815532204 10.6533498,1.02619636 L10.2607974,1.46611636 C10.0728161,1.6769301 10.0728161,2.01856808 10.2607974,2.22938182 C10.4164516,2.40381818 10.4430267,2.67185455 10.3549492,2.89819636 C10.3411107,2.93381701 10.3278212,2.96970234 10.3150865,3.00583636 C10.2346019,3.23515636 10.0462982,3.40363636 9.82686374,3.40363636 C9.56073296,3.40363636 9.34509489,3.64529455 9.34509489,3.94353818 L9.34509489,4.56555273 C9.34509489,4.86379636 9.56073296,5.10545455 9.82686374,5.10545455 C10.0462982,5.10545455 10.2346019,5.27393455 10.3150865,5.50325455 C10.3279945,5.53941818 10.3416617,5.57558182 10.3549492,5.61089455 C10.4426471,5.83681091 10.416072,6.10527273 10.2607974,6.27970909 C10.0728161,6.49052283 10.0728161,6.83216081 10.2607974,7.04297455 L10.6533498,7.48289455 C10.8414645,7.69355871 11.1463172,7.69355871 11.334432,7.48289455 C11.4900862,7.30845818 11.7292622,7.27867636 11.9312331,7.37695636 C11.9627436,7.39269818 11.9950134,7.40758909 12.0272831,7.42205455 C12.2319115,7.51225091 12.3822507,7.72327636 12.3822507,7.96918909 C12.3822507,8.26743273 12.5978888,8.50909091 12.8640196,8.50909091 L13.4190598,8.50909091 C13.6851906,8.50909091 13.9008287,8.26743273 13.9008287,7.96918909 C13.9008287,7.72327636 14.0511679,7.51225091 14.2557962,7.42162909 C14.288066,7.40758909 14.3203358,7.39269818 14.3518463,7.37738182 C14.5534375,7.27867636 14.7929932,7.30888364 14.9482678,7.48289455 C15.0386226,7.58419302 15.1611919,7.64110536 15.2889987,7.64110536 C15.4168055,7.64110536 15.5393748,7.58419302 15.6297296,7.48289455 L16.022282,7.04297455 C16.2102633,6.83216081 16.2102633,6.49052283 16.022282,6.27970909 C15.8666278,6.10527273 15.8400527,5.83723636 15.9277505,5.61089455 C15.9417974,5.57558182 15.9550849,5.53941818 15.9679928,5.50325455 C16.0484775,5.27393455 16.2367811,5.10545455 16.4562157,5.10545455 C16.7223464,5.10545455 16.9379845,4.86379636 16.9379845,4.56555273 L16.9379845,3.94396364 C16.9379845,3.64572 16.7223464,3.40406182 16.4562157,3.40406182 C16.2367811,3.40406182 16.0484775,3.23558182 15.9676132,3.00626182 C15.9548922,2.97012161 15.9416025,2.93423601 15.9277505,2.89862182 C15.8404323,2.67270545 15.8670074,2.40424364 16.022282,2.22980727 C16.2102633,2.01899353 16.2102633,1.67735556 16.022282,1.46654182 L15.6297296,1.02662182 C15.4416149,0.815957658 15.1367622,0.815957658 14.9486474,1.02662182 C14.7929932,1.20105818 14.5538172,1.23084 14.3518463,1.13256 C14.3200645,1.11690646 14.288043,1.10187147 14.2557962,1.08746182 C14.0511679,0.99684 13.9008287,0.785814545 13.9008287,0.540327273 L13.9008287,0.539901818 Z" id="d-gear-1"></path>
                            <path d="M11.914996,10.19196 C11.914996,9.98548364 11.7657081,9.81818182 11.5814637,9.81818182 L11.1974679,9.81818182 C11.0129607,9.81818182 10.8636728,9.98548364 10.8636728,10.19196 C10.8636728,10.3622073 10.7595918,10.5083018 10.617926,10.5707455 C10.5955854,10.58076 10.5732448,10.5913636 10.5514298,10.6019673 C10.4118667,10.6697127 10.2460204,10.6490945 10.1382598,10.5286255 C10.0080265,10.382781 9.79697466,10.382781 9.66674138,10.5286255 L9.39497434,10.8331855 C9.26483346,10.9791334 9.26483346,11.215652 9.39497434,11.3616 C9.50273496,11.4823636 9.52113312,11.6679273 9.46015638,11.8246255 C9.4505759,11.8492859 9.44137545,11.8741296 9.43255914,11.8991455 C9.37683901,12.0579055 9.24647494,12.1745455 9.09455874,12.1745455 C8.91031435,12.1745455 8.76102646,12.3418473 8.76102646,12.5483236 L8.76102646,12.9789491 C8.76102646,13.1854255 8.91031435,13.3527273 9.09455874,13.3527273 C9.24647494,13.3527273 9.37683901,13.4693673 9.43255914,13.6281273 C9.44149539,13.6531636 9.4509573,13.6782 9.46015638,13.7026473 C9.52087029,13.8590509 9.50247213,14.0449091 9.39497434,14.1656727 C9.26483346,14.3116207 9.26483346,14.5481393 9.39497434,14.6940873 L9.66674138,14.9986473 C9.79697466,15.1444917 10.0080265,15.1444917 10.1382598,14.9986473 C10.2460204,14.8778836 10.4116038,14.8572655 10.5514298,14.9253055 C10.5732448,14.9362036 10.5955854,14.9465127 10.617926,14.9565273 C10.7595918,15.0189709 10.8636728,15.1650655 10.8636728,15.3353127 C10.8636728,15.5417891 11.0129607,15.7090909 11.1972051,15.7090909 L11.5814637,15.7090909 C11.7657081,15.7090909 11.914996,15.5417891 11.914996,15.3353127 C11.914996,15.1650655 12.019077,15.0189709 12.1607428,14.9562327 C12.1830834,14.9465127 12.205424,14.9362036 12.227239,14.9256 C12.3668021,14.8572655 12.5326484,14.8781782 12.6401462,14.9986473 C12.7026995,15.068777 12.7875551,15.1081778 12.8760368,15.1081778 C12.9645184,15.1081778 13.0493741,15.068777 13.1119274,14.9986473 L13.3836945,14.6940873 C13.5138353,14.5481393 13.5138353,14.3116207 13.3836945,14.1656727 C13.2759338,14.0449091 13.2575357,13.8593455 13.3182496,13.7026473 C13.3279743,13.6782 13.3371734,13.6531636 13.3461097,13.6281273 C13.4018298,13.4693673 13.5321939,13.3527273 13.6841101,13.3527273 C13.8683545,13.3527273 14.0176423,13.1854255 14.0176423,12.9789491 L14.0176423,12.5486182 C14.0176423,12.3421418 13.8683545,12.17484 13.6841101,12.17484 C13.5321939,12.17484 13.4018298,12.0582 13.3458468,11.89944 C13.33704,11.8744199 13.3278395,11.849576 13.3182496,11.82492 C13.2577985,11.6685164 13.2761967,11.4826582 13.3836945,11.3618945 C13.5138353,11.2159466 13.5138353,10.979428 13.3836945,10.83348 L13.1119274,10.52892 C12.9816941,10.3830756 12.7706423,10.3830756 12.640409,10.52892 C12.5326484,10.6496836 12.367065,10.6703018 12.227239,10.6022618 C12.2052362,10.5914247 12.1830675,10.5810159 12.1607428,10.57104 C12.019077,10.5083018 11.914996,10.3622073 11.914996,10.1922545 L11.914996,10.19196 Z" id="d-gear-2"></path>
                        </g>
                    </g>
                </g>
            </g>
        </g>
    </g>
</svg>