<?xml version="1.0" encoding="UTF-8"?>
<svg width="60px" height="62px" viewBox="0 0 60 62" version="1.1" xmlns="http://www.w3.org/2000/svg" xmlns:xlink="http://www.w3.org/1999/xlink">
    <title>development</title>
    <g id="Page-1" stroke="none" stroke-width="1" fill="none" fill-rule="evenodd">
        <g id="Desktop" transform="translate(-620.000000, -79.000000)" stroke="#FFFFFF" stroke-width="3">
            <g id="development" transform="translate(620.000000, 79.274220)">
                <g id="lightbulb-fill" fill-rule="nonzero">
                    <path d="M38.0002092,56.2257801 C38.0002092,57.0542073 37.4405651,57.7257801 36.7502092,57.7257801 L24.2502092,57.7257801 C23.5598533,57.7257801 23.0002092,57.0542073 23.0002092,56.2257801 C23.0002092,55.397353 23.5598533,54.7257801 24.2502092,54.7257801 L36.7502092,54.7257801 C37.4405651,54.7257801 38.0002092,55.397353 38.0002092,56.2257801 Z M44.0002092,31.7674938 C44.0113092,36.6939695 42.0360538,41.3501796 38.648204,44.3835042 C38.0155791,44.9388681 37.6422195,45.7978486 37.6365485,46.7109984 L37.6365485,47.8091207 C37.6349703,49.4191976 36.4962595,50.7239719 35.0911029,50.7257801 L24.9093208,50.7257801 C23.5041643,50.7239719 22.3654534,49.4191976 22.3638753,47.8091207 L22.3638753,46.7097224 C22.3629497,45.806207 21.9970442,44.9540762 21.3729015,44.4019156 C17.9953204,41.3882862 16.0142979,36.7628033 16.0002092,31.857728 C15.9587389,23.1693641 22.0878535,15.9345904 29.6634176,15.7304242 C33.4337382,15.6265151 37.0811809,17.2699927 39.7798508,20.2887224 C42.4785207,23.3074521 44.0002092,27.4460808 44.0002092,31.7674938 Z M29.5439555,21.5871816 C25.5636271,22.07432 22.3653374,24.865806 21.5715293,28.5455617 C21.4697293,28.9907724 21.6320524,29.4544403 21.9964911,29.7594437 C22.3609298,30.0644471 22.8711834,30.1636673 23.3323345,30.0192021 C23.7934855,29.8747368 24.1342926,29.5089039 24.224567,29.061452 C24.7908704,26.4366795 27.0722072,24.4455121 29.9113832,24.0979572 C30.5646879,24.0182128 31.0583006,23.5092362 31.0801802,22.8927811 C31.0826726,22.8214095 31.0786052,22.749928 31.0682891,22.6790919 C30.9667368,21.9858249 30.2842989,21.4969812 29.5439555,21.5871816 Z" id="Shape"></path>
                </g>
                <g id="lines" transform="translate(4.000000, 2.725780)" stroke-linecap="round">
                    <line x1="40.25" y1="15.25" x2="47.25" y2="8.26921939" id="Line-13"></line>
                    <line x1="5" y1="14.9807806" x2="12" y2="8" id="Line-13" transform="translate(8.500000, 11.490390) scale(-1, 1) translate(-8.500000, -11.490390) "></line>
                    <line x1="26" y1="8.26924866" x2="26" y2="0" id="Line-13"></line>
                    <line x1="47.25" y1="31.25" x2="52" y2="28.2242955" id="Line-13"></line>
                    <line x1="5.08718688e-15" y1="31.0257045" x2="4.75" y2="28" id="Line-13" transform="translate(2.375000, 29.512852) scale(-1, 1) translate(-2.375000, -29.512852) "></line>
                </g>
            </g>
        </g>
    </g>
</svg>