<?xml version="1.0" encoding="UTF-8"?>
<svg width="130px" height="120px" viewBox="0 0 130 120" version="1.1" xmlns="http://www.w3.org/2000/svg" xmlns:xlink="http://www.w3.org/1999/xlink">
    <title>django</title>
    <g id="Page-1" stroke="none" stroke-width="1" fill="none" fill-rule="evenodd">
        <g id="Desktop" transform="translate(-6.000000, -700.000000)">
            <g id="django" transform="translate(6.000000, 700.000000)">
                <rect id="ViewBox" x="0" y="0" width="130" height="120"></rect>
                <path d="M57.8292683,15 L74,15 L74,82.9977545 C67.0972924,84.2977631 60.071449,84.9684392 53.02495,85 C33.277489,84.9812874 23,76.8862275 23,61.3398204 C23,46.3697605 33.9014794,36.6392216 50.7981607,36.6392216 C53.1679124,36.5968157 55.5330341,36.8485969 57.8292683,37.3877246 L57.8292683,15 Z M57.8292683,49.2140719 C56.0712655,48.681915 54.2272367,48.4287851 52.3764894,48.4655689 C44.2197521,48.4655689 39.4766094,53.0426647 39.4766094,61.0628743 C39.4766094,68.873503 43.9913635,73.1848802 52.2745302,73.1848802 C54.1335729,73.1844815 55.9900978,73.0593978 57.8292683,72.8106287 L57.8292683,49.2327844 L57.8292683,49.2140719 Z" id="Shape" fill="#44B78B" fill-rule="nonzero"></path>
                <path d="M99,38 L99,71.983613 C99,83.6836854 98.0409387,89.3077866 95.2331335,94.158854 C92.3675427,99.0913628 87.6818131,102.933111 82.0103303,105 L67,98.5281757 C72.453172,96.8194553 77.0204063,93.3214088 79.8187731,88.7102726 C82.1286826,84.5239396 82.8592016,79.6728722 82.8592016,66.9122123 L82.8592016,38 L99,38 Z" id="Path" fill="#44B78B" fill-rule="nonzero"></path>
                <polygon id="Path" fill="#44B78B" fill-rule="nonzero" points="82 15 99 15 99 30 82 30"></polygon>
            </g>
        </g>
    </g>
</svg>