<?xml version="1.0" encoding="UTF-8"?>
<svg width="41px" height="44px" viewBox="0 0 41 44" version="1.1" xmlns="http://www.w3.org/2000/svg" xmlns:xlink="http://www.w3.org/1999/xlink">
    <title>django</title>
    <g id="Page-1" stroke="none" stroke-width="1" fill="none" fill-rule="evenodd">
        <g id="Artboard" transform="translate(-630.000000, -54.000000)">
            <g id="tech-icons" transform="translate(87.000000, 50.000000)">
                <g id="django" transform="translate(543.000000, 4.000000)">
                    <rect id="ViewBox" x="0" y="0" width="41" height="44"></rect>
                    <rect id="Rectangle" fill="#094714" fill-rule="nonzero" x="0" y="0" width="41" height="44" rx="8"></rect>
                    <path d="M29,15.5755061 L29,26.9466635 C29,30.8649103 28.7413869,32.7440205 27.9658575,34.3684961 C27.2474707,35.9296135 26.2994292,36.9169018 24.3460489,38 L20.237663,35.8339753 C22.191353,34.8147504 23.1393944,33.9229286 23.7425668,32.5527441 C24.3746977,31.1514815 24.5760132,29.5268342 24.5760132,25.2586581 L24.5760132,15.5755061 L29,15.5755061 L29,15.5755061 Z M21.9618533,8 L21.9618533,30.7057423 C19.6924075,31.1834181 18.0261342,31.3745228 16.2163073,31.3745228 C10.8153206,31.3745228 8,28.6672924 8,23.4750145 C8,18.4740129 10.9878326,15.2252334 15.6128252,15.2252334 C16.3310572,15.2252334 16.876932,15.2887632 17.5377116,15.4798679 L17.5377116,8.0003434 L21.9620081,8.0003434 L21.9618533,8 Z M16.0439502,19.17473 C13.8031532,19.17473 12.5102428,20.7037391 12.5102428,23.3792046 C12.5102428,25.9914836 13.7457008,27.4246828 16.0153015,27.4246828 C16.5034143,27.4246828 16.9057356,27.3929179 17.5377116,27.2976231 L17.5377116,19.4293645 C17.0206404,19.2384316 16.5898251,19.17473 16.0439502,19.17473 Z M29,8.02609875 L29,13.059037 L24.5760132,13.059037 L24.5760132,8.02627045 L29,8.02627045 L29,8.02609875 Z" id="Shape" fill="#FFFFFD" fill-rule="nonzero"></path>
                </g>
            </g>
        </g>
    </g>
</svg>