<?xml version="1.0" encoding="UTF-8"?>
<svg width="153px" height="153px" viewBox="0 0 153 153" version="1.1" xmlns="http://www.w3.org/2000/svg" xmlns:xlink="http://www.w3.org/1999/xlink">
    <title>good-medal</title>
    <defs>
        <linearGradient x1="18.9718875%" y1="87.1372656%" x2="79.9044781%" y2="11.8284942%" id="linearGradient-1">
            <stop stop-color="#E7D493" offset="0%"></stop>
            <stop stop-color="#B08534" offset="100%"></stop>
        </linearGradient>
        <linearGradient x1="20.4975857%" y1="10.2733254%" x2="68.0597518%" y2="95.9887402%" id="linearGradient-2">
            <stop stop-color="#E7D493" offset="0%"></stop>
            <stop stop-color="#B08534" offset="100%"></stop>
        </linearGradient>
        <linearGradient x1="84.0122976%" y1="16.7546791%" x2="5.15567078%" y2="67.8208822%" id="linearGradient-3">
            <stop stop-color="#B08534" offset="0%"></stop>
            <stop stop-color="#EDDFB0" offset="37.9050264%"></stop>
            <stop stop-color="#FFFFFF" offset="48.9884423%"></stop>
            <stop stop-color="#EEE5D4" offset="62.1835904%"></stop>
            <stop stop-color="#BF9C5A" offset="73.2960882%"></stop>
            <stop stop-color="#B08534" offset="100%"></stop>
        </linearGradient>
        <linearGradient x1="20.4728578%" y1="11.0158136%" x2="68.0748889%" y2="95.1292145%" id="linearGradient-4">
            <stop stop-color="#E7D493" offset="0%"></stop>
            <stop stop-color="#B08534" offset="100%"></stop>
        </linearGradient>
    </defs>
    <g id="Page-1" stroke="none" stroke-width="1" fill="none" fill-rule="evenodd">
        <g id="plans-good" transform="translate(-768.000000, -183.000000)">
            <g id="good-option" transform="translate(709.000000, 91.000000)">
                <g id="good-medal" transform="translate(59.000000, 92.000000)">
                    <g id="Oval" stroke-width="5">
                        <ellipse stroke="url(#linearGradient-2)" fill="url(#linearGradient-1)" cx="76.31417" cy="76.3461453" rx="73.81417" ry="73.8461453"></ellipse>
                        <ellipse stroke="url(#linearGradient-4)" fill="url(#linearGradient-3)" cx="76.691963" cy="76.7203911" rx="61.3470036" ry="60.7475419"></ellipse>
                    </g>
                    <g id="pedal-crown" transform="translate(28.000000, 32.000000)" fill="#492C14">
                        <g id="left-pedal-crown">
                            <path d="M28.4193711,9.78490288 C29.7897357,9.84421615 30.8544936,9.77515071 31.6136447,9.57770655 C32.8115549,9.26614755 34.1908151,8.59343741 35.7514253,7.55957614 C34.2894122,6.86535163 32.8972444,6.71501355 31.574922,7.10856191 C30.2527719,7.50205899 29.0620345,8.58586768 29.1248978,8.42399264 C29.2304244,8.15225804 29.9140645,7.02238465 30.0998435,5.60177387 C30.3476986,3.70648014 30.0543156,1.44722581 29.6494678,1.50003499 C28.9411678,1.5924271 27.9038878,4.01420357 27.7550543,5.6153972 C27.6558319,6.68285963 27.8772708,8.07269485 28.4193711,9.78490288 Z" id="Oval" transform="translate(31.741726, 5.652291) rotate(26.000000) translate(-31.741726, -5.652291) "></path>
                            <path d="M22.2831607,12.3012372 C23.6535253,12.3605505 24.7182832,12.2914851 25.4774343,12.0940409 C26.6753446,11.7824819 28.0546047,11.1097718 29.6152149,10.0759105 C28.1532018,9.38168599 26.761034,9.23134792 25.4387116,9.62489628 C24.1165615,10.0183934 22.9258241,11.102202 22.9886874,10.940327 C23.094214,10.6685924 23.7778541,9.53871902 23.9636331,8.11810823 C24.2114882,6.22281451 23.9181052,3.96356017 23.5132574,4.01636935 C22.8049575,4.10876147 21.7676774,6.53053793 21.6188439,8.13173157 C21.5196215,9.19919399 21.7410604,10.5890292 22.2831607,12.3012372 Z" id="Oval" transform="translate(25.605516, 8.168625) rotate(26.000000) translate(-25.605516, -8.168625) "></path>
                            <path d="M17.0731606,16.3066035 C18.4452751,16.3678134 19.5112253,16.300361 20.2710112,16.1042462 C21.4699231,15.7947851 22.8498802,15.1248704 24.4108828,14.0945023 C22.9460859,13.3990181 21.5520094,13.2468623 20.2286535,13.6380349 C18.90547,14.0291565 17.7148619,15.1099429 17.7775663,14.9483541 C17.8828262,14.6771 18.5656544,13.5495763 18.7495946,12.1309521 C18.9949966,10.2383087 18.6979744,7.98136778 18.2927118,8.03353151 C17.5836862,8.12479439 16.548666,10.5421493 16.4019784,12.1411909 C16.3041867,13.2072186 16.5279141,14.5956895 17.0731606,16.3066035 Z" id="Oval" transform="translate(20.395277, 12.180544) rotate(14.000000) translate(-20.395277, -12.180544) "></path>
                            <path d="M13.2022884,21.2955622 C14.5752301,21.3592164 15.6416135,21.2937225 16.4014386,21.0990805 C17.6004122,20.7919432 18.9798691,20.1248658 20.5398092,19.0978484 C19.0729816,18.4000813 17.6779008,18.2454886 16.354567,18.6340704 C15.0314057,19.0226017 13.8421449,20.1006795 13.9045877,19.9392876 C14.0094085,19.668364 14.6905394,18.5426567 14.8719917,17.1250993 C15.1140746,15.2338793 14.8127869,12.9775716 14.407408,13.028977 C13.6981787,13.1189131 12.6670213,15.5331479 12.5231696,17.1310964 C12.4272685,18.1963954 12.6536414,19.5845506 13.2022884,21.2955622 Z" id="Oval" transform="translate(16.520788, 17.173604) rotate(2.000000) translate(-16.520788, -17.173604) "></path>
                            <path d="M9.41408882,26.5511512 C10.7870306,26.6148054 11.853414,26.5493115 12.613239,26.3546695 C13.8122126,26.0475321 15.1916695,25.3804548 16.7516097,24.3534374 C15.284782,23.6556702 13.8897013,23.5010775 12.5663675,23.8896594 C11.2432062,24.2781906 10.0539454,25.3562685 10.1163882,25.1948766 C10.221209,24.923953 10.9023398,23.7982456 11.0837922,22.3806883 C11.3258751,20.4894682 11.0245874,18.2331606 10.6192084,18.284566 C9.90997916,18.3745021 8.8788218,20.7887369 8.73497008,22.3866853 C8.63906894,23.4519843 8.86544185,24.8401396 9.41408882,26.5511512 Z" id="Oval" transform="translate(12.732588, 22.429192) rotate(2.000000) translate(-12.732588, -22.429192) "></path>
                            <path d="M6.39612046,31.7998592 C7.76820118,31.8674614 8.83358647,31.8049457 9.59227632,31.6123119 C10.7894587,31.3083435 12.1659558,30.644671 13.7217676,29.6212943 C12.2540555,28.918825 10.859592,28.7601515 9.53837739,29.1452738 C8.21733493,29.530346 7.03206703,30.6058751 7.09399992,30.4445365 C7.19796475,30.1737023 7.87535246,29.049064 8.05260519,27.6309322 C8.28908516,25.7389459 7.98156142,23.4800481 7.57663787,23.5303417 C6.86820529,23.6183328 5.84474915,26.031495 5.70558537,27.6302633 C5.61280952,28.6961088 5.84298788,30.0859741 6.39612046,31.7998592 Z" id="Oval" transform="translate(9.703682, 27.677859) rotate(-17.000000) translate(-9.703682, -27.677859) "></path>
                            <path d="M4.88677068,37.055775 C6.25742882,37.1249964 7.32157839,37.0636118 8.07921938,36.8716214 C9.27474666,36.5686681 10.6489826,35.9058186 12.2019272,34.8830728 C10.7350183,34.1781812 9.34189812,34.0177636 8.02256661,34.40182 C6.70340705,34.7858264 5.52066087,35.8611991 5.58234212,35.6997535 C5.68588453,35.4287397 6.36124964,34.3036322 6.53669179,32.8841465 C6.77075618,30.9903538 6.46099311,28.7286352 6.05656947,28.778528 C5.34901152,28.8658177 4.32942531,31.280471 4.19223644,32.8808339 C4.10077719,33.9477426 4.3322886,35.3393896 4.88677068,37.055775 Z" id="Oval" transform="translate(8.187370, 32.930504) rotate(-27.000000) translate(-8.187370, -32.930504) "></path>
                            <path d="M3.3745506,43.8146842 C4.74411695,43.8846064 5.80736379,43.8236713 6.56429114,43.6318791 C7.75869231,43.3292386 9.13148333,42.6664901 10.6826642,41.6436336 C9.21662198,40.9374737 7.82456837,40.7762698 6.50650338,41.1600219 C5.18861017,41.5437241 4.0073491,42.6194246 4.0689025,42.4578753 C4.17223029,42.1866875 4.8465029,41.0609729 5.02112201,39.6404034 C5.25408836,37.7451647 4.94349757,35.4814424 4.53942972,35.5311861 C3.83249422,35.6182151 2.8148999,38.0343732 2.67858919,39.6359866 C2.58771539,40.7037289 2.81970252,42.0966281 3.3745506,43.8146842 Z" id="Oval" transform="translate(6.671035, 39.686543) rotate(-33.000000) translate(-6.671035, -39.686543) "></path>
                            <path d="M2.9994071,50.1216738 C4.3666935,50.1922368 5.42812458,50.1316047 6.18370036,49.9397776 C7.3759688,49.6370821 8.74618352,48.9737388 10.2943445,47.9497477 C8.83049218,47.2418363 7.44072017,47.079829 6.12502848,47.4637259 C4.80950827,47.8475727 3.63066475,48.9246382 3.69205029,48.7628397 C3.79509629,48.4912335 4.46778577,47.3638761 4.64154659,45.9409753 C4.87336787,44.0426264 4.56240158,41.7749644 4.15903433,41.8246379 C3.45332457,41.911544 2.43840426,44.3313922 2.30295918,45.9356571 C2.21266246,47.005167 2.44481177,48.4005059 2.9994071,50.1216738 Z" id="Oval" transform="translate(6.289169, 45.986987) rotate(-44.000000) translate(-6.289169, -45.986987) "></path>
                            <path d="M4.13958839,55.8413138 C5.50472874,55.9116775 6.56451832,55.8507106 7.31895715,55.6584131 C8.50943153,55.3549753 9.87765136,54.6902864 11.4236166,53.6643465 C9.9621961,52.9556612 8.57462459,52.7937155 7.26090211,53.1785093 C5.94735084,53.563253 4.77011614,54.6422666 4.83144034,54.4802017 C4.93438336,54.2081482 5.60626359,53.0788786 5.78005551,51.6537172 C6.01191827,49.7523524 5.70191782,47.4812206 5.29916873,47.531063 C4.59454046,47.6182644 3.58068856,50.0421199 3.44511418,51.6489198 C3.35473126,52.7201198 3.58622267,54.1175844 4.13958839,55.8413138 Z" id="Oval" transform="translate(7.424848, 51.699922) rotate(-54.000000) translate(-7.424848, -51.699922) "></path>
                            <path d="M5.65730048,61.8612327 C7.01966736,61.9299755 8.07745045,61.8675223 8.83064976,61.6738732 C10.0191682,61.3683026 11.3855409,60.7005395 12.9297677,59.670584 C11.4721196,58.962385 10.0874818,58.8019085 8.77585441,59.1891544 C7.46439791,59.5763499 6.28810934,60.6590085 6.34951851,60.4965449 C6.4526042,60.2238224 7.12459571,59.0914601 7.2998536,57.6632646 C7.53367216,55.7578518 7.22716199,53.4826415 6.82514159,53.5331012 C6.1217882,53.6213829 5.10685535,56.0513245 4.96950947,57.6614674 C4.87794555,58.734896 5.10720922,60.1348178 5.65730048,61.8612327 Z" id="Oval" transform="translate(8.939839, 57.710262) rotate(-69.000000) translate(-8.939839, -57.710262) "></path>
                            <path d="M8.68786012,67.86762 C10.050227,67.9363628 11.1080101,67.8739097 11.8612094,67.6802606 C13.0497279,67.3746899 14.4161005,66.7069269 15.9603273,65.6769713 C14.5026792,64.9687724 13.1180415,64.8082959 11.806414,65.1955418 C10.4949575,65.5827373 9.31866897,66.6653959 9.38007815,66.5029323 C9.48316384,66.2302097 10.1551553,65.0978474 10.3304132,63.6696519 C10.5642318,61.7642391 10.2577216,59.4890289 9.85570122,59.5394886 C9.15234783,59.6277702 8.13741499,62.0577118 8.0000691,63.6678548 C7.90850518,64.7412834 8.13776885,66.1412051 8.68786012,67.86762 Z" id="Oval" transform="translate(11.970399, 63.716649) rotate(-69.000000) translate(-11.970399, -63.716649) "></path>
                            <path d="M12.3177197,73.1349003 C13.6784439,73.2006422 14.7352105,73.1357317 15.4880197,72.9401688 C16.6759226,72.6315784 18.0422952,71.9599958 19.5871377,70.925421 C18.1326665,70.2197352 16.749901,70.0622091 15.4388411,70.4528426 C14.127952,70.8434252 12.9505278,71.9299302 13.0122332,71.7671494 C13.1158161,71.4938942 13.7896056,70.3587697 13.9678659,68.9286086 C14.2056902,67.0205734 13.9046033,64.7435543 13.5029094,64.7949773 C12.8001274,64.8849443 11.7808695,67.3198488 11.6400728,68.9320718 C11.5462083,70.0068871 11.7720907,71.40783 12.3177197,73.1349003 Z" id="Oval" transform="translate(15.603272, 68.976916) rotate(-85.000000) translate(-15.603272, -68.976916) "></path>
                            <path d="M17.0221821,77.6396927 C18.3829062,77.7054346 19.4396729,77.6405242 20.192482,77.4449613 C21.3803849,77.1363709 22.7467575,76.4647882 24.2916,75.4302134 C22.8371288,74.7245277 21.4543633,74.5670015 20.1433034,74.9576351 C18.8324143,75.3482177 17.6549901,76.4347226 17.7166955,76.2719418 C17.8202785,75.9986866 18.4940679,74.8635622 18.6723283,73.433401 C18.9101525,71.5253658 18.6090656,69.2483467 18.2073718,69.2997698 C17.5045897,69.3897368 16.4853318,71.8246413 16.3445351,73.4368643 C16.2506707,74.5116796 16.476553,75.9126224 17.0221821,77.6396927 Z" id="Oval" transform="translate(20.307735, 73.481709) rotate(-85.000000) translate(-20.307735, -73.481709) "></path>
                            <path d="M21.7887394,81.1398735 C23.1494321,81.2030351 24.206392,81.1361281 24.9596191,80.9391525 C26.1481813,80.6283329 27.5159065,79.9542064 29.0627947,78.9167731 C27.6095495,78.2138862 26.2269861,78.058988 24.9151045,78.4520787 C23.6033939,78.845118 22.4238513,79.9337826 22.4858663,79.7708953 C22.589969,79.4974616 23.2659341,78.3611341 23.4468902,76.9307271 C23.6883109,75.0223638 23.3914764,72.7460606 22.9896589,72.7982409 C22.2866605,72.8895326 21.2627647,75.3262109 21.1189331,76.9385971 C21.0230455,78.0135213 21.2463142,79.4139468 21.7887394,81.1398735 Z" id="Oval" transform="translate(25.080061, 76.980119) rotate(-97.000000) translate(-25.080061, -76.980119) "></path>
                            <path d="M27.234142,83.9805578 C28.5956178,84.0417114 29.653352,83.9733187 30.4073446,83.7753799 C31.5971149,83.4630404 32.9666834,82.7873672 34.5160502,81.7483604 C33.0628786,81.0480244 31.6796495,80.8952245 30.3663629,81.2899608 C29.0532475,81.6846457 27.8713887,82.7743197 27.9336768,82.6114469 C28.0382379,82.3380375 28.716264,81.2014592 28.8993846,79.7717052 C29.143693,77.8642131 28.8499276,75.5897947 28.4477774,75.6425226 C27.744197,75.7347725 26.7161546,78.1713733 26.5699219,79.7829365 C26.4724334,80.857312 26.6938401,82.2565191 27.234142,83.9805578 Z" id="Oval" transform="translate(30.531810, 79.821916) rotate(-107.000000) translate(-30.531810, -79.821916) "></path>
                            <path d="M33.5088923,86.2582551 C34.871624,86.3179279 35.9304534,86.2484969 36.6853807,86.0499622 C37.8766258,85.7366822 39.248218,85.0602322 40.8001575,84.0206121 C39.3463005,83.3224705 37.9618889,83.1712627 36.6469229,83.5669887 C35.3321282,83.9626631 34.1480006,85.0525177 34.210517,84.8897374 C34.3154614,84.6164831 34.9953167,83.4802957 35.1800894,82.0517327 C35.426602,80.1458296 35.134898,77.8739168 34.7323038,77.9270136 C34.0279466,78.019909 32.9963951,80.4552276 32.8483584,82.0653855 C32.7496673,83.1388241 32.9698452,84.5364473 33.5088923,86.2582551 Z" id="Oval" transform="translate(36.812803, 82.102521) rotate(-116.000000) translate(-36.812803, -82.102521) "></path>
                            <path d="M39.7392741,87.3932129 C41.1036578,87.4518655 42.1638499,87.3817863 42.9198502,87.1829753 C44.1127886,86.8692595 45.4865459,86.1927015 47.0411221,85.1533013 C45.5859352,84.4570396 44.1999071,84.3069812 42.8830378,84.7031261 C41.5663402,85.0992194 40.3799985,86.1885362 40.4427036,86.0259155 C40.5479646,85.7529293 41.2294393,84.6176875 41.4154156,83.1907784 C41.6635341,81.2870819 41.373017,79.0182058 40.9698866,79.0715158 C40.2645911,79.1647842 39.2300975,81.5977805 39.080779,83.2060325 C38.9812333,84.2782004 39.2007317,85.6739272 39.7392741,87.3932129 Z" id="Oval" transform="translate(43.049303, 83.241925) rotate(-125.000000) translate(-43.049303, -83.241925) "></path>
                            <path d="M34.7855008,5.35144022 C36.0390691,5.35551718 37.4532235,4.97634815 39.0279641,4.21393313 C37.4483022,3.47268577 36.0316871,3.10002361 34.7781188,3.09594665 C33.5245505,3.0918697 32.3421545,3.43158671 31.2309308,4.11509769 C32.3470758,4.93524909 33.5319324,5.34736327 34.7855008,5.35144022 Z" id="Oval" transform="translate(35.129447, 4.223692) rotate(-23.000000) translate(-35.129447, -4.223692) "></path>
                        </g>
                        <g id="right-pedal-crown" transform="translate(75.130480, 44.763939) scale(-1, 1) translate(-75.130480, -44.763939) translate(50.630480, 0.263939)">
                            <path d="M28.4193711,9.78490288 C29.7897357,9.84421615 30.8544936,9.77515071 31.6136447,9.57770655 C32.8115549,9.26614755 34.1908151,8.59343741 35.7514253,7.55957614 C34.2894122,6.86535163 32.8972444,6.71501355 31.574922,7.10856191 C30.2527719,7.50205899 29.0620345,8.58586768 29.1248978,8.42399264 C29.2304244,8.15225804 29.9140645,7.02238465 30.0998435,5.60177387 C30.3476986,3.70648014 30.0543156,1.44722581 29.6494678,1.50003499 C28.9411678,1.5924271 27.9038878,4.01420357 27.7550543,5.6153972 C27.6558319,6.68285963 27.8772708,8.07269485 28.4193711,9.78490288 Z" id="Oval" transform="translate(31.741726, 5.652291) rotate(26.000000) translate(-31.741726, -5.652291) "></path>
                            <path d="M22.2831607,12.3012372 C23.6535253,12.3605505 24.7182832,12.2914851 25.4774343,12.0940409 C26.6753446,11.7824819 28.0546047,11.1097718 29.6152149,10.0759105 C28.1532018,9.38168599 26.761034,9.23134792 25.4387116,9.62489628 C24.1165615,10.0183934 22.9258241,11.102202 22.9886874,10.940327 C23.094214,10.6685924 23.7778541,9.53871902 23.9636331,8.11810823 C24.2114882,6.22281451 23.9181052,3.96356017 23.5132574,4.01636935 C22.8049575,4.10876147 21.7676774,6.53053793 21.6188439,8.13173157 C21.5196215,9.19919399 21.7410604,10.5890292 22.2831607,12.3012372 Z" id="Oval" transform="translate(25.605516, 8.168625) rotate(26.000000) translate(-25.605516, -8.168625) "></path>
                            <path d="M17.0731606,16.3066035 C18.4452751,16.3678134 19.5112253,16.300361 20.2710112,16.1042462 C21.4699231,15.7947851 22.8498802,15.1248704 24.4108828,14.0945023 C22.9460859,13.3990181 21.5520094,13.2468623 20.2286535,13.6380349 C18.90547,14.0291565 17.7148619,15.1099429 17.7775663,14.9483541 C17.8828262,14.6771 18.5656544,13.5495763 18.7495946,12.1309521 C18.9949966,10.2383087 18.6979744,7.98136778 18.2927118,8.03353151 C17.5836862,8.12479439 16.548666,10.5421493 16.4019784,12.1411909 C16.3041867,13.2072186 16.5279141,14.5956895 17.0731606,16.3066035 Z" id="Oval" transform="translate(20.395277, 12.180544) rotate(14.000000) translate(-20.395277, -12.180544) "></path>
                            <path d="M13.2022884,21.2955622 C14.5752301,21.3592164 15.6416135,21.2937225 16.4014386,21.0990805 C17.6004122,20.7919432 18.9798691,20.1248658 20.5398092,19.0978484 C19.0729816,18.4000813 17.6779008,18.2454886 16.354567,18.6340704 C15.0314057,19.0226017 13.8421449,20.1006795 13.9045877,19.9392876 C14.0094085,19.668364 14.6905394,18.5426567 14.8719917,17.1250993 C15.1140746,15.2338793 14.8127869,12.9775716 14.407408,13.028977 C13.6981787,13.1189131 12.6670213,15.5331479 12.5231696,17.1310964 C12.4272685,18.1963954 12.6536414,19.5845506 13.2022884,21.2955622 Z" id="Oval" transform="translate(16.520788, 17.173604) rotate(2.000000) translate(-16.520788, -17.173604) "></path>
                            <path d="M9.41408882,26.5511512 C10.7870306,26.6148054 11.853414,26.5493115 12.613239,26.3546695 C13.8122126,26.0475321 15.1916695,25.3804548 16.7516097,24.3534374 C15.284782,23.6556702 13.8897013,23.5010775 12.5663675,23.8896594 C11.2432062,24.2781906 10.0539454,25.3562685 10.1163882,25.1948766 C10.221209,24.923953 10.9023398,23.7982456 11.0837922,22.3806883 C11.3258751,20.4894682 11.0245874,18.2331606 10.6192084,18.284566 C9.90997916,18.3745021 8.8788218,20.7887369 8.73497008,22.3866853 C8.63906893,23.4519843 8.86544185,24.8401396 9.41408882,26.5511512 Z" id="Oval" transform="translate(12.732588, 22.429192) rotate(2.000000) translate(-12.732588, -22.429192) "></path>
                            <path d="M6.39612046,31.7998592 C7.76820118,31.8674614 8.83358647,31.8049457 9.59227632,31.6123119 C10.7894587,31.3083435 12.1659558,30.644671 13.7217676,29.6212943 C12.2540555,28.918825 10.859592,28.7601515 9.53837739,29.1452738 C8.21733493,29.530346 7.03206703,30.6058751 7.09399992,30.4445365 C7.19796475,30.1737023 7.87535246,29.049064 8.05260519,27.6309322 C8.28908516,25.7389459 7.98156142,23.4800481 7.57663787,23.5303417 C6.86820529,23.6183328 5.84474915,26.031495 5.70558537,27.6302633 C5.61280952,28.6961088 5.84298788,30.0859741 6.39612046,31.7998592 Z" id="Oval" transform="translate(9.703682, 27.677859) rotate(-17.000000) translate(-9.703682, -27.677859) "></path>
                            <path d="M4.88677068,37.055775 C6.25742882,37.1249964 7.32157839,37.0636118 8.07921938,36.8716214 C9.27474666,36.5686681 10.6489826,35.9058186 12.2019272,34.8830728 C10.7350183,34.1781812 9.34189812,34.0177636 8.02256661,34.40182 C6.70340705,34.7858264 5.52066087,35.8611991 5.58234212,35.6997535 C5.68588453,35.4287397 6.36124964,34.3036322 6.53669179,32.8841465 C6.77075618,30.9903538 6.46099311,28.7286352 6.05656947,28.778528 C5.34901152,28.8658177 4.32942531,31.280471 4.19223644,32.8808339 C4.10077719,33.9477426 4.3322886,35.3393896 4.88677068,37.055775 Z" id="Oval" transform="translate(8.187370, 32.930504) rotate(-27.000000) translate(-8.187370, -32.930504) "></path>
                            <path d="M3.3745506,43.8146842 C4.74411695,43.8846064 5.80736379,43.8236713 6.56429114,43.6318791 C7.75869231,43.3292386 9.13148333,42.6664901 10.6826642,41.6436336 C9.21662198,40.9374737 7.82456837,40.7762698 6.50650338,41.1600219 C5.18861017,41.5437241 4.0073491,42.6194246 4.0689025,42.4578753 C4.17223029,42.1866875 4.8465029,41.0609729 5.02112201,39.6404034 C5.25408836,37.7451647 4.94349757,35.4814424 4.53942972,35.5311861 C3.83249422,35.6182151 2.8148999,38.0343732 2.67858919,39.6359866 C2.58771539,40.7037289 2.81970252,42.0966281 3.3745506,43.8146842 Z" id="Oval" transform="translate(6.671035, 39.686543) rotate(-33.000000) translate(-6.671035, -39.686543) "></path>
                            <path d="M2.9994071,50.1216738 C4.3666935,50.1922368 5.42812458,50.1316047 6.18370036,49.9397776 C7.3759688,49.6370821 8.74618352,48.9737388 10.2943445,47.9497477 C8.83049218,47.2418363 7.44072017,47.079829 6.12502848,47.4637259 C4.80950827,47.8475727 3.63066475,48.9246382 3.69205029,48.7628397 C3.79509629,48.4912335 4.46778577,47.3638761 4.64154659,45.9409753 C4.87336787,44.0426264 4.56240158,41.7749644 4.15903433,41.8246379 C3.45332457,41.911544 2.43840426,44.3313922 2.30295918,45.9356571 C2.21266246,47.005167 2.44481177,48.4005059 2.9994071,50.1216738 Z" id="Oval" transform="translate(6.289169, 45.986987) rotate(-44.000000) translate(-6.289169, -45.986987) "></path>
                            <path d="M4.13958839,55.8413138 C5.50472874,55.9116775 6.56451832,55.8507106 7.31895715,55.6584131 C8.50943153,55.3549753 9.87765136,54.6902864 11.4236166,53.6643465 C9.9621961,52.9556612 8.57462459,52.7937155 7.26090211,53.1785093 C5.94735084,53.563253 4.77011614,54.6422666 4.83144034,54.4802017 C4.93438336,54.2081482 5.60626359,53.0788786 5.78005551,51.6537172 C6.01191827,49.7523524 5.70191782,47.4812206 5.29916873,47.531063 C4.59454046,47.6182644 3.58068856,50.0421199 3.44511418,51.6489198 C3.35473126,52.7201198 3.58622267,54.1175844 4.13958839,55.8413138 Z" id="Oval" transform="translate(7.424848, 51.699922) rotate(-54.000000) translate(-7.424848, -51.699922) "></path>
                            <path d="M5.65730048,61.8612327 C7.01966736,61.9299755 8.07745045,61.8675223 8.83064976,61.6738732 C10.0191682,61.3683026 11.3855409,60.7005395 12.9297677,59.670584 C11.4721196,58.962385 10.0874818,58.8019085 8.77585441,59.1891544 C7.46439791,59.5763499 6.28810934,60.6590085 6.34951851,60.4965449 C6.4526042,60.2238224 7.12459571,59.0914601 7.2998536,57.6632646 C7.53367216,55.7578518 7.22716199,53.4826415 6.82514159,53.5331012 C6.1217882,53.6213829 5.10685535,56.0513245 4.96950947,57.6614674 C4.87794554,58.734896 5.10720922,60.1348178 5.65730048,61.8612327 Z" id="Oval" transform="translate(8.939839, 57.710262) rotate(-69.000000) translate(-8.939839, -57.710262) "></path>
                            <path d="M8.68786012,67.86762 C10.050227,67.9363628 11.1080101,67.8739097 11.8612094,67.6802606 C13.0497279,67.3746899 14.4161005,66.7069269 15.9603273,65.6769713 C14.5026792,64.9687724 13.1180415,64.8082959 11.806414,65.1955418 C10.4949575,65.5827373 9.31866897,66.6653959 9.38007815,66.5029323 C9.48316384,66.2302097 10.1551553,65.0978474 10.3304132,63.6696519 C10.5642318,61.7642391 10.2577216,59.4890289 9.85570122,59.5394886 C9.15234783,59.6277702 8.13741499,62.0577118 8.0000691,63.6678548 C7.90850518,64.7412834 8.13776885,66.1412051 8.68786012,67.86762 Z" id="Oval" transform="translate(11.970399, 63.716649) rotate(-69.000000) translate(-11.970399, -63.716649) "></path>
                            <path d="M12.3177197,73.1349003 C13.6784439,73.2006422 14.7352105,73.1357317 15.4880197,72.9401688 C16.6759226,72.6315784 18.0422952,71.9599958 19.5871377,70.925421 C18.1326665,70.2197352 16.749901,70.0622091 15.4388411,70.4528426 C14.127952,70.8434252 12.9505278,71.9299302 13.0122332,71.7671494 C13.1158161,71.4938942 13.7896056,70.3587697 13.9678659,68.9286086 C14.2056902,67.0205734 13.9046033,64.7435543 13.5029094,64.7949773 C12.8001274,64.8849443 11.7808695,67.3198488 11.6400728,68.9320718 C11.5462083,70.0068871 11.7720907,71.40783 12.3177197,73.1349003 Z" id="Oval" transform="translate(15.603272, 68.976916) rotate(-85.000000) translate(-15.603272, -68.976916) "></path>
                            <path d="M17.0221821,77.6396927 C18.3829062,77.7054346 19.4396729,77.6405242 20.192482,77.4449613 C21.3803849,77.1363709 22.7467575,76.4647882 24.2916,75.4302134 C22.8371288,74.7245277 21.4543633,74.5670015 20.1433034,74.9576351 C18.8324143,75.3482177 17.6549901,76.4347226 17.7166955,76.2719418 C17.8202785,75.9986866 18.4940679,74.8635622 18.6723283,73.433401 C18.9101525,71.5253658 18.6090656,69.2483467 18.2073718,69.2997698 C17.5045897,69.3897368 16.4853318,71.8246413 16.3445351,73.4368643 C16.2506707,74.5116796 16.476553,75.9126224 17.0221821,77.6396927 Z" id="Oval" transform="translate(20.307735, 73.481709) rotate(-85.000000) translate(-20.307735, -73.481709) "></path>
                            <path d="M21.7887394,81.1398735 C23.1494321,81.2030351 24.206392,81.1361281 24.9596191,80.9391525 C26.1481813,80.6283329 27.5159065,79.9542064 29.0627947,78.9167731 C27.6095495,78.2138862 26.2269861,78.058988 24.9151045,78.4520787 C23.6033939,78.845118 22.4238513,79.9337826 22.4858663,79.7708953 C22.589969,79.4974616 23.2659341,78.3611341 23.4468902,76.9307271 C23.6883109,75.0223638 23.3914764,72.7460606 22.9896589,72.7982409 C22.2866605,72.8895326 21.2627647,75.3262109 21.1189331,76.9385971 C21.0230455,78.0135213 21.2463142,79.4139468 21.7887394,81.1398735 Z" id="Oval" transform="translate(25.080061, 76.980119) rotate(-97.000000) translate(-25.080061, -76.980119) "></path>
                            <path d="M27.234142,83.9805578 C28.5956178,84.0417114 29.653352,83.9733187 30.4073446,83.7753799 C31.5971149,83.4630404 32.9666834,82.7873672 34.5160502,81.7483604 C33.0628786,81.0480244 31.6796495,80.8952245 30.3663629,81.2899608 C29.0532475,81.6846457 27.8713887,82.7743197 27.9336768,82.6114469 C28.0382379,82.3380375 28.716264,81.2014592 28.8993846,79.7717052 C29.143693,77.8642131 28.8499276,75.5897947 28.4477774,75.6425226 C27.744197,75.7347725 26.7161546,78.1713733 26.5699219,79.7829365 C26.4724334,80.857312 26.6938401,82.2565191 27.234142,83.9805578 Z" id="Oval" transform="translate(30.531810, 79.821916) rotate(-107.000000) translate(-30.531810, -79.821916) "></path>
                            <path d="M33.5088923,86.2582551 C34.871624,86.3179279 35.9304534,86.2484969 36.6853807,86.0499622 C37.8766258,85.7366822 39.248218,85.0602322 40.8001575,84.0206121 C39.3463005,83.3224705 37.9618889,83.1712627 36.6469229,83.5669887 C35.3321282,83.9626631 34.1480006,85.0525177 34.210517,84.8897374 C34.3154614,84.6164831 34.9953167,83.4802957 35.1800894,82.0517327 C35.426602,80.1458296 35.134898,77.8739168 34.7323038,77.9270136 C34.0279466,78.019909 32.9963951,80.4552276 32.8483584,82.0653855 C32.7496673,83.1388241 32.9698452,84.5364473 33.5088923,86.2582551 Z" id="Oval" transform="translate(36.812803, 82.102521) rotate(-116.000000) translate(-36.812803, -82.102521) "></path>
                            <path d="M39.7392741,87.3932129 C41.1036578,87.4518655 42.1638499,87.3817863 42.9198502,87.1829753 C44.1127886,86.8692595 45.4865459,86.1927015 47.0411221,85.1533013 C45.5859352,84.4570396 44.1999071,84.3069812 42.8830378,84.7031261 C41.5663402,85.0992194 40.3799985,86.1885362 40.4427036,86.0259155 C40.5479646,85.7529293 41.2294393,84.6176875 41.4154156,83.1907784 C41.6635341,81.2870819 41.373017,79.0182058 40.9698866,79.0715158 C40.2645911,79.1647842 39.2300975,81.5977805 39.080779,83.2060325 C38.9812333,84.2782004 39.2007317,85.6739272 39.7392741,87.3932129 Z" id="Oval" transform="translate(43.049303, 83.241925) rotate(-125.000000) translate(-43.049303, -83.241925) "></path>
                            <path d="M34.7855008,5.35144022 C36.0390691,5.35551718 37.4532235,4.97634815 39.0279641,4.21393313 C37.4483022,3.47268577 36.0316871,3.10002361 34.7781188,3.09594665 C33.5245505,3.0918697 32.3421545,3.43158671 31.2309308,4.11509769 C32.3470758,4.93524909 33.5319324,5.34736327 34.7855008,5.35144022 Z" id="Oval" transform="translate(35.129447, 4.223692) rotate(-23.000000) translate(-35.129447, -4.223692) "></path>
                        </g>
                    </g>
                    <g id="pc-stars" transform="translate(63.000000, 100.000000)" fill="#492C14">
                        <polygon id="Star" points="12.9870113 6.72168666 10.2928088 8.10643027 10.8073557 5.17349624 8.62770011 3.09638083 11.6399101 2.66847153 12.9870113 0 14.3341126 2.66847153 17.3463225 3.09638083 15.1666669 5.17349624 15.6812138 8.10643027"></polygon>
                        <polygon id="Star" points="22.5362843 6.53497314 20.5156325 7.57353085 20.9015426 5.37383033 19.2668009 3.81599377 21.5259584 3.49506179 22.5362843 1.49370815 23.5466103 3.49506179 25.8057677 3.81599377 24.171026 5.37383033 24.5569362 7.57353085"></polygon>
                        <polygon id="Star" points="3.43773829 6.53497314 1.41708642 7.57353085 1.80299659 5.37383033 0.168254888 3.81599377 2.42741236 3.49506179 3.43773829 1.49370815 4.44806422 3.49506179 6.70722169 3.81599377 5.07247999 5.37383033 5.45839016 7.57353085"></polygon>
                    </g>
                    <path d="M55.0087527,85 C55.9653017,85 56.870272,84.6842014 57.7236636,84.0526042 C58.5770553,83.4210069 59.0037512,82.4795139 59.0037512,81.228125 L59.0037512,81.228125 L59.0037512,75.5614583 L53.0018756,75.5614583 L53.0018756,77.4385417 L55.0087527,77.4385417 L55.0087527,81.228125 C54.9462332,82.4204861 54.2772741,83.0461806 53.0018756,83.1052083 C52.4517037,83.1052083 51.9796812,82.9222222 51.5858081,82.55625 C51.191935,82.1902778 50.9949984,81.7475694 50.9949984,81.228125 L50.9949984,81.228125 L50.9949984,71.771875 C50.9949984,71.2583333 51.191935,70.8171007 51.5858081,70.4481771 C51.9796812,70.0792535 52.4517037,69.8947917 53.0018756,69.8947917 L53.0018756,69.8947917 L55.0087527,69.8947917 C56.1778681,69.8947917 56.8405752,70.5204861 56.996874,71.771875 L56.996874,71.771875 L59.0037512,71.771875 C58.8537043,69.2572917 57.5220381,68 55.0087527,68 L55.0087527,68 L50.9949984,68 C49.8758987,68 48.9302907,68.3748264 48.1581744,69.1244792 C47.3860581,69.8741319 47,70.7565972 47,71.771875 L47,71.771875 L47,81.228125 C47,82.2611111 47.3923101,83.1480035 48.1769303,83.8888021 C48.9615505,84.6296007 49.9009065,85 50.9949984,85 L50.9949984,85 L55.0087527,85 Z M71.0075023,85 C72.1015942,85 73.0409503,84.6266493 73.8255705,83.8799479 C74.6101907,83.1332465 75.0025008,82.2493056 75.0025008,81.228125 L75.0025008,81.228125 L75.0025008,71.771875 C75.0025008,70.7447917 74.6101907,69.859375 73.8255705,69.115625 C73.0409503,68.371875 72.1015942,68 71.0075023,68 L71.0075023,68 L66.993748,68 C65.8996561,68 64.9603001,68.3703993 64.1756799,69.1111979 C63.3910597,69.8519965 62.9987496,70.7388889 62.9987496,71.771875 L62.9987496,71.771875 L62.9987496,81.228125 C62.9987496,82.2611111 63.3910597,83.1480035 64.1756799,83.8888021 C64.9603001,84.6296007 65.8996561,85 66.993748,85 L66.993748,85 L71.0075023,85 Z M69.0006252,83.1052083 C68.4442013,83.1052083 67.9706158,82.9192708 67.5798687,82.5473958 C67.1891216,82.1755208 66.993748,81.7357639 66.993748,81.228125 L66.993748,81.228125 L66.993748,71.771875 C66.993748,71.2583333 67.1906846,70.8171007 67.5845577,70.4481771 C67.9784308,70.0792535 68.4504533,69.8947917 69.0006252,69.8947917 C69.5445452,69.8947917 70.0150047,70.0792535 70.4120038,70.4481771 C70.8090028,70.8171007 71.0075023,71.2583333 71.0075023,71.771875 L71.0075023,71.771875 L71.0075023,81.228125 C71.0075023,81.7357639 70.8121288,82.1755208 70.4213817,82.5473958 C70.0306346,82.9192708 69.5570491,83.1052083 69.0006252,83.1052083 Z M87.006252,85 C88.1003439,85 89.0396999,84.6266493 89.8243201,83.8799479 C90.6089403,83.1332465 91.0012504,82.2493056 91.0012504,81.228125 L91.0012504,81.228125 L91.0012504,71.771875 C91.0012504,70.7447917 90.6089403,69.859375 89.8243201,69.115625 C89.0396999,68.371875 88.1003439,68 87.006252,68 L87.006252,68 L82.9924977,68 C81.8984058,68 80.9590497,68.3703993 80.1744295,69.1111979 C79.3898093,69.8519965 78.9974992,70.7388889 78.9974992,71.771875 L78.9974992,71.771875 L78.9974992,81.228125 C78.9974992,82.2611111 79.3898093,83.1480035 80.1744295,83.8888021 C80.9590497,84.6296007 81.8984058,85 82.9924977,85 L82.9924977,85 L87.006252,85 Z M84.9993748,83.1052083 C84.4429509,83.1052083 83.9693654,82.9192708 83.5786183,82.5473958 C83.1878712,82.1755208 82.9924977,81.7357639 82.9924977,81.228125 L82.9924977,81.228125 L82.9924977,71.771875 C82.9924977,71.2583333 83.1894342,70.8171007 83.5833073,70.4481771 C83.9771804,70.0792535 84.4492029,69.8947917 84.9993748,69.8947917 C85.5432948,69.8947917 86.0137543,70.0792535 86.4107534,70.4481771 C86.8077524,70.8171007 87.006252,71.2583333 87.006252,71.771875 L87.006252,71.771875 L87.006252,81.228125 C87.006252,81.7357639 86.8108784,82.1755208 86.4201313,82.5473958 C86.0293842,82.9192708 85.5557987,83.1052083 84.9993748,83.1052083 Z M103.005002,85 C104.099093,85 105.03845,84.6266493 105.82307,83.8799479 C106.60769,83.1332465 107,82.2493056 107,81.228125 L107,81.228125 L107,71.771875 C107,70.7447917 106.60769,69.859375 105.82307,69.115625 C105.03845,68.371875 104.099093,68 103.005002,68 L103.005002,68 L94.9962488,68 L94.9962488,85 L103.005002,85 Z M100.998124,83.1052083 L98.9912473,83.1052083 L98.9912473,69.8947917 L100.998124,69.8947917 C101.542044,69.8947917 102.012504,70.0792535 102.409503,70.4481771 C102.806502,70.8171007 103.005002,71.2583333 103.005002,71.771875 L103.005002,71.771875 L103.005002,81.228125 C103.005002,81.7357639 102.809628,82.1755208 102.418881,82.5473958 C102.028134,82.9192708 101.554548,83.1052083 100.998124,83.1052083 L100.998124,83.1052083 Z" id="GOOD" fill="#492C14" fill-rule="nonzero"></path>
                </g>
            </g>
        </g>
    </g>
</svg>