<?xml version="1.0" encoding="UTF-8"?>
<svg width="200px" height="200px" viewBox="0 0 200 200" version="1.1" xmlns="http://www.w3.org/2000/svg" xmlns:xlink="http://www.w3.org/1999/xlink">
    <title>handshake</title>
    <g id="Page-1" stroke="none" stroke-width="1" fill="none" fill-rule="evenodd">
        <g id="Desktop" transform="translate(-1221.000000, -80.000000)">
            <g id="handshake" transform="translate(1221.000000, 80.000000)">
                <rect id="ViewBox" x="0" y="0" width="200" height="200"></rect>
                <path d="M121.824571,43.0028676 C118.336,43.0277367 114.872571,43.1956026 111.214286,44.1654945 C107.229051,45.235517 103.447536,46.9429221 100.019429,49.2201233 C95.2045714,46.4223582 90.5405714,44.1219737 86.0714286,43.5810724 C80.5211429,42.9033916 75.3668571,43.2702096 69.3765714,43.3945548 C62.2737143,43.5375516 57.6411429,47.1249081 50.1234286,49.9972802 C42.612,52.8572178 32.9382857,55.6301138 19.2857143,55.6301138 L13,55.6301138 L13,115.471199 L16.5388571,117.218248 L28.1234286,122.857299 L69.3765714,168.317872 L69.5714286,168.510607 C74.2857143,173.12381 80.6468571,174.267786 86.2662857,173.950705 C91.892,173.639843 97.172,172.010922 101.389714,169.486716 C110.673714,163.947141 135.961143,146.557477 135.961143,146.557477 L136.552,146.16579 L136.948,145.78032 C139.94,142.839558 141.442286,139.252202 142.448,135.484545 L166.604,123.435504 L184.675429,117.4172 L189,116.049404 L189,55.6301138 L182.714286,55.6301138 C172.148201,55.701572 161.670754,53.7201598 151.876571,49.798328 C144.358857,46.8948697 139.795429,43.3448167 132.617143,43.1956026 C128.782857,43.1209955 125.300571,42.9779986 121.818286,43.0028676 L121.824571,43.0028676 Z M122.013143,55.4373789 C124.841714,55.4125099 128.110286,55.561724 132.233714,55.6301138 C132.893714,55.6549828 138.934286,58.2040576 147.357143,61.4618996 C154.478857,64.2285783 164.372571,66.6843943 176.428571,67.480203 L176.428571,107.115208 L161.889714,111.977101 L161.5,111.977101 L161.104,112.163619 L142.058286,121.688455 C141.047296,118.803263 139.442029,116.156957 137.344,113.916885 L136.948,113.332463 L110.233714,80.8908234 L106.305143,76.0289295 L101.389714,79.9147143 L84.5,93.5180695 C78.8302857,97.4038543 74.2354286,96.2847483 69.5714286,94.1024916 C68.22,93.4683315 68.2954286,93.2755966 67.2142857,92.5481777 L95.896,69.0345169 L96.2857143,68.6490471 C104.802857,60.2930555 110.038857,57.4020317 114.552,56.2145358 C116.814857,55.6052448 119.197143,55.4622479 122.019429,55.4373789 L122.013143,55.4373789 Z M78.2205714,55.6301138 C80.3177996,55.5519253 82.4179809,55.6163218 84.5062857,55.8228487 C86.1531429,56.0155837 88.02,57.4020317 89.6165714,57.9615847 C88.9754286,58.5460067 88.5102857,58.8817385 87.844,59.5158986 L87.4542857,59.9075857 L53.0777143,88.0717536 L47.7725714,92.3492255 L52.4868571,97.2049021 C52.4868571,97.2049021 57.0314286,102.066796 64.0777143,105.368159 C71.124,108.669521 82.0045714,110.540915 91.7725714,103.813845 L92.1685714,103.422158 L104.344,93.5180695 L127.525714,121.688455 L127.720571,122.080142 L127.915429,122.26666 C132.064,126.326527 131.969714,132.711649 127.915429,136.846124 C127.865143,136.889645 127.965714,136.989121 127.915429,137.032642 C127.865143,137.063728 127.035429,137.548674 126.934857,137.623281 L118.681714,126.544131 L108.467429,133.930231 L116.525714,144.611476 C113.257143,146.79995 111.786286,147.943925 108.272571,150.250527 L99.8308571,138.978643 L89.6102857,146.364742 L97.6685714,157.045987 C96.952,157.481195 95.4811429,158.457304 94.9154286,158.799254 C92.9291429,159.986749 89.0948571,161.323459 85.6817143,161.516194 C82.4697143,161.690277 80.012,160.956641 78.8114286,159.96188 L78.6165714,159.769145 L36.5777143,113.72415 L35.792,112.748041 L25.5714286,107.69963 L25.5714286,67.480203 C37.5771429,66.7030461 47.5462857,64.3467062 54.6428571,61.6546345 C63.0405714,58.4713996 69.0371429,55.8477178 69.7662857,55.8228487 L78.2142857,55.6301138 L78.2205714,55.6301138 Z" id="Shape" fill="#000000" fill-rule="nonzero"></path>
            </g>
        </g>
    </g>
</svg>