<?xml version="1.0" encoding="UTF-8"?>
<svg width="140px" height="140px" viewBox="0 0 140 140" version="1.1" xmlns="http://www.w3.org/2000/svg" xmlns:xlink="http://www.w3.org/1999/xlink">
    <title>hosting-configuration</title>
    <g id="Page-1" stroke="none" stroke-width="1" fill="none" fill-rule="evenodd">
        <g id="Desktop" transform="translate(-599.000000, -840.000000)">
            <g id="hosting-configuration" transform="translate(599.000000, 840.000000)">
                <rect id="ViewBox" x="0" y="0" width="140" height="140"></rect>
                <path d="M96.9,61 L44.1,61 C43.495,61 43,61.4909091 43,62.0909091 L43,116.909091 C43,117.509091 43.495,118 44.1,118 L96.9,118 C97.505,118 98,117.509091 98,116.909091 L98,62.0909091 C98,61.4909091 97.505,61 96.9,61 Z M51.8,69.7272727 L89.2,69.7272727 L89.2,85.6818182 L51.8,85.6818182 L51.8,69.7272727 Z M89.2,109.272727 L51.8,109.272727 L51.8,93.3181818 L89.2,93.3181818 L89.2,109.272727 Z" id="Shape" fill="#337DFF" fill-rule="nonzero"></path>
                <path d="M58,102.504132 C58,104.987131 60.0147186,107 62.5,107 C64.9852814,107 67,104.987131 67,102.504132 C67,100.021133 64.9852814,98.0082645 62.5,98.0082645 C60.0147186,98.0082645 58,100.021133 58,102.504132 Z M58,77.4958678 C58,79.978867 60.0147186,81.9917355 62.5,81.9917355 C64.9852814,81.9917355 67,79.978867 67,77.4958678 C67,75.0128686 64.9852814,73 62.5,73 C60.0147186,73 58,75.0128686 58,77.4958678 Z" id="Shape" fill="#337DFF" fill-rule="nonzero"></path>
                <path d="M111.600252,50.2749366 C105.313026,33.7527528 89.2929529,22 70.5273664,22 C51.7617799,22 35.7417071,33.7390868 29.4544806,50.2612706 C17.6350439,53.3634507 8.9317653,64.1185861 9,76.8826223 C9.08276856,91.1499175 20.2020993,102.752344 34.2042194,103.99595 C34.8494151,104.050614 35.3985179,103.544972 35.3985179,102.90267 L35.3985179,94.6484114 C35.3985179,94.1017717 34.9866908,93.637128 34.4375881,93.568798 C30.7311445,93.1041543 27.2306145,91.4915673 24.540011,88.8540309 C21.2453945,85.6425229 19.4333554,81.3240695 19.4333554,76.7459624 C19.4333554,72.9194847 20.6825642,69.3116629 23.0299784,66.3051448 C25.3224824,63.3806226 28.5484611,61.2623939 32.1039014,60.3331064 L37.30665,58.9665073 L39.214782,53.9510884 C40.3953529,50.8352423 42.0426612,47.9107201 44.1155241,45.2731837 C46.1609318,42.6493133 48.5907115,40.3534267 51.3087701,38.4401879 C56.9508009,34.4907163 63.5949442,32.3998196 70.5273664,32.3998196 C77.4597886,32.3998196 84.1039319,34.4907163 89.7459627,38.4538539 C92.4777489,40.3670927 94.893801,42.6629793 96.9392087,45.2868497 C99.0120716,47.9243861 100.65938,50.8489083 101.839951,53.9647544 L103.734355,58.9665073 L108.923376,60.3331064 C116.363719,62.3010092 121.566467,69.0383431 121.566467,76.7322964 C121.566467,81.3240695 119.754428,85.6288569 116.459812,88.8403649 C113.782936,91.4642353 110.296133,93.0904883 106.58969,93.555132 C106.040587,93.623462 105.642487,94.0881057 105.642487,94.6347454 L105.642487,102.90267 C105.642487,103.544972 106.205318,104.050614 106.850513,103.99595 C120.811451,102.738678 131.903326,91.1499175 132,76.9099543 C132.081785,64.1459181 123.392234,53.3907827 111.600252,50.2749366 L111.600252,50.2749366 Z" id="Path" fill="#337DFF" fill-rule="nonzero"></path>
            </g>
        </g>
    </g>
</svg>