<?xml version="1.0" encoding="UTF-8"?>
<svg width="120px" height="122px" viewBox="0 0 120 122" version="1.1" xmlns="http://www.w3.org/2000/svg" xmlns:xlink="http://www.w3.org/1999/xlink">
    <title>html</title>
    <g id="home-page" stroke="none" stroke-width="1" fill="none" fill-rule="evenodd">
        <g id="iPhone-11-Copy" transform="translate(-53.000000, -179.000000)">
            <g id="icons" transform="translate(53.000000, 39.000000)">
                <g id="html" transform="translate(0.000000, 140.000000)">
                    <rect id="ViewBox" x="0" y="0" width="120" height="122"></rect>
                    <polygon id="Path" fill="#E44F26" fill-rule="nonzero" points="23.3727825 103.89148 15 8.44615385 107 8.44615385 98.6160389 103.87633 60.9441069 114.492308"></polygon>
                    <polygon id="Path" fill="#F1662A" fill-rule="nonzero" points="62 106.046154 91.1438763 97.4711622 98 15.9538462 62 15.9538462"></polygon>
                    <polygon id="Path" fill="#EBEBEB" fill-rule="nonzero" points="58 49.7384615 45.3341935 49.4256981 44.4609032 37.5743019 58 37.5743019 58 26 34 26 34.2291613 29.1079491 36.5796129 61 58 61.6036663"></polygon>
                    <polygon id="Path" fill="#EBEBEB" fill-rule="nonzero" points="58 80.5626589 47.8038059 77.4492145 47.1547426 68 38 68 39.4433473 85.9820041 58 92.9076923"></polygon>
                    <polygon id="Path" fill="#FFFFFF" fill-rule="nonzero" points="58 49.7384615 58 61.6036663 72.8320111 61.6036663 71.4368824 76.9927331 58 80.5626589 58 92.9076923 82.6953375 86.1632197 82.8745999 84.159455 85.7038274 52.9245243 86 49.7384615"></polygon>
                    <polygon id="Path" fill="#FFFFFF" fill-rule="nonzero" points="58 37.5743019 84.9884636 37.5743019 85.2225236 34.5302491 85.7324035 28.9537367 86 26 58 26"></polygon>
                </g>
            </g>
        </g>
    </g>
</svg>