<?xml version="1.0" encoding="UTF-8"?>
<svg width="93px" height="97px" viewBox="0 0 93 97" version="1.1" xmlns="http://www.w3.org/2000/svg" xmlns:xlink="http://www.w3.org/1999/xlink">
    <title>js</title>
    <g id="Page-1" stroke="none" stroke-width="1" fill="none" fill-rule="evenodd">
        <g id="js">
            <rect id="ViewBox" x="0" y="0" width="93" height="97"></rect>
            <polygon id="Path" fill="#F7DF1E" fill-rule="nonzero" points="0 0 93 0 93 97 0 97"></polygon>
            <path d="M24.000375,81.2219125 L31.3463189,76.7388259 C32.7637598,79.2726622 34.0529561,81.4166484 37.1454523,81.4166484 C40.1097038,81.4166484 41.9790009,80.2474764 41.9790009,75.6993518 L41.9790009,44.7692308 L51,44.7692308 L51,75.8279153 C51,85.2497328 45.5229782,89.5384615 37.5320612,89.5384615 C30.3154869,89.5384615 26.1265364,85.7696589 24,81.2211562" id="Path" fill="#FFFFFF" fill-rule="nonzero"></path>
            <path d="M55.0003704,80.3529499 L62.2563989,76.1139717 C64.1667184,79.2615279 66.6493559,81.5736978 71.0412016,81.5736978 C74.7340415,81.5736978 77.0885094,79.710805 77.0885094,77.1414782 C77.0885094,74.058585 74.6695863,72.9664155 70.5955715,71.1685595 L68.3681619,70.204221 C61.938568,67.4431477 57.6737806,63.9745191 57.6737806,56.652274 C57.6737806,49.9078845 62.7661138,44.7692308 70.7233707,44.7692308 C76.3887628,44.7692308 80.4627775,46.760702 83.3906747,51.9632712 L76.4517363,56.4597801 C74.9237029,53.6979593 73.2693521,52.6061636 70.7230003,52.6061636 C68.1129341,52.6061636 66.4578424,54.2761886 66.4578424,56.4597801 C66.4578424,59.1573116 68.1129341,60.2498549 71.9320914,61.9198799 L74.1598714,62.8830972 C81.7352126,66.1592318 86,69.4989082 86,77.0132735 C86,85.1069895 79.6982052,89.5384615 71.2319743,89.5384615 C62.9568865,89.5384615 57.6096958,85.5562666 55,80.3533236" id="Path" fill="#FFFFFF" fill-rule="nonzero"></path>
        </g>
    </g>
</svg>