<svg width="115" height="43" viewBox="0 0 115 43" fill="none" xmlns="http://www.w3.org/2000/svg">
<path d="M0.768 9.504C0.768 7.84 1.112 6.36 1.8 5.064C2.504 3.752 3.496 2.736 4.776 2.016C6.056 1.28 7.528 0.912 9.192 0.912C11.304 0.912 13.08 1.48 14.52 2.616C15.96 3.736 16.888 5.264 17.304 7.2H12.24C11.936 6.56 11.512 6.072 10.968 5.736C10.44 5.4 9.824 5.232 9.12 5.232C8.032 5.232 7.16 5.624 6.504 6.408C5.864 7.176 5.544 8.208 5.544 9.504C5.544 10.816 5.864 11.864 6.504 12.648C7.16 13.416 8.032 13.8 9.12 13.8C9.824 13.8 10.44 13.632 10.968 13.296C11.512 12.96 11.936 12.472 12.24 11.832H17.304C16.888 13.768 15.96 15.304 14.52 16.44C13.08 17.56 11.304 18.12 9.192 18.12C7.528 18.12 6.056 17.76 4.776 17.04C3.496 16.304 2.504 15.288 1.8 13.992C1.112 12.68 0.768 11.184 0.768 9.504ZM30.2355 15.24H24.2355L23.3235 18H18.3795L24.5475 1.08H29.9715L36.1155 18H31.1475L30.2355 15.24ZM29.0595 11.64L27.2355 6.168L25.4355 11.64H29.0595ZM44.0327 18.168C42.0647 18.168 40.4487 17.704 39.1847 16.776C37.9207 15.832 37.2407 14.488 37.1447 12.744H42.1607C42.2087 13.336 42.3847 13.768 42.6887 14.04C42.9927 14.312 43.3847 14.448 43.8647 14.448C44.2967 14.448 44.6487 14.344 44.9207 14.136C45.2087 13.912 45.3527 13.608 45.3527 13.224C45.3527 12.728 45.1207 12.344 44.6567 12.072C44.1927 11.8 43.4407 11.496 42.4007 11.16C41.2967 10.792 40.4007 10.44 39.7127 10.104C39.0407 9.752 38.4487 9.248 37.9367 8.592C37.4407 7.92 37.1927 7.048 37.1927 5.976C37.1927 4.888 37.4647 3.96 38.0087 3.192C38.5527 2.408 39.3047 1.816 40.2647 1.416C41.2247 1.016 42.3127 0.816 43.5287 0.816C45.4967 0.816 47.0647 1.28 48.2327 2.208C49.4167 3.12 50.0487 4.408 50.1287 6.072H45.0167C45.0007 5.56 44.8407 5.176 44.5367 4.92C44.2487 4.664 43.8727 4.536 43.4087 4.536C43.0567 4.536 42.7687 4.64 42.5447 4.848C42.3207 5.056 42.2087 5.352 42.2087 5.736C42.2087 6.056 42.3287 6.336 42.5687 6.576C42.8247 6.8 43.1367 7 43.5047 7.176C43.8727 7.336 44.4167 7.544 45.1367 7.8C46.2087 8.168 47.0887 8.536 47.7767 8.904C48.4807 9.256 49.0807 9.76 49.5767 10.416C50.0887 11.056 50.3447 11.872 50.3447 12.864C50.3447 13.872 50.0887 14.776 49.5767 15.576C49.0807 16.376 48.3527 17.008 47.3927 17.472C46.4487 17.936 45.3287 18.168 44.0327 18.168ZM65.2755 1.08V4.824H60.7635V18H56.0595V4.824H51.5955V1.08H65.2755ZM71.7199 1.08V18H67.0159V1.08H71.7199ZM79.1027 14.4H84.3587V18H74.3987V1.08H79.1027V14.4ZM90.8918 14.4H96.1478V18H86.1878V1.08H90.8918V14.4ZM106.089 18.168C104.505 18.168 103.049 17.8 101.721 17.064C100.393 16.312 99.3368 15.28 98.5528 13.968C97.7848 12.64 97.4008 11.144 97.4008 9.48C97.4008 7.816 97.7848 6.328 98.5528 5.016C99.3368 3.688 100.393 2.656 101.721 1.92C103.049 1.184 104.505 0.816 106.089 0.816C107.689 0.816 109.145 1.184 110.457 1.92C111.785 2.656 112.833 3.688 113.601 5.016C114.369 6.328 114.753 7.816 114.753 9.48C114.753 11.144 114.369 12.64 113.601 13.968C112.833 15.28 111.785 16.312 110.457 17.064C109.129 17.8 107.673 18.168 106.089 18.168ZM106.089 13.8C107.289 13.8 108.233 13.408 108.921 12.624C109.625 11.84 109.977 10.792 109.977 9.48C109.977 8.136 109.625 7.08 108.921 6.312C108.233 5.528 107.289 5.136 106.089 5.136C104.873 5.136 103.921 5.528 103.233 6.312C102.545 7.08 102.201 8.136 102.201 9.48C102.201 10.808 102.545 11.864 103.233 12.648C103.921 13.416 104.873 13.8 106.089 13.8Z" fill="white"/>
<path d="M25.176 25.08L21.024 42H15.24L12.912 31.632L10.536 42H4.752L0.648 25.08H5.736L7.704 36.648L10.368 25.08H15.528L18.12 36.552L20.088 25.08H25.176ZM31.8761 28.848V31.608H37.2761V35.184H31.8761V38.232H37.9961V42H27.1721V25.08H37.9961V28.848H31.8761ZM51.1206 33.312C52.1126 33.536 52.8966 34.032 53.4726 34.8C54.0646 35.552 54.3606 36.416 54.3606 37.392C54.3606 38.832 53.8646 39.96 52.8726 40.776C51.8806 41.592 50.4886 42 48.6966 42H40.3206V25.08H48.4326C50.1606 25.08 51.5126 25.464 52.4886 26.232C53.4806 27 53.9766 28.08 53.9766 29.472C53.9766 30.464 53.7126 31.296 53.1846 31.968C52.6726 32.624 51.9846 33.072 51.1206 33.312ZM45.0246 31.8H47.4006C48.5846 31.8 49.1766 31.312 49.1766 30.336C49.1766 29.328 48.5846 28.824 47.4006 28.824H45.0246V31.8ZM47.7606 38.208C48.9446 38.208 49.5366 37.712 49.5366 36.72C49.5366 36.208 49.3766 35.816 49.0566 35.544C48.7526 35.272 48.3126 35.136 47.7366 35.136H45.0246V38.208H47.7606ZM63.1181 25.08C64.8941 25.08 66.4461 25.44 67.7741 26.16C69.1181 26.864 70.1501 27.856 70.8701 29.136C71.5901 30.416 71.9501 31.88 71.9501 33.528C71.9501 35.16 71.5821 36.616 70.8461 37.896C70.1261 39.176 69.0941 40.184 67.7501 40.92C66.4221 41.64 64.8781 42 63.1181 42H56.4221V25.08H63.1181ZM62.7581 37.848C64.1341 37.848 65.2141 37.472 65.9981 36.72C66.7821 35.968 67.1741 34.904 67.1741 33.528C67.1741 32.136 66.7821 31.064 65.9981 30.312C65.2141 29.544 64.1341 29.16 62.7581 29.16H61.1261V37.848H62.7581ZM78.7746 28.848V31.608H84.1746V35.184H78.7746V38.232H84.8946V42H74.0706V25.08H84.8946V28.848H78.7746ZM103.683 25.08L97.851 42H91.827L85.971 25.08H91.011L94.851 37.296L98.667 25.08H103.683ZM107.429 42.192C106.597 42.192 105.925 41.968 105.413 41.52C104.917 41.056 104.669 40.472 104.669 39.768C104.669 39.064 104.917 38.48 105.413 38.016C105.925 37.552 106.597 37.32 107.429 37.32C108.245 37.32 108.901 37.552 109.397 38.016C109.909 38.48 110.165 39.064 110.165 39.768C110.165 40.456 109.909 41.032 109.397 41.496C108.901 41.96 108.245 42.192 107.429 42.192Z" fill="#64FF8F"/>
</svg>
