<?xml version="1.0" encoding="UTF-8"?>
<svg width="256px" height="289px" viewBox="0 0 256 289" version="1.1" xmlns="http://www.w3.org/2000/svg" xmlns:xlink="http://www.w3.org/1999/xlink">
    <title>node</title>
    <g id="Page-1" stroke="none" stroke-width="1" fill="none" fill-rule="evenodd">
        <g id="Desktop" transform="translate(-760.000000, -720.000000)">
            <g id="node" transform="translate(760.000000, 720.000000)">
                <rect id="ViewBox" x="0" y="0" width="256" height="289"></rect>
                <path d="M128,288.465 C124.025,288.465 120.315,287.404 116.87,285.549 L81.623,264.613 C76.323,261.698 78.973,260.638 80.563,260.108 C87.718,257.723 89.043,257.193 96.463,252.952 C97.259,252.422 98.319,252.687 99.113,253.217 L126.145,269.383 C127.205,269.913 128.53,269.913 129.325,269.383 L235.065,208.166 C236.125,207.636 236.655,206.576 236.655,205.251 L236.655,83.08 C236.655,81.755 236.125,80.695 235.065,80.165 L129.325,19.212 C128.265,18.682 126.94,18.682 126.145,19.212 L20.405,80.166 C19.345,80.696 18.815,82.021 18.815,83.081 L18.815,205.251 C18.815,206.311 19.345,207.636 20.405,208.166 L49.292,224.861 C64.928,232.811 74.732,223.536 74.732,214.261 L74.732,93.68 C74.732,92.09 76.058,90.5 77.913,90.5 L91.429,90.5 C93.019,90.5 94.609,91.825 94.609,93.68 L94.609,214.26 C94.609,235.196 83.213,247.386 63.337,247.386 C57.242,247.386 52.472,247.386 38.957,240.761 L11.13,224.861 C4.24,220.885 0,213.465 0,205.515 L0,83.346 C0,75.396 4.24,67.976 11.13,64 L116.87,2.783 C123.495,-0.927 132.505,-0.927 139.13,2.783 L244.87,64 C251.76,67.975 256,75.395 256,83.346 L256,205.516 C256,213.466 251.76,220.886 244.87,224.861 L139.13,286.08 C135.685,287.67 131.71,288.465 128,288.465 L128,288.465 Z M160.596,204.455 C114.219,204.455 104.679,183.255 104.679,165.234 C104.679,163.644 106.004,162.054 107.859,162.054 L121.639,162.054 C123.229,162.054 124.555,163.114 124.555,164.704 C126.675,178.749 132.77,185.64 160.861,185.64 C183.122,185.64 192.663,180.605 192.663,168.68 C192.663,161.789 190.013,156.754 155.296,153.308 C126.41,150.393 108.389,144.033 108.389,120.978 C108.389,99.511 126.409,86.791 156.621,86.791 C190.542,86.791 207.238,98.451 209.358,123.892 C209.358,124.687 209.093,125.482 208.563,126.277 C208.033,126.807 207.238,127.337 206.443,127.337 L192.663,127.337 C191.337,127.337 190.013,126.277 189.747,124.952 C186.567,110.377 178.352,105.607 156.621,105.607 C132.241,105.607 129.325,114.087 129.325,120.447 C129.325,128.133 132.77,130.517 165.631,134.757 C198.228,138.997 213.598,145.093 213.598,167.884 C213.333,191.205 194.253,204.455 160.596,204.455 L160.596,204.455 Z" id="Shape" fill="#539E43" fill-rule="nonzero"></path>
            </g>
        </g>
    </g>
</svg>