<?xml version="1.0" encoding="UTF-8"?>
<svg width="180px" height="195px" viewBox="0 0 180 195" version="1.1" xmlns="http://www.w3.org/2000/svg" xmlns:xlink="http://www.w3.org/1999/xlink">
    <title>open</title>
    <g id="Page-1" stroke="none" stroke-width="1" fill="none" fill-rule="evenodd">
        <g id="Desktop" transform="translate(-1020.000000, -320.000000)">
            <g id="open" transform="translate(1020.000000, 320.000000)">
                <rect id="ViewBox" x="0" y="0" width="180" height="195"></rect>
                <g id="Group" transform="translate(5.000000, 61.000000)">
                    <polygon id="Path" points="74.346213 12.8515406 63.754497 12.8515406 63.754497 37.6900448 74.346213 37.6900448 74.346213 36.9318039 74.6745562 36.9318039 74.6745562 12.8515406"></polygon>
                    <polygon id="Path" fill="#000000" fill-rule="nonzero" points="63.754497 12.8515406 74.346213 12.8515406 74.346213 0.878672269 53.8194675 0.621848739 53.8194675 73.4863529 63.754497 73.4863529 63.754497 48.7823754 74.346213 48.7823754 74.346213 37.6900448 63.754497 37.6900448 63.754497 12.8515406"></polygon>
                    <polygon id="Path" fill="#000000" fill-rule="nonzero" points="74.6745562 12.8515406 85.2662722 12.8515406 85.2662722 36.9318039 74.6745562 36.9318039"></polygon>
                    <polygon id="Path" points="32.1382249 13.0472157 32.1382249 12.7903922 11.1242604 12.7903922 11.1242604 13.0472157 10.9547929 13.0472157 10.9547929 61.1955126 11.1242604 61.1955126 11.1242604 62.1494286 32.1382249 62.1494286 32.1382249 61.1955126 32.3076923 61.1955126 32.3076923 13.0472157"></polygon>
                    <polygon id="Path" fill="#000000" fill-rule="nonzero" points="32.3076923 12.8515406 42.3380473 12.8515406 42.3380473 61.0120672 32.3076923 61.0120672"></polygon>
                    <polygon id="Path" fill="#000000" fill-rule="nonzero" points="11.1242604 0.621848739 32.1382249 0.621848739 32.1382249 12.1544482 11.1242604 12.1544482"></polygon>
                    <polygon id="Path" fill="#000000" fill-rule="nonzero" points="11.1242604 61.7703081 32.1382249 61.7703081 32.1382249 73.4252045 11.1242604 73.4252045"></polygon>
                    <polygon id="Path" fill="#000000" fill-rule="nonzero" points="0.532544379 12.8515406 10.5840828 12.8515406 10.5840828 61.0120672 0.532544379 61.0120672"></polygon>
                    <polygon id="Path" fill="#000000" fill-rule="nonzero" points="159.736627 1.00096919 159.736627 18.9663866 148.488225 8.26540616 148.488225 1.00096919 138.39432 1.00096919 138.39432 73.6208796 148.488225 73.6208796 148.488225 25.4603529 159.736627 36.1613333 159.736627 73.6208796 169.502189 73.6208796 169.502189 1.00096919"></polygon>
                    <polygon id="Path" fill="#000000" fill-rule="nonzero" points="107.339408 0.939820728 96.0274556 0.939820728 96.0274556 73.8654734 107.339408 73.8654734 107.339408 73.6208796 127.304793 73.6208796 127.304793 62.1494286 105.951893 62.1494286 105.951893 36.9318039 127.304793 36.9318039 127.304793 25.4603529 105.951893 25.4603529 105.951893 12.2767451 127.304793 12.2767451 127.304793 1.19664426 107.339408 1.19664426"></polygon>
                </g>
            </g>
        </g>
    </g>
</svg>