<?xml version="1.0" encoding="UTF-8"?>
<svg width="154px" height="180px" viewBox="0 0 154 180" version="1.1" xmlns="http://www.w3.org/2000/svg" xmlns:xlink="http://www.w3.org/1999/xlink">
    <title>smiley</title>
    <g id="Page-1" stroke="none" stroke-width="1" fill="none" fill-rule="evenodd">
        <g id="Desktop" transform="translate(-1668.000000, -120.000000)">
            <g id="smiley" transform="translate(1668.000000, 120.000000)">
                <rect id="ViewBox" x="0" y="0" width="154" height="180"></rect>
                <path d="M14.4375,90 C14.4375,49.6141777 42.4476853,16.875 77,16.875 C111.552315,16.875 139.5625,49.6141777 139.5625,90 C139.5625,130.385822 111.552315,163.125 77,163.125 C42.4476853,163.125 14.4375,130.385822 14.4375,90 Z M77,0 C34.4740743,0 0,40.2943725 0,90 C0,139.705627 34.4740743,180 77,180 C119.525926,180 154,139.705627 154,90 C154,40.2943725 119.525926,0 77,0 Z M48.125,90 C53.4407407,90 57.75,84.9632034 57.75,78.75 C57.75,72.5367966 53.4407407,67.5 48.125,67.5 C42.8092593,67.5 38.5,72.5367966 38.5,78.75 C38.5,84.9632034 42.8092593,90 48.125,90 Z M115.5,78.75 C115.5,84.9632034 111.190741,90 105.875,90 C100.559259,90 96.25,84.9632034 96.25,78.75 C96.25,72.5367966 100.559259,67.5 105.875,67.5 C111.190741,67.5 115.5,72.5367966 115.5,78.75 Z M51.205,108.405 C54.4361326,105.760647 58.8849875,106.637326 61.19575,110.37375 L61.263125,110.475 C62.2545,111.8025 63.380625,112.9725 64.631875,113.9625 C67.172875,115.965 71.20575,118.125 77,118.125 C82.79425,118.125 86.8175,115.965 89.368125,113.95125 C90.619375,112.96125 91.7455,111.79125 92.736875,110.46375 L92.80425,110.37375 C94.3000764,107.917996 96.8031654,106.581528 99.3706276,106.867783 C101.93809,107.154037 104.179867,109.019524 105.251503,111.761533 C106.323139,114.503542 106.061826,117.705496 104.566,120.16125 L98.65625,115.3125 C104.566,120.15 104.566,120.16125 104.556375,120.16125 L104.556375,120.1725 L104.54675,120.195 L104.5275,120.22875 L104.479375,120.3075 L104.344625,120.52125 C103.803572,121.367999 103.21175,122.168764 102.573625,122.9175 C101.033625,124.785 99.320375,126.4725 97.472375,127.92375 C91.408625,132.62625 84.286125,135.10125 77,135 C67.89475,135 61.0995,131.535 56.53725,127.9125 C53.9457726,125.856283 51.6270199,123.365903 49.655375,120.52125 L49.520625,120.29625 L49.4725,120.22875 L49.45325,120.195 L49.45325,120.1725 L49.443625,120.1725 L55.34375,115.3125 L49.434,120.15 C47.1485195,116.337433 47.9367153,111.081676 51.195375,108.405 L51.205,108.405 L51.205,108.405 Z" id="Shape" fill="#000000"></path>
            </g>
        </g>
    </g>
</svg>