<?xml version="1.0" encoding="UTF-8"?>
<svg width="153px" height="153px" viewBox="0 0 153 153" version="1.1" xmlns="http://www.w3.org/2000/svg" xmlns:xlink="http://www.w3.org/1999/xlink">
    <title>spec-medal</title>
    <defs>
        <linearGradient x1="26.8361889%" y1="15.8739292%" x2="75.7589431%" y2="79.1549425%" id="linearGradient-1">
            <stop stop-color="#69C7D4" offset="0%"></stop>
            <stop stop-color="#2A7280" offset="21.7904586%"></stop>
            <stop stop-color="#232323" offset="100%"></stop>
        </linearGradient>
        <linearGradient x1="50%" y1="0%" x2="50%" y2="100%" id="linearGradient-2">
            <stop stop-color="#AB7A86" offset="0%"></stop>
            <stop stop-color="#9C3B58" offset="16.7546637%"></stop>
            <stop stop-color="#7B243A" offset="57.8962077%"></stop>
            <stop stop-color="#B35F74" offset="100%"></stop>
        </linearGradient>
        <linearGradient x1="18.9458808%" y1="80.3921331%" x2="79.9295429%" y2="18.7614727%" id="linearGradient-3">
            <stop stop-color="#B08534" offset="0%"></stop>
            <stop stop-color="#E2CD8B" offset="42.6751145%"></stop>
            <stop stop-color="#DBC37F" offset="52.7075613%"></stop>
            <stop stop-color="#B08534" offset="69.7544303%"></stop>
            <stop stop-color="#B08534" offset="100%"></stop>
        </linearGradient>
        <linearGradient x1="20.4728578%" y1="17.4887647%" x2="68.0748889%" y2="87.6359403%" id="linearGradient-4">
            <stop stop-color="#E7D493" offset="0%"></stop>
            <stop stop-color="#B08534" offset="100%"></stop>
        </linearGradient>
        <linearGradient x1="97.2694788%" y1="78.9783301%" x2="0%" y2="56.6022686%" id="linearGradient-5">
            <stop stop-color="#69C7D4" offset="0%"></stop>
            <stop stop-color="#2A7280" offset="32.6737199%"></stop>
            <stop stop-color="#232323" offset="100%"></stop>
        </linearGradient>
        <linearGradient x1="26.8361889%" y1="14.7766622%" x2="75.7589431%" y2="80.0923712%" id="linearGradient-6">
            <stop stop-color="#69C7D4" offset="0%"></stop>
            <stop stop-color="#1C3947" offset="28.1329635%"></stop>
            <stop stop-color="#1B1E20" offset="65.7970112%"></stop>
            <stop stop-color="#232323" offset="100%"></stop>
        </linearGradient>
        <linearGradient x1="87.9232128%" y1="76.0287419%" x2="9.24020444%" y2="28.4537551%" id="linearGradient-7">
            <stop stop-color="#E7D493" offset="0%"></stop>
            <stop stop-color="#B08534" offset="100%"></stop>
        </linearGradient>
        <linearGradient x1="50%" y1="96.7992971%" x2="50%" y2="2.84217094e-12%" id="linearGradient-8">
            <stop stop-color="#E7D493" offset="0%"></stop>
            <stop stop-color="#B08534" offset="100%"></stop>
        </linearGradient>
        <linearGradient x1="50%" y1="96.7992971%" x2="50%" y2="2.84217094e-12%" id="linearGradient-9">
            <stop stop-color="#E7D493" offset="0%"></stop>
            <stop stop-color="#B08534" offset="100%"></stop>
        </linearGradient>
        <linearGradient x1="50%" y1="96.7992971%" x2="50%" y2="2.84217094e-12%" id="linearGradient-10">
            <stop stop-color="#E7D493" offset="0%"></stop>
            <stop stop-color="#B08534" offset="100%"></stop>
        </linearGradient>
        <linearGradient x1="50%" y1="96.7992971%" x2="50%" y2="2.84217094e-12%" id="linearGradient-11">
            <stop stop-color="#E7D493" offset="0%"></stop>
            <stop stop-color="#B08534" offset="100%"></stop>
        </linearGradient>
        <linearGradient x1="50%" y1="96.7992971%" x2="50%" y2="2.84217094e-12%" id="linearGradient-12">
            <stop stop-color="#E7D493" offset="0%"></stop>
            <stop stop-color="#B08534" offset="100%"></stop>
        </linearGradient>
        <linearGradient x1="50%" y1="96.7992971%" x2="50%" y2="2.84217094e-12%" id="linearGradient-13">
            <stop stop-color="#E7D493" offset="0%"></stop>
            <stop stop-color="#B08534" offset="100%"></stop>
        </linearGradient>
        <linearGradient x1="50%" y1="96.7992971%" x2="50%" y2="2.84217094e-12%" id="linearGradient-14">
            <stop stop-color="#E7D493" offset="0%"></stop>
            <stop stop-color="#B08534" offset="100%"></stop>
        </linearGradient>
        <linearGradient x1="50%" y1="96.7992971%" x2="50%" y2="2.84217094e-12%" id="linearGradient-15">
            <stop stop-color="#E7D493" offset="0%"></stop>
            <stop stop-color="#B08534" offset="100%"></stop>
        </linearGradient>
        <linearGradient x1="50%" y1="96.7992971%" x2="50%" y2="2.84217094e-12%" id="linearGradient-16">
            <stop stop-color="#E7D493" offset="0%"></stop>
            <stop stop-color="#B08534" offset="100%"></stop>
        </linearGradient>
        <linearGradient x1="50%" y1="96.7992971%" x2="50%" y2="2.84217094e-12%" id="linearGradient-17">
            <stop stop-color="#E7D493" offset="0%"></stop>
            <stop stop-color="#B08534" offset="100%"></stop>
        </linearGradient>
        <linearGradient x1="50%" y1="96.7992971%" x2="50%" y2="2.84217094e-12%" id="linearGradient-18">
            <stop stop-color="#E7D493" offset="0%"></stop>
            <stop stop-color="#B08534" offset="100%"></stop>
        </linearGradient>
        <linearGradient x1="50%" y1="96.7992971%" x2="50%" y2="2.84217094e-12%" id="linearGradient-19">
            <stop stop-color="#E7D493" offset="0%"></stop>
            <stop stop-color="#B08534" offset="100%"></stop>
        </linearGradient>
        <linearGradient x1="50%" y1="96.7992971%" x2="50%" y2="2.84217094e-12%" id="linearGradient-20">
            <stop stop-color="#E7D493" offset="0%"></stop>
            <stop stop-color="#B08534" offset="100%"></stop>
        </linearGradient>
        <linearGradient x1="50%" y1="96.7992971%" x2="50%" y2="2.84217094e-12%" id="linearGradient-21">
            <stop stop-color="#E7D493" offset="0%"></stop>
            <stop stop-color="#B08534" offset="100%"></stop>
        </linearGradient>
        <linearGradient x1="50%" y1="96.7992971%" x2="50%" y2="2.84217094e-12%" id="linearGradient-22">
            <stop stop-color="#E7D493" offset="0%"></stop>
            <stop stop-color="#B08534" offset="100%"></stop>
        </linearGradient>
        <linearGradient x1="50%" y1="96.7992971%" x2="50%" y2="2.84217094e-12%" id="linearGradient-23">
            <stop stop-color="#E7D493" offset="0%"></stop>
            <stop stop-color="#B08534" offset="100%"></stop>
        </linearGradient>
        <linearGradient x1="50%" y1="96.7992971%" x2="50%" y2="2.84217094e-12%" id="linearGradient-24">
            <stop stop-color="#E7D493" offset="0%"></stop>
            <stop stop-color="#B08534" offset="100%"></stop>
        </linearGradient>
        <linearGradient x1="50%" y1="96.7992971%" x2="50%" y2="2.84217094e-12%" id="linearGradient-25">
            <stop stop-color="#E7D493" offset="0%"></stop>
            <stop stop-color="#B08534" offset="100%"></stop>
        </linearGradient>
        <linearGradient x1="50%" y1="96.7992971%" x2="50%" y2="2.84217094e-12%" id="linearGradient-26">
            <stop stop-color="#E7D493" offset="0%"></stop>
            <stop stop-color="#B08534" offset="100%"></stop>
        </linearGradient>
        <linearGradient x1="50%" y1="96.7992971%" x2="50%" y2="2.84217094e-12%" id="linearGradient-27">
            <stop stop-color="#E7D493" offset="0%"></stop>
            <stop stop-color="#B08534" offset="100%"></stop>
        </linearGradient>
        <linearGradient x1="88.2404444%" y1="32.1882599%" x2="9.00236544%" y2="32.1882599%" id="linearGradient-28">
            <stop stop-color="#E7D493" offset="0%"></stop>
            <stop stop-color="#B08534" offset="100%"></stop>
        </linearGradient>
    </defs>
    <g id="Page-1" stroke="none" stroke-width="1" fill="none" fill-rule="evenodd">
        <g id="plans-spectacular" transform="translate(-769.000000, -167.000000)">
            <g id="spec-medal" transform="translate(769.000000, 167.000000)">
                <g id="spectacular-medal">
                    <path d="M68.8564071,2.43618506 L76.6064068,8.96443722 L84.2620578,2.4701111 L90.2617235,10.4014569 L99.2296755,5.55320178 L103.4266,14.3511677 L113.430216,11.2343584 L115.102498,20.4220943 L125.547706,19.5540022 L125.547706,29.0597279 L135.902819,29.8878582 L133.936212,39.0759853 L143.59819,41.9887012 L139.787156,50.4173178 L148.627576,55.2804337 L142.495981,62.8584151 L150.098102,69.2855949 L142.503346,75.2511983 L148.309363,82.9647254 L139.77184,87.7089581 L143.812052,96.3084718 L134.36904,99.2740467 L135.966642,108.298851 L125.517206,109.271163 L125.728512,118.83641 L115.097328,117.473662 L113.422139,127.317242 L103.443761,123.806391 L99.2050728,132.75797 L90.4835065,128.385334 L84.1585405,135.884409 L76.9415315,129.367589 L68.8800223,135.685194 L62.6047029,128.010785 L53.5535478,132.902728 L49.5061483,123.792887 L39.5308438,127.324684 L37.6747562,117.508625 L27.0575491,118.622222 L27.6399958,108.932665 L16.5427405,108.598721 L19.2655988,98.828869 L8.92013747,96.068297 L13.5944461,87.4849558 L4.51269968,82.9410143 L10.8472326,75.2714345 L2.48325286,68.9430133 L10.8521491,62.5887623 L4.51669675,54.9999602 L13.5635571,50.4264939 L9.17244051,41.9572127 L19.1860394,38.9124818 L17.0911276,29.7087222 L27.5499574,28.9523522 L27.5499574,19.5965868 L37.5982132,20.6920595 L39.9511955,11.1947279 L49.4393329,14.0916577 L54.0436309,5.49354011 L62.7780434,9.99864059 L68.8564071,2.43618506 Z" id="Oval" stroke="#C8A044" stroke-width="3" fill="url(#linearGradient-1)"></path>
                    <polygon id="Rectangle" fill="url(#linearGradient-2)" points="47.7658537 112.078236 106.726829 112.078236 106.726829 152.154696 77.2463415 140.575047 47.7658537 152.154696"></polygon>
                    <ellipse id="Oval" stroke="url(#linearGradient-4)" stroke-width="5" fill="url(#linearGradient-3)" cx="76.8731707" cy="68.9450967" rx="59.4463415" ry="53.539118"></ellipse>
                    <ellipse id="Oval" fill="url(#linearGradient-5)" cx="76.8731707" cy="69.2847277" rx="52.2439024" ry="46.1898185"></ellipse>
                    <ellipse id="Oval" stroke="url(#linearGradient-7)" stroke-width="3" fill="url(#linearGradient-6)" cx="77.2463415" cy="69.2847277" rx="42.9073171" ry="39.2557222"></ellipse>
                </g>
                <g id="divided-pedals-crown" transform="translate(36.867470, 37.601448)">
                    <g id="divided-pedals-left-crown" transform="translate(0.000000, 0.172105)">
                        <path d="M24.647749,1.6102501 C25.3876867,2.65456503 25.6877825,3.95077514 25.5688925,5.49081764 C25.4413693,7.14269066 24.855885,8.79048044 23.8220734,10.4369315 C23.1320151,9.19564615 22.8497486,7.79857271 22.9695,6.24737193 C23.0970501,4.59515037 23.6580338,3.04986677 24.647749,1.6102501 Z" id="Oval" stroke="url(#linearGradient-8)" transform="translate(24.268443, 6.074668) rotate(44.000000) translate(-24.268443, -6.074668) "></path>
                        <path d="M16.4665946,6.19798849 C17.2881474,7.20685583 17.6454575,8.45557246 17.5534121,9.93803373 C17.4554931,11.5150926 16.8713044,13.0806736 15.8140286,14.6388896 C15.0419453,13.437605 14.7031474,12.0899947 14.7958708,10.5966145 C14.8936787,9.0213431 15.4530832,7.55598028 16.4665946,6.19798849 Z" id="Oval" stroke="url(#linearGradient-9)" transform="translate(16.174247, 10.462749) rotate(25.000000) translate(-16.174247, -10.462749) "></path>
                        <path d="M20.6531644,8.68965514 C21.3584234,9.81151044 21.6563518,11.1853367 21.5653137,12.8043543 C21.4685796,14.5246712 20.9490235,16.2319983 20.0130536,17.9278022 C19.3511787,16.6035736 19.0686604,15.1262947 19.1602534,13.4974087 C19.2570251,11.7764251 19.7551121,10.1738127 20.6531644,8.68965514 Z" id="Oval" stroke="url(#linearGradient-10)" transform="translate(20.362339, 13.366458) rotate(65.000000) translate(-20.362339, -13.366458) "></path>
                        <path d="M10.8739945,10.9778184 C11.8206934,12.0217895 12.2954724,13.2792283 12.2997722,14.7494922 C12.3041645,16.2635388 11.8135857,17.7392551 10.8420704,19.1805327 C9.93492411,17.946592 9.4760275,16.5913768 9.47170221,15.1126335 C9.46732672,13.6041464 9.93685398,12.2265387 10.8739945,10.9778184 Z" id="Oval" stroke="url(#linearGradient-11)" transform="translate(10.885737, 15.118771) rotate(-1.000000) translate(-10.885737, -15.118771) "></path>
                        <path d="M7.33440855,17.9092577 C8.32248112,19.0050517 8.84818341,20.302635 8.91009335,21.8026497 C8.97267235,23.3188752 8.55327313,24.7818791 7.66290198,26.1944527 C6.70714034,24.907155 6.19436876,23.5113623 6.13216537,22.0042376 C6.06988513,20.4952506 6.47119049,19.1304146 7.33440855,17.9092577 Z" id="Oval" stroke="url(#linearGradient-12)" transform="translate(7.521029, 22.092007) rotate(-15.000000) translate(-7.521029, -22.092007) "></path>
                        <path d="M5.37940379,23.6058609 C6.37370747,24.7690613 6.9260899,26.1281049 7.03584617,27.6833112 C7.14527466,29.2338729 6.79742177,30.71945 5.99845416,32.1411052 C5.02968847,30.7827164 4.48707679,29.3242373 4.37691435,27.7632759 C4.26806147,26.2208703 4.60093909,24.8346443 5.37940379,23.6058609 Z" id="Oval" stroke="url(#linearGradient-13)" transform="translate(5.706131, 27.917055) rotate(-31.000000) translate(-5.706131, -27.917055) "></path>
                        <path d="M12.3206834,24.7058745 C13.1727038,25.7140189 13.5557678,26.9563428 13.4814557,28.4280116 C13.4028665,29.9843865 12.8322164,31.5242028 11.7835142,33.0518126 C10.9794226,31.8523187 10.6146557,30.5115149 10.6894999,29.0293084 C10.7679573,27.4755445 11.3143381,26.0352536 12.3206834,24.7058745 Z" id="Oval" stroke="url(#linearGradient-14)" transform="translate(12.085236, 28.921409) rotate(19.000000) translate(-12.085236, -28.921409) "></path>
                        <path d="M5.43854576,29.7971771 C6.41855662,30.9907237 6.96905081,32.3806928 7.09052236,33.9668625 C7.21131438,35.5441589 6.88852765,37.0535999 6.12646252,38.4960965 C5.16961213,37.10499 4.62766938,35.6146002 4.50578124,34.0229906 C4.38560801,32.4537742 4.69461741,31.044599 5.43854576,29.7971771 Z" id="Oval" stroke="url(#linearGradient-15)" transform="translate(5.797867, 34.192535) rotate(-39.000000) translate(-5.797867, -34.192535) "></path>
                        <path d="M12.3865558,35.1391459 C13.3514218,36.1998641 13.8466858,37.4693677 13.872294,38.9476808 C13.8984787,40.4592763 13.4330498,41.926924 12.4891933,43.3542931 C11.5613089,42.1032893 11.0809441,40.7359473 11.0551981,39.2496784 C11.0291215,37.7443227 11.4745265,36.3747043 12.3865558,35.1391459 Z" id="Oval" stroke="url(#linearGradient-16)" transform="translate(12.463726, 39.286261) rotate(-6.000000) translate(-12.463726, -39.286261) "></path>
                        <path d="M18.5054747,42.6015403 C19.4997784,43.7647407 20.0521608,45.1237842 20.1619171,46.6789905 C20.2713456,48.2295522 19.9234927,49.7151293 19.1245251,51.1367845 C18.1557594,49.7783958 17.6131477,48.3199166 17.5029853,46.7589552 C17.3941324,45.2165496 17.72701,43.8303237 18.5054747,42.6015403 Z" id="Oval" stroke="url(#linearGradient-13)" transform="translate(18.832202, 46.912734) rotate(-31.000000) translate(-18.832202, -46.912734) "></path>
                        <path d="M11.9301169,42.5692678 C12.8299547,43.8121104 13.3308461,45.262943 13.4372913,46.9198648 C13.5438759,48.5789562 13.2379343,50.1733844 12.5216799,51.7035329 C11.6438735,50.2573905 11.1505975,48.7034881 11.043804,47.0411448 C10.9376266,45.3883917 11.2309615,43.8970246 11.9301169,42.5692678 Z" id="Oval" stroke="url(#linearGradient-17)" transform="translate(12.240299, 47.189508) rotate(-60.000000) translate(-12.240299, -47.189508) "></path>
                        <path d="M14.033101,47.4812773 C14.7947545,48.6970364 15.1720957,50.1479359 15.176294,51.8297433 C15.1806294,53.566494 14.7862648,55.2638293 13.9966525,56.9225407 C13.2663134,55.5007305 12.9000379,53.9450018 12.8958215,52.2559499 C12.8914912,50.5212749 13.2697497,48.9294556 14.033101,47.4812773 Z" id="Oval" stroke="url(#linearGradient-18)" transform="translate(14.036057, 52.261885) rotate(-89.000000) translate(-14.036057, -52.261885) "></path>
                        <path d="M21.1581746,50.0625396 C21.8812898,51.2395194 22.2132369,52.6612545 22.1684938,54.3223939 C22.1216144,56.0628434 21.6688115,57.7770333 20.8146997,59.4655851 C20.1286158,58.0836814 19.8098502,56.5574587 19.8548193,54.8879275 C19.9016845,53.1480026 20.3358783,51.5393577 21.1581746,50.0625396 Z" id="Oval" stroke="url(#linearGradient-19)" transform="translate(21.011560, 54.824155) rotate(-101.000000) translate(-21.011560, -54.824155) "></path>
                        <path d="M27.909343,47.7819466 C28.8186947,49.0224892 29.3266361,50.4694266 29.4372593,52.1210176 C29.5478778,53.772539 29.2435143,55.3584268 28.526511,56.8785887 C27.6390556,55.4352568 27.1387171,53.8855475 27.0277398,52.2286704 C26.9175692,50.583836 27.2093104,49.1008492 27.909343,47.7819466 Z" id="Oval" stroke="url(#linearGradient-20)" transform="translate(28.232239, 52.382794) rotate(-58.000000) translate(-28.232239, -52.382794) "></path>
                        <path d="M35.083162,48.3194931 C36.0350705,49.5405609 36.5715182,50.9614353 36.6946264,52.581184 C36.8171257,54.1929226 36.5107246,55.73627 35.7783499,57.2118882 C34.8482248,55.7906209 34.3195301,54.2681828 34.1960237,52.643194 C34.0741038,51.0390781 34.3676001,49.5972152 35.083162,48.3194931 Z" id="Oval" stroke="url(#linearGradient-21)" transform="translate(35.445033, 52.814652) rotate(-48.000000) translate(-35.445033, -52.814652) "></path>
                        <path d="M34.0987276,54.5352728 C34.8116358,55.6174649 35.1020858,56.9533962 34.9905006,58.5354005 C34.8711507,60.2274902 34.3129164,61.9129003 33.3236867,63.5935633 C32.6580499,62.3114977 32.3843821,60.8733593 32.4967112,59.280808 C32.6161094,57.588035 33.1510666,56.0065263 34.0987276,54.5352728 Z" id="Oval" stroke="url(#linearGradient-22)" transform="translate(33.742926, 59.119427) rotate(-125.000000) translate(-33.742926, -59.119427) "></path>
                        <path d="M26.6834364,53.7356673 C27.3914087,54.8778046 27.69863,56.2699467 27.6221366,57.9058242 C27.541225,59.636186 27.0444385,61.3492812 26.1374799,63.046234 C25.4707902,61.7007079 25.1782599,60.2047131 25.2551877,58.559548 C25.3361132,56.8288859 25.8123864,55.2209302 26.6834364,53.7356673 Z" id="Oval" stroke="url(#linearGradient-23)" transform="translate(26.438357, 58.449867) rotate(-110.000000) translate(-26.438357, -58.449867) "></path>
                        <path d="M5.77682647,36.0494939 C6.68151222,37.2912845 7.18600885,38.7402725 7.29461242,40.3946364 C7.40327649,42.049922 7.0982252,43.6400461 6.38168246,45.1652607 C5.49901304,43.7204516 5.0021539,42.1685862 4.89320285,40.508929 C4.78497015,38.8602145 5.07738756,37.3731134 5.77682647,36.0494939 Z" id="Oval" stroke="url(#linearGradient-24)" transform="translate(6.093653, 40.660262) rotate(-59.000000) translate(-6.093653, -40.660262) "></path>
                        <path d="M15.3321605,16.33384 C16.0601015,17.3908495 16.3544836,18.7008706 16.2362957,20.2558829 C16.1095767,21.9231402 15.531853,23.585948 14.5120804,25.2468363 C13.8332228,23.9917682 13.55631,22.5803524 13.6753377,21.0142903 C13.8021016,19.3464424 14.3557093,17.7866261 15.3321605,16.33384 Z" id="Oval" stroke="url(#linearGradient-25)" transform="translate(14.955062, 20.842833) rotate(48.000000) translate(-14.955062, -20.842833) "></path>
                    </g>
                    <g id="divided-pedals-right-crown" transform="translate(59.634508, 32.382631) scale(-1, 1) translate(-59.634508, -32.382631) translate(39.082269, 0.172105)">
                        <path d="M24.647749,1.6102501 C25.3876867,2.65456503 25.6877825,3.95077514 25.5688925,5.49081764 C25.4413693,7.14269066 24.855885,8.79048044 23.8220734,10.4369315 C23.1320151,9.19564615 22.8497486,7.79857271 22.9695,6.24737193 C23.0970501,4.59515037 23.6580338,3.04986677 24.647749,1.6102501 Z" id="Oval" stroke="url(#linearGradient-8)" transform="translate(24.268443, 6.074668) rotate(44.000000) translate(-24.268443, -6.074668) "></path>
                        <path d="M16.4665946,6.19798849 C17.2881474,7.20685583 17.6454575,8.45557246 17.5534121,9.93803373 C17.4554931,11.5150926 16.8713044,13.0806736 15.8140286,14.6388896 C15.0419453,13.437605 14.7031474,12.0899947 14.7958708,10.5966145 C14.8936787,9.0213431 15.4530832,7.55598028 16.4665946,6.19798849 Z" id="Oval" stroke="url(#linearGradient-9)" transform="translate(16.174247, 10.462749) rotate(25.000000) translate(-16.174247, -10.462749) "></path>
                        <path d="M20.6531644,8.68965514 C21.3584234,9.81151044 21.6563518,11.1853367 21.5653137,12.8043543 C21.4685796,14.5246712 20.9490235,16.2319983 20.0130536,17.9278022 C19.3511787,16.6035736 19.0686604,15.1262947 19.1602534,13.4974087 C19.2570251,11.7764251 19.7551121,10.1738127 20.6531644,8.68965514 Z" id="Oval" stroke="url(#linearGradient-10)" transform="translate(20.362339, 13.366458) rotate(65.000000) translate(-20.362339, -13.366458) "></path>
                        <path d="M10.8740003,10.9778204 C11.8207107,12.0217909 12.2954959,13.2792289 12.2997958,14.7494922 C12.3041881,16.2635382 11.8136031,17.7392537 10.8422518,19.1807877 C9.93496926,17.9467788 9.47600339,16.5914788 9.47167775,15.1126335 C9.46730222,13.6041471 9.93683545,12.2265401 10.8740003,10.9778204 Z" id="Oval" stroke="url(#linearGradient-26)" transform="translate(10.885737, 15.118771) rotate(-1.000000) translate(-10.885737, -15.118771) "></path>
                        <path d="M7.33440855,17.9092577 C8.32248112,19.0050517 8.84818341,20.302635 8.91009335,21.8026497 C8.97267235,23.3188752 8.55327313,24.7818791 7.66290198,26.1944527 C6.70714034,24.907155 6.19436876,23.5113623 6.13216537,22.0042376 C6.06988513,20.4952506 6.47119049,19.1304146 7.33440855,17.9092577 Z" id="Oval" stroke="url(#linearGradient-12)" transform="translate(7.521029, 22.092007) rotate(-15.000000) translate(-7.521029, -22.092007) "></path>
                        <path d="M5.37940379,23.6058609 C6.37370747,24.7690613 6.9260899,26.1281049 7.03584617,27.6833112 C7.14527466,29.2338729 6.79742177,30.71945 5.99845416,32.1411052 C5.02968847,30.7827164 4.48707679,29.3242373 4.37691435,27.7632759 C4.26806147,26.2208703 4.60093909,24.8346443 5.37940379,23.6058609 Z" id="Oval" stroke="url(#linearGradient-13)" transform="translate(5.706131, 27.917055) rotate(-31.000000) translate(-5.706131, -27.917055) "></path>
                        <path d="M12.3206834,24.7058745 C13.1727038,25.7140189 13.5557678,26.9563428 13.4814557,28.4280116 C13.4028665,29.9843865 12.8322164,31.5242028 11.7835142,33.0518126 C10.9794226,31.8523187 10.6146557,30.5115149 10.6894999,29.0293084 C10.7679573,27.4755445 11.3143381,26.0352536 12.3206834,24.7058745 Z" id="Oval" stroke="url(#linearGradient-14)" transform="translate(12.085236, 28.921409) rotate(19.000000) translate(-12.085236, -28.921409) "></path>
                        <path d="M5.43854576,29.7971771 C6.41855662,30.9907237 6.96905081,32.3806928 7.09052236,33.9668625 C7.21131438,35.5441589 6.88852765,37.0535999 6.12646252,38.4960965 C5.16961213,37.10499 4.62766938,35.6146002 4.50578124,34.0229906 C4.38560801,32.4537742 4.69461741,31.044599 5.43854576,29.7971771 Z" id="Oval" stroke="url(#linearGradient-15)" transform="translate(5.797867, 34.192535) rotate(-39.000000) translate(-5.797867, -34.192535) "></path>
                        <path d="M12.3865558,35.1391459 C13.3514218,36.1998641 13.8466858,37.4693677 13.872294,38.9476808 C13.8984787,40.4592763 13.4330498,41.926924 12.4891933,43.3542931 C11.5613089,42.1032893 11.0809441,40.7359473 11.0551981,39.2496784 C11.0291215,37.7443227 11.4745265,36.3747043 12.3865558,35.1391459 Z" id="Oval" stroke="url(#linearGradient-16)" transform="translate(12.463726, 39.286261) rotate(-6.000000) translate(-12.463726, -39.286261) "></path>
                        <path d="M18.5054747,42.6015403 C19.4997784,43.7647407 20.0521608,45.1237842 20.1619171,46.6789905 C20.2713456,48.2295522 19.9234927,49.7151293 19.1245251,51.1367845 C18.1557594,49.7783958 17.6131477,48.3199166 17.5029853,46.7589552 C17.3941324,45.2165496 17.72701,43.8303237 18.5054747,42.6015403 Z" id="Oval" stroke="url(#linearGradient-13)" transform="translate(18.832202, 46.912734) rotate(-31.000000) translate(-18.832202, -46.912734) "></path>
                        <path d="M11.9301169,42.5692678 C12.8299547,43.8121104 13.3308461,45.262943 13.4372913,46.9198648 C13.5438759,48.5789562 13.2379343,50.1733844 12.5216799,51.7035329 C11.6438735,50.2573905 11.1505975,48.7034881 11.043804,47.0411448 C10.9376266,45.3883917 11.2309615,43.8970246 11.9301169,42.5692678 Z" id="Oval" stroke="url(#linearGradient-17)" transform="translate(12.240299, 47.189508) rotate(-60.000000) translate(-12.240299, -47.189508) "></path>
                        <path d="M14.0331096,47.4812806 C14.794775,48.6970389 15.1721224,50.1479375 15.1763207,51.8297438 C15.1806562,53.5664936 14.7862853,55.2638281 13.9966432,56.9225386 C13.2662926,55.5007291 12.9000112,53.9450014 12.8957947,52.2559504 C12.8914644,50.5212764 13.269729,48.929458 14.0331096,47.4812806 Z" id="Oval" stroke="url(#linearGradient-27)" transform="translate(14.036057, 52.261885) rotate(-89.000000) translate(-14.036057, -52.261885) "></path>
                        <path d="M21.1581746,50.0625396 C21.8812898,51.2395194 22.2132369,52.6612545 22.1684938,54.3223939 C22.1216144,56.0628434 21.6688115,57.7770333 20.8146997,59.4655851 C20.1286158,58.0836814 19.8098502,56.5574587 19.8548193,54.8879275 C19.9016845,53.1480026 20.3358783,51.5393577 21.1581746,50.0625396 Z" id="Oval" stroke="url(#linearGradient-19)" transform="translate(21.011560, 54.824155) rotate(-101.000000) translate(-21.011560, -54.824155) "></path>
                        <path d="M27.909343,47.7819466 C28.8186947,49.0224892 29.3266361,50.4694266 29.4372593,52.1210176 C29.5478778,53.772539 29.2435143,55.3584268 28.526511,56.8785887 C27.6390556,55.4352568 27.1387171,53.8855475 27.0277398,52.2286704 C26.9175692,50.583836 27.2093104,49.1008492 27.909343,47.7819466 Z" id="Oval" stroke="url(#linearGradient-20)" transform="translate(28.232239, 52.382794) rotate(-58.000000) translate(-28.232239, -52.382794) "></path>
                        <path d="M35.083162,48.3194931 C36.0350705,49.5405609 36.5715182,50.9614353 36.6946264,52.581184 C36.8171257,54.1929226 36.5107246,55.73627 35.7783499,57.2118882 C34.8482248,55.7906209 34.3195301,54.2681828 34.1960237,52.643194 C34.0741038,51.0390781 34.3676001,49.5972152 35.083162,48.3194931 Z" id="Oval" stroke="url(#linearGradient-21)" transform="translate(35.445033, 52.814652) rotate(-48.000000) translate(-35.445033, -52.814652) "></path>
                        <path d="M34.0987276,54.5352728 C34.8116358,55.6174649 35.1020858,56.9533962 34.9905006,58.5354005 C34.8711507,60.2274902 34.3129164,61.9129003 33.3236867,63.5935633 C32.6580499,62.3114977 32.3843821,60.8733593 32.4967112,59.280808 C32.6161094,57.588035 33.1510666,56.0065263 34.0987276,54.5352728 Z" id="Oval" stroke="url(#linearGradient-22)" transform="translate(33.742926, 59.119427) rotate(-125.000000) translate(-33.742926, -59.119427) "></path>
                        <path d="M26.6834364,53.7356673 C27.3914087,54.8778046 27.69863,56.2699467 27.6221366,57.9058242 C27.541225,59.636186 27.0444385,61.3492812 26.1374799,63.046234 C25.4707902,61.7007079 25.1782599,60.2047131 25.2551877,58.559548 C25.3361132,56.8288859 25.8123864,55.2209302 26.6834364,53.7356673 Z" id="Oval" stroke="url(#linearGradient-23)" transform="translate(26.438357, 58.449867) rotate(-110.000000) translate(-26.438357, -58.449867) "></path>
                        <path d="M5.77682647,36.0494939 C6.68151222,37.2912845 7.18600885,38.7402725 7.29461242,40.3946364 C7.40327649,42.049922 7.0982252,43.6400461 6.38168246,45.1652607 C5.49901304,43.7204516 5.0021539,42.1685862 4.89320285,40.508929 C4.78497015,38.8602145 5.07738756,37.3731134 5.77682647,36.0494939 Z" id="Oval" stroke="url(#linearGradient-24)" transform="translate(6.093653, 40.660262) rotate(-59.000000) translate(-6.093653, -40.660262) "></path>
                        <path d="M15.3321605,16.33384 C16.0601015,17.3908495 16.3544836,18.7008706 16.2362957,20.2558829 C16.1095767,21.9231402 15.531853,23.585948 14.5120804,25.2468363 C13.8332228,23.9917682 13.55631,22.5803524 13.6753377,21.0142903 C13.8021016,19.3464424 14.3557093,17.7866261 15.3321605,16.33384 Z" id="Oval" stroke="url(#linearGradient-25)" transform="translate(14.955062, 20.842833) rotate(48.000000) translate(-14.955062, -20.842833) "></path>
                    </g>
                    <path d="M40.4680779,1.00093226 L42.5820041,4.66691039 L47.1032744,5.22920596 L43.8393985,7.95218367 L44.6322428,11.9086088 L40.4680779,10.0348885 L36.303913,11.9086088 L37.0967573,7.95218367 L33.8328815,5.22920596 L38.3541517,4.66691039 L40.4680779,1.00093226 Z" id="Star" stroke="url(#linearGradient-28)"></path>
                </g>
                <path d="M57.7250735,70.8306344 C58.0004735,70.8306344 58.2359718,70.7346117 58.4315684,70.5425661 C58.627165,70.3505206 58.7249633,70.1231782 58.7249633,69.8605389 L58.7249633,69.8605389 L58.7249633,69.6145992 C58.7249633,69.3701777 58.627165,69.1416966 58.4315684,68.9291561 L58.4315684,68.9291561 L57.3706524,67.7723287 C57.2720717,67.6660584 57.2227814,67.5521974 57.2227814,67.4307457 C57.2227814,67.2683041 57.2673774,67.1460933 57.3565695,67.0641134 C57.4457615,66.9821335 57.5779848,66.9411436 57.7532394,66.9411436 C58.0255098,66.9411436 58.1835519,67.1035852 58.2273655,67.4284685 L58.2273655,67.4284685 L58.7249633,67.4284685 C58.6842792,66.7817382 58.3509826,66.458373 57.7250735,66.458373 L57.7250735,66.458373 L57.2227814,66.458373 C56.9473814,66.458373 56.7118831,66.5540162 56.5162865,66.7453027 C56.3206899,66.9365891 56.2228916,67.1643111 56.2228916,67.4284685 L56.2228916,67.4284685 L56.2228916,67.6744082 C56.2228916,67.9203479 56.3206899,68.1488289 56.5162865,68.3598513 L56.5162865,68.3598513 L57.5772024,69.5121243 C57.6757831,69.6168764 57.7250735,69.7307374 57.7250735,69.8537073 C57.7250735,70.0131126 57.6859541,70.1345643 57.6077155,70.2180624 C57.5294769,70.3015604 57.4011655,70.3433094 57.2227814,70.3433094 C57.0975996,70.3433094 56.9825888,70.3091511 56.877749,70.2408346 C56.7729092,70.172518 56.7204893,70.0723203 56.7204893,69.9402416 C56.7204893,69.9205057 56.7220541,69.8939381 56.7251836,69.8605389 L56.7251836,69.8605389 L56.2228916,69.8605389 C56.2228916,70.1823859 56.3066069,70.4245303 56.4740376,70.5869719 C56.6414683,70.7494136 56.8910496,70.8306344 57.2227814,70.8306344 L57.2227814,70.8306344 L57.7250735,70.8306344 Z M60.7294373,70.8306344 L60.7294373,68.885889 L61.7340214,68.885889 C62.0078566,68.885889 62.2429638,68.7906253 62.4393427,68.6000979 C62.6357217,68.4095706 62.7339112,68.1814691 62.7339112,67.9157935 L62.7339112,67.9157935 L62.7339112,67.4284685 C62.7339112,67.1643111 62.6357217,66.9365891 62.4393427,66.7453027 C62.2429638,66.5540162 62.0078566,66.458373 61.7340214,66.458373 L61.7340214,66.458373 L59.7295474,66.458373 L59.7295474,70.8306344 L60.7294373,70.8306344 Z M61.2317293,68.4031185 L60.7294373,68.4031185 L60.7294373,66.945698 L61.2317293,66.945698 C61.3678646,66.945698 61.4856137,66.9931401 61.5849768,67.0880242 C61.6843399,67.1829084 61.7340214,67.2963898 61.7340214,67.4284685 L61.7340214,67.4284685 L61.7340214,67.9157935 C61.7340214,68.0478722 61.6843399,68.1621127 61.5849768,68.258515 C61.4856137,68.3549173 61.3678646,68.4031185 61.2317293,68.4031185 L61.2317293,68.4031185 Z M66.2358728,70.8306344 L66.2358728,70.3433094 L64.7336909,70.3433094 L64.7336909,68.885889 L65.738275,68.885889 L65.738275,68.4031185 L64.7336909,68.4031185 L64.7336909,66.945698 L66.2358728,66.945698 L66.2358728,66.458373 L63.733801,66.458373 L63.733801,70.8306344 L66.2358728,70.8306344 Z M69.2449309,70.8306344 C69.8677105,70.8306344 70.2010071,70.5072692 70.2448207,69.8605389 L70.2448207,69.8605389 L69.7425286,69.8605389 C69.7049741,70.1823859 69.5391082,70.3433094 69.2449309,70.3433094 L69.2449309,70.3433094 L68.7426388,70.3433094 C68.603374,70.3433094 68.4848425,70.2954878 68.3870442,70.1998446 C68.2892459,70.1042014 68.2403467,69.9910995 68.2403467,69.8605389 L68.2403467,69.8605389 L68.2403467,67.4284685 C68.2403467,67.2963898 68.2896371,67.1829084 68.3882178,67.0880242 C68.4867984,66.9931401 68.6049388,66.945698 68.7426388,66.945698 L68.7426388,66.945698 L69.2449309,66.945698 C69.5375434,66.945698 69.7034093,67.1066215 69.7425286,67.4284685 L69.7425286,67.4284685 L70.2448207,67.4284685 C70.2072662,66.7817382 69.8739695,66.458373 69.2449309,66.458373 L69.2449309,66.458373 L68.2403467,66.458373 C67.9602524,66.458373 67.7235805,66.5547753 67.5303311,66.7475799 C67.3370816,66.9403845 67.2404569,67.1673474 67.2404569,67.4284685 L67.2404569,67.4284685 L67.2404569,69.8605389 C67.2404569,70.1262145 67.3386464,70.354316 67.5350254,70.5448434 C67.7314044,70.7353707 67.9665115,70.8306344 68.2403467,70.8306344 L68.2403467,70.8306344 L69.2449309,70.8306344 Z M72.7468924,70.8306344 L72.7468924,66.945698 L73.7467822,66.945698 L73.7467822,66.458373 L70.7424185,66.458373 L70.7424185,66.945698 L71.7423083,66.945698 L71.7423083,70.8306344 L72.7468924,70.8306344 Z M75.2489641,70.8306344 L75.2489641,68.885889 L76.2535483,68.885889 L76.2535483,70.8306344 L77.2534381,70.8306344 L77.2534381,67.4284685 C77.2534381,67.1643111 77.1552486,66.9365891 76.9588696,66.7453027 C76.7624906,66.5540162 76.5273835,66.458373 76.2535483,66.458373 L76.2535483,66.458373 L75.2489641,66.458373 C74.9751289,66.458373 74.7400218,66.5536367 74.5436428,66.7441641 C74.3472638,66.9346914 74.2490743,67.1627929 74.2490743,67.4284685 L74.2490743,67.4284685 L74.2490743,70.8306344 L75.2489641,70.8306344 Z M76.2535483,68.4031185 L75.2489641,68.4031185 L75.2489641,67.4284685 C75.2489641,67.2963898 75.2982545,67.1829084 75.3968352,67.0880242 C75.4954159,66.9931401 75.6135562,66.945698 75.7512562,66.945698 C75.8873914,66.945698 76.0051406,66.9931401 76.1045037,67.0880242 C76.2038667,67.1829084 76.2535483,67.2963898 76.2535483,67.4284685 L76.2535483,67.4284685 L76.2535483,68.4031185 Z M80.2578019,70.8306344 C80.8805815,70.8306344 81.2138781,70.5072692 81.2576917,69.8605389 L81.2576917,69.8605389 L80.7553997,69.8605389 C80.7178451,70.1823859 80.5519792,70.3433094 80.2578019,70.3433094 L80.2578019,70.3433094 L79.7555098,70.3433094 C79.616245,70.3433094 79.4977135,70.2954878 79.3999152,70.1998446 C79.3021169,70.1042014 79.2532178,69.9910995 79.2532178,69.8605389 L79.2532178,69.8605389 L79.2532178,67.4284685 C79.2532178,67.2963898 79.3025081,67.1829084 79.4010888,67.0880242 C79.4996695,66.9931401 79.6178098,66.945698 79.7555098,66.945698 L79.7555098,66.945698 L80.2578019,66.945698 C80.5504144,66.945698 80.7162803,67.1066215 80.7553997,67.4284685 L80.7553997,67.4284685 L81.2576917,67.4284685 C81.2201372,66.7817382 80.8868406,66.458373 80.2578019,66.458373 L80.2578019,66.458373 L79.2532178,66.458373 C78.9731234,66.458373 78.7364515,66.5547753 78.5432021,66.7475799 C78.3499527,66.9403845 78.2533279,67.1673474 78.2533279,67.4284685 L78.2533279,67.4284685 L78.2533279,69.8605389 C78.2533279,70.1262145 78.3515174,70.354316 78.5478964,70.5448434 C78.7442754,70.7353707 78.9793825,70.8306344 79.2532178,70.8306344 L79.2532178,70.8306344 L80.2578019,70.8306344 Z M84.2620555,70.8306344 C84.5358908,70.8306344 84.7709979,70.7346117 84.9673769,70.5425661 C85.1637558,70.3505206 85.2619453,70.1231782 85.2619453,69.8605389 L85.2619453,69.8605389 L85.2619453,66.458373 L84.2620555,66.458373 L84.2620555,69.8605389 C84.2620555,69.9910995 84.2131564,70.1042014 84.1153581,70.1998446 C84.0175598,70.2954878 83.8990282,70.3433094 83.7597634,70.3433094 C83.6204987,70.3433094 83.5019671,70.2954878 83.4041688,70.1998446 C83.3063705,70.1042014 83.2574714,69.9910995 83.2574714,69.8605389 L83.2574714,69.8605389 L83.2574714,66.458373 L82.2575815,66.458373 L82.2575815,69.8605389 C82.2575815,70.1262145 82.355771,70.354316 82.55215,70.5448434 C82.748529,70.7353707 82.9836361,70.8306344 83.2574714,70.8306344 L83.2574714,70.8306344 L84.2620555,70.8306344 Z M88.7639069,70.8306344 L88.7639069,70.3433094 L87.261725,70.3433094 L87.261725,66.458373 L86.2618352,66.458373 L86.2618352,70.8306344 L88.7639069,70.8306344 Z M90.7683809,70.8306344 L90.7683809,68.885889 L91.772965,68.885889 L91.772965,70.8306344 L92.7728548,70.8306344 L92.7728548,67.4284685 C92.7728548,67.1643111 92.6746653,66.9365891 92.4782863,66.7453027 C92.2819073,66.5540162 92.0468002,66.458373 91.772965,66.458373 L91.772965,66.458373 L90.7683809,66.458373 C90.4945456,66.458373 90.2594385,66.5536367 90.0630595,66.7441641 C89.8666805,66.9346914 89.768491,67.1627929 89.768491,67.4284685 L89.768491,67.4284685 L89.768491,70.8306344 L90.7683809,70.8306344 Z M91.772965,68.4031185 L90.7683809,68.4031185 L90.7683809,67.4284685 C90.7683809,67.2963898 90.8176712,67.1829084 90.9162519,67.0880242 C91.0148326,66.9931401 91.1329729,66.945698 91.2706729,66.945698 C91.4068082,66.945698 91.5245573,66.9931401 91.6239204,67.0880242 C91.7232835,67.1829084 91.772965,67.2963898 91.772965,67.4284685 L91.772965,67.4284685 L91.772965,68.4031185 Z M94.7726345,70.8306344 L94.7726345,68.885889 L95.2749265,68.885889 C95.4110618,68.885889 95.5288109,68.9337106 95.628174,69.0293538 C95.7275371,69.124997 95.7772186,69.2396171 95.7772186,69.3732139 L95.7772186,69.3732139 L95.7772186,70.8306344 L96.7771084,70.8306344 L96.7771084,69.1090565 C96.7771084,68.9754596 96.7278181,68.8608396 96.6292374,68.7651963 C96.5306567,68.6695531 96.4125164,68.6217315 96.2748164,68.6217315 L96.2748164,68.6217315 L95.7772186,68.6217315 C96.1371164,68.6217315 96.3937391,68.5211543 96.5470868,68.3199999 C96.7004346,68.1188456 96.7771084,67.9097209 96.7771084,67.692626 L96.7771084,67.692626 L96.7771084,67.4284685 C96.7771084,67.1643111 96.6789189,66.9365891 96.48254,66.7453027 C96.286161,66.5540162 96.0510539,66.458373 95.7772186,66.458373 L95.7772186,66.458373 L93.7727446,66.458373 L93.7727446,70.8306344 L94.7726345,70.8306344 Z M95.2749265,68.4031185 L94.7726345,68.4031185 L94.7726345,66.945698 L95.2749265,66.945698 C95.4110618,66.945698 95.5288109,66.9931401 95.628174,67.0880242 C95.7275371,67.1829084 95.7772186,67.2963898 95.7772186,67.4284685 L95.7772186,67.4284685 L95.7772186,67.9157935 C95.7772186,68.0478722 95.7275371,68.1621127 95.628174,68.258515 C95.5288109,68.3549173 95.4110618,68.4031185 95.2749265,68.4031185 L95.2749265,68.4031185 Z" id="SPECTACULAR" fill="#D8C282" fill-rule="nonzero"></path>
            </g>
        </g>
    </g>
</svg>