<?xml version="1.0" encoding="UTF-8"?>
<svg width="153px" height="153px" viewBox="0 0 153 153" version="1.1" xmlns="http://www.w3.org/2000/svg" xmlns:xlink="http://www.w3.org/1999/xlink">
    <title>wow-medal</title>
    <defs>
        <linearGradient x1="30.5940456%" y1="91.2117626%" x2="48.1343271%" y2="1.50175637%" id="linearGradient-1">
            <stop stop-color="#E7D493" offset="0%"></stop>
            <stop stop-color="#B08534" offset="100%"></stop>
        </linearGradient>
        <linearGradient x1="25.5177978%" y1="10.2733254%" x2="64.9866547%" y2="95.9887402%" id="linearGradient-2">
            <stop stop-color="#E7D493" offset="0%"></stop>
            <stop stop-color="#B08534" offset="100%"></stop>
        </linearGradient>
        <linearGradient x1="50%" y1="0%" x2="50%" y2="100%" id="linearGradient-3">
            <stop stop-color="#FFFFFF" offset="1.22812978%"></stop>
            <stop stop-color="#989898" offset="98.7004207%"></stop>
        </linearGradient>
        <linearGradient x1="50%" y1="0%" x2="50%" y2="100%" id="linearGradient-4">
            <stop stop-color="#FFFFFF" offset="1.22812978%"></stop>
            <stop stop-color="#989898" offset="98.7004207%"></stop>
        </linearGradient>
        <linearGradient x1="50%" y1="0%" x2="50%" y2="100%" id="linearGradient-5">
            <stop stop-color="#FFFFFF" offset="1.22812978%"></stop>
            <stop stop-color="#989898" offset="98.7004207%"></stop>
        </linearGradient>
        <linearGradient x1="50%" y1="0%" x2="50%" y2="100%" id="linearGradient-6">
            <stop stop-color="#FFFFFF" offset="1.22812978%"></stop>
            <stop stop-color="#989898" offset="98.7004207%"></stop>
        </linearGradient>
        <linearGradient x1="50%" y1="0%" x2="50%" y2="100%" id="linearGradient-7">
            <stop stop-color="#FFFFFF" offset="1.22812978%"></stop>
            <stop stop-color="#989898" offset="98.7004207%"></stop>
        </linearGradient>
        <linearGradient x1="50%" y1="0%" x2="50%" y2="100%" id="linearGradient-8">
            <stop stop-color="#FFFFFF" offset="1.22812978%"></stop>
            <stop stop-color="#989898" offset="98.7004207%"></stop>
        </linearGradient>
        <linearGradient x1="50%" y1="0%" x2="50%" y2="100%" id="linearGradient-9">
            <stop stop-color="#FFFFFF" offset="1.22812978%"></stop>
            <stop stop-color="#989898" offset="98.7004207%"></stop>
        </linearGradient>
        <linearGradient x1="50%" y1="0%" x2="50%" y2="100%" id="linearGradient-10">
            <stop stop-color="#FFFFFF" offset="1.22812978%"></stop>
            <stop stop-color="#989898" offset="98.7004207%"></stop>
        </linearGradient>
        <linearGradient x1="50%" y1="0%" x2="50%" y2="100%" id="linearGradient-11">
            <stop stop-color="#FFFFFF" offset="1.22812978%"></stop>
            <stop stop-color="#989898" offset="98.7004207%"></stop>
        </linearGradient>
        <linearGradient x1="50%" y1="0%" x2="50%" y2="100%" id="linearGradient-12">
            <stop stop-color="#FFFFFF" offset="1.22812978%"></stop>
            <stop stop-color="#989898" offset="98.7004207%"></stop>
        </linearGradient>
        <linearGradient x1="50%" y1="0%" x2="50%" y2="100%" id="linearGradient-13">
            <stop stop-color="#FFFFFF" offset="1.22812978%"></stop>
            <stop stop-color="#989898" offset="98.7004207%"></stop>
        </linearGradient>
        <linearGradient x1="50%" y1="0%" x2="50%" y2="100%" id="linearGradient-14">
            <stop stop-color="#FFFFFF" offset="1.22812978%"></stop>
            <stop stop-color="#989898" offset="98.7004207%"></stop>
        </linearGradient>
        <linearGradient x1="50%" y1="0%" x2="50%" y2="100%" id="linearGradient-15">
            <stop stop-color="#FFFFFF" offset="1.22812978%"></stop>
            <stop stop-color="#989898" offset="98.7004207%"></stop>
        </linearGradient>
        <linearGradient x1="50%" y1="0%" x2="50%" y2="100%" id="linearGradient-16">
            <stop stop-color="#FFFFFF" offset="1.22812978%"></stop>
            <stop stop-color="#989898" offset="98.7004207%"></stop>
        </linearGradient>
        <linearGradient x1="50%" y1="0%" x2="50%" y2="100%" id="linearGradient-17">
            <stop stop-color="#FFFFFF" offset="1.22812978%"></stop>
            <stop stop-color="#989898" offset="98.7004207%"></stop>
        </linearGradient>
        <linearGradient x1="50%" y1="0%" x2="50%" y2="100%" id="linearGradient-18">
            <stop stop-color="#FFFFFF" offset="1.22812978%"></stop>
            <stop stop-color="#989898" offset="98.7004207%"></stop>
        </linearGradient>
        <linearGradient x1="50%" y1="0%" x2="50%" y2="100%" id="linearGradient-19">
            <stop stop-color="#FFFFFF" offset="1.22812978%"></stop>
            <stop stop-color="#989898" offset="98.7004207%"></stop>
        </linearGradient>
        <linearGradient x1="50%" y1="0%" x2="50%" y2="100%" id="linearGradient-20">
            <stop stop-color="#FFFFFF" offset="1.22812978%"></stop>
            <stop stop-color="#989898" offset="98.7004207%"></stop>
        </linearGradient>
        <linearGradient x1="50%" y1="0%" x2="50%" y2="100%" id="linearGradient-21">
            <stop stop-color="#FFFFFF" offset="1.22812978%"></stop>
            <stop stop-color="#989898" offset="98.7004207%"></stop>
        </linearGradient>
        <linearGradient x1="50%" y1="0%" x2="50%" y2="100%" id="linearGradient-22">
            <stop stop-color="#FFFFFF" offset="1.22812978%"></stop>
            <stop stop-color="#989898" offset="98.7004207%"></stop>
        </linearGradient>
        <linearGradient x1="17.1663962%" y1="48.5256634%" x2="93.5968664%" y2="48.5256634%" id="linearGradient-23">
            <stop stop-color="#B08534" offset="0%"></stop>
            <stop stop-color="#E7D493" offset="47.4564986%"></stop>
            <stop stop-color="#B08534" offset="100%"></stop>
        </linearGradient>
        <linearGradient x1="4.81166992%" y1="46.136862%" x2="88.4511397%" y2="54.414355%" id="linearGradient-24">
            <stop stop-color="#E7D493" offset="0%"></stop>
            <stop stop-color="#B08534" offset="100%"></stop>
        </linearGradient>
        <linearGradient x1="25.3583033%" y1="10.2733254%" x2="76.6454032%" y2="92.3669228%" id="linearGradient-25">
            <stop stop-color="#E7D493" offset="0%"></stop>
            <stop stop-color="#B08534" offset="100%"></stop>
        </linearGradient>
    </defs>
    <g id="Page-1" stroke="none" stroke-width="1" fill="none" fill-rule="evenodd">
        <g id="plans-great" transform="translate(-769.000000, -186.000000)">
            <g id="wow-medal" transform="translate(769.000000, 186.000000)">
                <g id="wow-medal-circle" transform="translate(8.883871, 0.000000)">
                    <path d="M67.4475372,0 C71.4748215,0 75.3200615,1.9521317 78.8406394,5.49919731 C85.4501822,6.6804889 91.7306579,8.90537102 97.530591,12.0103511 C102.603519,11.1898201 107.018955,11.9819444 110.423636,14.6105863 C113.986989,17.3617348 116.092061,21.8534822 116.844762,27.5959222 C119.848363,31.0889271 122.530218,34.9042221 124.842281,38.9874309 C130.043391,41.2472648 133.702867,44.6199893 135.315921,49.0854403 C136.982393,53.6987666 136.291297,58.9984607 133.642639,64.5731506 C134.208675,68.3328761 134.503972,72.1909983 134.503972,76.1231527 C134.503972,94.7892571 127.849619,111.787088 116.948345,124.532526 C116.299074,130.69265 114.16529,135.500605 110.423636,138.389414 C106.781696,141.201236 101.98322,141.911662 96.4613743,140.796599 C91.2179341,143.477833 85.5974696,145.446902 79.7083573,146.586204 C75.9553489,150.711342 71.8081565,153 67.4475372,153 C63.0260648,153 58.8240175,150.647019 55.0301239,146.413744 C49.5172789,145.266677 44.2471298,143.391125 39.309636,140.884146 C33.9767125,141.87157 29.338936,141.124955 25.7957967,138.389414 C22.2234094,135.631291 20.1167077,131.123732 19.3689717,125.36038 C16.2761559,121.857363 13.510459,118.019152 11.1233357,113.901793 C6.05600494,111.642111 2.48951225,108.307054 0.902899791,103.914803 C-0.68358588,99.522902 -0.133385621,94.5089394 2.20837285,89.2278507 C1.47590107,84.9793125 1.09326383,80.599197 1.09326383,76.1231527 C1.09326383,56.9770364 8.09426044,39.5860988 19.498277,26.7389867 C20.3426565,21.4063699 22.4115367,17.2234625 25.7957967,14.6105863 C29.0922708,12.0654869 33.3362749,11.2420251 38.2065871,11.9355971 C43.7152755,9.00388346 49.6557211,6.86500823 55.8979018,5.65835611 C59.4616618,2.01012167 63.3608734,0 67.4475372,0 Z" id="Combined-Shape" fill="url(#linearGradient-1)"></path>
                    <ellipse id="Oval" stroke="url(#linearGradient-2)" stroke-width="5" fill="#151B1E" cx="68.4607582" cy="76.5" rx="58.2369804" ry="64.2019704"></ellipse>
                </g>
                <g id="wm-lines" opacity="0.218678792" transform="translate(40.470968, 32.423841)" stroke-linecap="square">
                    <line x1="20.6980402" y1="3.30313135" x2="52.3471211" y2="85.5899623" id="Line" stroke="url(#linearGradient-3)"></line>
                    <line x1="24.5825062" y1="1.48155156" x2="47.7602978" y2="86.6707663" id="Line" stroke="url(#linearGradient-4)"></line>
                    <line x1="28.7966501" y1="0.740775781" x2="43.5461538" y2="88.1523179" id="Line" stroke="url(#linearGradient-5)"></line>
                    <line x1="33.7131514" y1="0" x2="39.3320099" y2="88.1523179" id="Line" stroke="url(#linearGradient-6)"></line>
                    <line x1="37.9272953" y1="0" x2="34.4155087" y2="88.1523179" id="Line" stroke="url(#linearGradient-7)"></line>
                    <line x1="42.8437965" y1="0.740775781" x2="30.2013648" y2="88.1523179" id="Line" stroke="url(#linearGradient-8)"></line>
                    <line x1="47.0579404" y1="1.48155156" x2="25.2848635" y2="87.4115421" id="Line" stroke="url(#linearGradient-9)"></line>
                    <line x1="50.569727" y1="2.96310312" x2="21.7730769" y2="85.9299905" id="Line" stroke="url(#linearGradient-10)"></line>
                    <line x1="55.4862283" y1="4.44465468" x2="16.8565757" y2="83.7076632" id="Line" stroke="url(#linearGradient-11)"></line>
                    <line x1="58.9980149" y1="6.66698202" x2="14.0471464" y2="82.2261116" id="Line" stroke="url(#linearGradient-12)"></line>
                    <line x1="62.5098015" y1="8.88930937" x2="9.83300248" y2="79.2630085" id="Line" stroke="url(#linearGradient-13)"></line>
                    <line x1="66.0215881" y1="11.8524125" x2="6.32121588" y2="76.2999054" id="Line" stroke="url(#linearGradient-14)"></line>
                    <line x1="68.8310174" y1="15.5562914" x2="3.5117866" y2="73.3368023" id="Line" stroke="url(#linearGradient-15)"></line>
                    <line x1="71.6404467" y1="19.2601703" x2="0.70235732" y2="69.6329234" id="Line" stroke="url(#linearGradient-16)"></line>
                    <line x1="56.1885856" y1="83.7076632" x2="16.1542184" y2="5.18543046" id="Line" stroke="url(#linearGradient-17)"></line>
                    <line x1="61.1050868" y1="80.7445601" x2="11.9400744" y2="8.14853359" id="Line" stroke="url(#linearGradient-18)"></line>
                    <line x1="63.9145161" y1="78.5222327" x2="8.42828784" y2="10.3708609" id="Line" stroke="url(#linearGradient-19)"></line>
                    <line x1="67.4263027" y1="74.8183538" x2="5.61885856" y2="13.333964" id="Line" stroke="url(#linearGradient-20)"></line>
                    <line x1="70.235732" y1="71.8552507" x2="2.10707196" y2="17.037843" id="Line" stroke="url(#linearGradient-21)"></line>
                    <line x1="73.0451613" y1="68.1513718" x2="0" y2="20.7417219" id="Line" stroke="url(#linearGradient-22)"></line>
                </g>
                <g id="wm-ribbon" transform="translate(0.000000, 47.622517)">
                    <path d="M146.066313,3.03403911 C147.281911,2.77621042 148.486935,3.03550742 149.452518,3.66316106 C150.418099,4.29081386 151.144239,5.28682246 151.40207,6.50241831 C151.467178,6.80938261 151.5,7.12231515 151.5,7.43610829 L151.5,7.43610829 L151.5,53.300307 C151.499998,54.5429473 150.996317,55.6679469 150.181977,56.4822863 C149.367638,57.296625 148.242639,57.8003041 147,57.8003041 C146.749759,57.8003041 146.499954,57.7794307 146.253184,57.7379009 C114.619159,52.4141122 90.7989194,49.7592359 74.7932448,49.7592359 C58.8730724,49.7592359 36.2059959,52.3844869 6.79290268,57.6494433 C5.56970375,57.8683987 4.37355648,57.5708253 3.42847054,56.9127133 C2.48338369,56.2546006 1.78935865,55.2359488 1.57040524,54.0127484 C1.52356057,53.7510469 1.5,53.4857089 1.5,53.2198479 L1.5,53.2198479 L1.5,7.49987832 C1.49999899,6.25723741 2.0036782,5.1322372 2.81801786,4.31789717 C3.63235787,3.50355679 4.75735857,2.99987684 6,2.99987684 C6.32553089,2.99987684 6.65010075,3.03519997 6.96801067,3.10522601 C36.6138597,9.63531944 59.4424253,12.8893317 75.4520548,12.8893317 C91.5171883,12.8893317 115.055784,9.61146148 146.066313,3.03403911 Z" id="Rectangle" stroke="#EFDB9F" stroke-width="3" fill="url(#linearGradient-23)"></path>
                    <path d="M142.044146,10.3592361 C143.268743,10.1482448 144.462929,10.4535926 145.403714,11.1178375 C146.344499,11.7820816 147.031883,12.805222 147.242877,14.0298168 C147.286359,14.2821856 147.308219,14.5378056 147.308219,14.7938929 L147.308219,14.7938929 L147.308219,47.4044278 C147.308219,48.6470685 146.80454,49.7720685 145.9902,50.5864084 C145.17586,51.4007482 144.05086,51.9044279 142.808219,51.9044279 C142.604368,51.9044279 142.400753,51.8905762 142.19878,51.8629685 C112.252203,47.7695629 89.6956887,45.7274733 74.5296571,45.7274733 C59.4461835,45.7274733 37.9829787,47.7465059 10.1405233,51.794059 C8.91080884,51.9728248 7.72505154,51.6362274 6.80203099,50.94751 C5.87901125,50.2587932 5.21872782,49.2179568 5.03996021,47.9882437 C5.00879454,47.7738602 4.99315068,47.5575059 4.99315068,47.3408689 L4.99315068,47.3408689 L4.99315068,14.8440361 C4.99314884,13.601395 5.49682768,12.4763946 6.3111672,11.6620544 C7.12550737,10.8477136 8.25050864,10.3440334 9.49315068,10.3440334 C9.75890082,10.3440334 10.0241286,10.3675743 10.2857244,10.4143802 C38.3598178,15.4375189 59.9833317,17.941851 75.1553762,17.941851 C90.3807195,17.941851 112.677251,15.4190582 142.044146,10.3592361 Z" id="Rectangle" stroke="#000000" stroke-width="3" fill="url(#linearGradient-24)" opacity="0.725644066"></path>
                    <path d="M51.0110498,41.4109502 C52.1819681,41.4109502 53.1674911,41.1554609 53.9676186,40.6444823 L53.9676186,40.6444823 L53.9676186,41.4109502 L59.3440855,41.4109502 C61.2956161,41.4109502 62.9690536,40.6012746 64.364398,38.9819234 C65.7597424,37.3625723 66.4574146,35.4332525 66.4574146,33.1939641 L66.4574146,33.1939641 L66.4574146,19.7695054 L62.281139,19.7695054 L62.281139,36.6092546 C62.281139,37.2554922 62.0778546,37.8153143 61.6712857,38.2887209 C61.2647169,38.7621275 60.7784605,38.9988308 60.2125166,38.9988308 L60.2125166,38.9988308 L58.1243788,38.9988308 L58.1243788,19.7695054 L53.9676186,19.7695054 L53.9676186,36.6092546 C53.9676186,37.2554922 53.7643342,37.8153143 53.3577653,38.2887209 C52.9511964,38.7621275 52.458435,38.9988308 51.8794809,38.9988308 L51.8794809,38.9988308 L49.7913431,38.9988308 L49.7913431,19.7695054 L45.6345829,19.7695054 L45.6345829,41.4109502 L51.0110498,41.4109502 Z M78.9472105,41.4109502 C80.0856033,41.4109502 81.0629949,40.935665 81.8793852,39.9850946 C82.6957755,39.0345242 83.1039707,37.9092442 83.1039707,36.6092546 L83.1039707,36.6092546 L83.1039707,24.571201 C83.1039707,23.263697 82.6957755,22.1365384 81.8793852,21.1897252 C81.0629949,20.242912 80.0856033,19.7695054 78.9472105,19.7695054 L78.9472105,19.7695054 L74.770935,19.7695054 C73.6325421,19.7695054 72.6551505,20.2410334 71.8387602,21.1840894 C71.0223699,22.1271455 70.6141748,23.2561826 70.6141748,24.571201 L70.6141748,24.571201 L70.6141748,36.6092546 C70.6141748,37.924273 71.0223699,39.0533101 71.8387602,39.9963662 C72.6551505,40.9394222 73.6325421,41.4109502 74.770935,41.4109502 L74.770935,41.4109502 L78.9472105,41.4109502 Z M76.8590727,38.9988308 C76.2801186,38.9988308 75.7873572,38.7621275 75.3807883,38.2887209 C74.9742194,37.8153143 74.770935,37.2554922 74.770935,36.6092546 L74.770935,36.6092546 L74.770935,24.571201 C74.770935,23.917449 74.9758457,23.3557483 75.3856671,22.8860989 C75.7954885,22.4164495 76.2866237,22.1816248 76.8590727,22.1816248 C77.4250166,22.1816248 77.9145255,22.4164495 78.3275995,22.8860989 C78.7406735,23.3557483 78.9472105,23.917449 78.9472105,24.571201 L78.9472105,24.571201 L78.9472105,36.6092546 C78.9472105,37.2554922 78.743926,37.8153143 78.3373572,38.2887209 C77.9307883,38.7621275 77.4380268,38.9988308 76.8590727,38.9988308 Z M92.6371977,41.4109502 C93.8081161,41.4109502 94.793639,41.1554609 95.5937666,40.6444823 L95.5937666,40.6444823 L95.5937666,41.4109502 L100.970233,41.4109502 C102.921764,41.4109502 104.595202,40.6012746 105.990546,38.9819234 C107.38589,37.3625723 108.083563,35.4332525 108.083563,33.1939641 L108.083563,33.1939641 L108.083563,19.7695054 L103.907287,19.7695054 L103.907287,36.6092546 C103.907287,37.2554922 103.704003,37.8153143 103.297434,38.2887209 C102.890865,38.7621275 102.404608,38.9988308 101.838665,38.9988308 L101.838665,38.9988308 L99.7505268,38.9988308 L99.7505268,19.7695054 L95.5937666,19.7695054 L95.5937666,36.6092546 C95.5937666,37.2554922 95.3904822,37.8153143 94.9839133,38.2887209 C94.5773444,38.7621275 94.0845829,38.9988308 93.5056288,38.9988308 L93.5056288,38.9988308 L91.4174911,38.9988308 L91.4174911,19.7695054 L87.2607309,19.7695054 L87.2607309,41.4109502 L92.6371977,41.4109502 Z M78.9276952,70.2662098 L78.9276952,55.83858 L74.7611773,55.83858 L74.7611773,70.2662098 L78.9276952,70.2662098 Z M78.9276952,77.4800247 L78.9276952,72.6783292 L74.7611773,72.6783292 L74.7611773,77.4800247 L78.9276952,77.4800247 Z" id="WOW!" fill="#492C14" fill-rule="nonzero"></path>
                    <g id="wm-ribbons" transform="translate(4.432944, 20.323307)">
                        <g id="wr-screw" transform="translate(127.608151, 3.384119)">
                            <ellipse id="Oval" fill="#492C14" cx="6.98630137" cy="7.64755695" rx="6.98630137" ry="7.64755695"></ellipse>
                            <ellipse id="Oval" fill="url(#linearGradient-25)" cx="6.6369863" cy="7.2651791" rx="6.6369863" ry="7.2651791"></ellipse>
                        </g>
                        <g id="wr-screw" transform="translate(10.630372, 11.286570) rotate(114.000000) translate(-10.630372, -11.286570) translate(3.286372, 3.440416)">
                            <ellipse id="Oval" fill="#492C14" cx="6.98630137" cy="7.64755695" rx="6.98630137" ry="7.64755695"></ellipse>
                            <ellipse id="Oval" fill="url(#linearGradient-25)" cx="6.6369863" cy="7.2651791" rx="6.6369863" ry="7.2651791"></ellipse>
                        </g>
                    </g>
                </g>
                <g id="gm-inner-circles" transform="translate(33.324387, 24.317881)">
                    <g id="gm-inner-sm-circles-tr" transform="translate(45.567738, 0.000000)">
                        <ellipse id="Oval" fill="#D8C282" cx="2.10754217" cy="2.25246558" rx="2.10754217" ry="2.25246558"></ellipse>
                        <ellipse id="Oval" fill="#D8C282" cx="9.13268275" cy="3.7541093" rx="2.10754217" ry="2.25246558"></ellipse>
                        <ellipse id="Oval" fill="#D8C282" cx="16.1578233" cy="6.00657487" rx="2.10754217" ry="2.25246558"></ellipse>
                        <ellipse id="Oval" fill="#D8C282" cx="23.1829639" cy="9.76068417" rx="2.10754217" ry="2.25246558"></ellipse>
                        <ellipse id="Oval" fill="#AB8435" cx="28.8030764" cy="14.2656153" rx="2.10754217" ry="2.25246558"></ellipse>
                        <ellipse id="Oval" fill="#AB8435" cx="34.4231888" cy="19.5213683" rx="2.10754217" ry="2.25246558"></ellipse>
                        <ellipse id="Oval" fill="#AB8435" cx="38.6382732" cy="26.2787651" rx="2.10754217" ry="2.25246558"></ellipse>
                    </g>
                    <g id="gm-inner-sm-circles-tl" transform="translate(21.949682, 14.384615) scale(-1, 1) translate(-21.949682, -14.384615) translate(1.141682, 0.000000)">
                        <ellipse id="Oval" fill="#D8C282" cx="2.10754217" cy="2.25246558" rx="2.10754217" ry="2.25246558"></ellipse>
                        <ellipse id="Oval" fill="#D8C282" cx="9.13268275" cy="3.7541093" rx="2.10754217" ry="2.25246558"></ellipse>
                        <ellipse id="Oval" fill="#D8C282" cx="16.1578233" cy="6.00657487" rx="2.10754217" ry="2.25246558"></ellipse>
                        <ellipse id="Oval" fill="#D8C282" cx="23.1829639" cy="9.76068417" rx="2.10754217" ry="2.25246558"></ellipse>
                        <ellipse id="Oval" fill="#AB8435" cx="28.8030764" cy="14.2656153" rx="2.10754217" ry="2.25246558"></ellipse>
                        <ellipse id="Oval" fill="#AB8435" cx="34.4231888" cy="19.5213683" rx="2.10754217" ry="2.25246558"></ellipse>
                        <ellipse id="Oval" fill="#AB8435" cx="38.6382732" cy="26.2787651" rx="2.10754217" ry="2.25246558"></ellipse>
                    </g>
                    <g id="gm-inner-sm-circles-br" transform="translate(66.375738, 89.979623) scale(1, -1) translate(-66.375738, -89.979623) translate(45.567738, 75.595008)">
                        <ellipse id="Oval" fill="#D8C282" cx="2.10754217" cy="2.25246558" rx="2.10754217" ry="2.25246558"></ellipse>
                        <ellipse id="Oval" fill="#D8C282" cx="9.13268275" cy="3.7541093" rx="2.10754217" ry="2.25246558"></ellipse>
                        <ellipse id="Oval" fill="#D8C282" cx="16.1578233" cy="6.00657487" rx="2.10754217" ry="2.25246558"></ellipse>
                        <ellipse id="Oval" fill="#D8C282" cx="23.1829639" cy="9.76068417" rx="2.10754217" ry="2.25246558"></ellipse>
                        <ellipse id="Oval" fill="#AB8435" cx="28.8030764" cy="14.2656153" rx="2.10754217" ry="2.25246558"></ellipse>
                        <ellipse id="Oval" fill="#AB8435" cx="34.4231888" cy="19.5213683" rx="2.10754217" ry="2.25246558"></ellipse>
                        <ellipse id="Oval" fill="#AB8435" cx="38.6382732" cy="26.2787651" rx="2.10754217" ry="2.25246558"></ellipse>
                    </g>
                    <g id="gm-inner-sm-circles-bl" transform="translate(21.949682, 89.979623) scale(-1, -1) translate(-21.949682, -89.979623) translate(1.141682, 75.595008)">
                        <ellipse id="Oval" fill="#D8C282" cx="2.10754217" cy="2.25246558" rx="2.10754217" ry="2.25246558"></ellipse>
                        <ellipse id="Oval" fill="#D8C282" cx="9.13268275" cy="3.7541093" rx="2.10754217" ry="2.25246558"></ellipse>
                        <ellipse id="Oval" fill="#D8C282" cx="16.1578233" cy="6.00657487" rx="2.10754217" ry="2.25246558"></ellipse>
                        <ellipse id="Oval" fill="#D8C282" cx="23.1829639" cy="9.76068417" rx="2.10754217" ry="2.25246558"></ellipse>
                        <ellipse id="Oval" fill="#AB8435" cx="28.8030764" cy="14.2656153" rx="2.10754217" ry="2.25246558"></ellipse>
                        <ellipse id="Oval" fill="#AB8435" cx="34.4231888" cy="19.5213683" rx="2.10754217" ry="2.25246558"></ellipse>
                        <ellipse id="Oval" fill="#AB8435" cx="38.6382732" cy="26.2787651" rx="2.10754217" ry="2.25246558"></ellipse>
                    </g>
                </g>
                <g id="wm-stars" transform="translate(65.148387, 32.423841)" fill="#D8C282">
                    <polygon id="Star" points="11.8451613 6.83940397 9.38783972 8.24839868 9.85714638 5.2641 7.86913147 3.15060794 10.6165005 2.71520463 11.8451613 0 13.0738221 2.71520463 15.8211911 3.15060794 13.8331762 5.2641 14.3024829 8.24839868"></polygon>
                    <polygon id="Star" points="20.5548387 6.64942053 18.7118475 7.70616656 19.0638275 5.46794255 17.5728163 3.88282351 19.6333431 3.55627102 20.5548387 1.51986755 21.4763343 3.55627102 23.5368611 3.88282351 22.0458499 5.46794255 22.3978299 7.70616656"></polygon>
                    <polygon id="Star" points="3.13548387 6.64942053 1.29249269 7.70616656 1.64447269 5.46794255 0.153461504 3.88282351 2.21398828 3.55627102 3.13548387 1.51986755 4.05697946 3.55627102 6.11750624 3.88282351 4.62649505 5.46794255 4.97847505 7.70616656"></polygon>
                </g>
            </g>
        </g>
    </g>
</svg>